<svg width="59" height="60" viewBox="0 0 59 60" fill="none" xmlns="http://www.w3.org/2000/svg">
<mask id="path-1-inside-1_149_8" fill="white">
<path d="M58.9577 29.9856C58.9577 46.2608 45.7636 59.4539 29.4918 59.4539C13.2147 59.4539 0.0214844 46.2608 0.0214844 29.9856C0.0214844 13.7141 13.2147 0.52002 29.4918 0.52002C45.7643 0.520063 58.9577 13.7141 58.9577 29.9856Z"/>
<path fill-rule="evenodd" clip-rule="evenodd" d="M29.4919 0.540059C13.2259 0.540059 0.0416456 13.7252 0.0416456 29.9856C0.0416456 46.2498 13.2259 59.4338 29.4919 59.4338C45.7527 59.4338 58.9378 46.2498 58.9378 29.9856C58.9378 13.7252 45.7534 0.540102 29.4919 0.540059ZM0.00158691 29.9856C0.00158691 13.7031 13.2038 0.5 29.4919 0.5C45.7755 0.500043 58.9779 13.7031 58.9779 29.9856C58.9779 46.2719 45.7748 59.4739 29.4919 59.4739C13.2038 59.4739 0.00158691 46.2719 0.00158691 29.9856Z"/>
<path d="M58.9577 30.0102C58.9577 46.2852 45.7636 59.4786 29.4918 59.4786C13.2147 59.4786 0.0214844 46.2845 0.0214844 30.0102C0.0214844 13.7385 13.2147 0.544434 29.4918 0.544434C45.7643 0.545121 58.9577 13.7384 58.9577 30.0102Z"/>
<path fill-rule="evenodd" clip-rule="evenodd" d="M29.4918 0.565931C13.2266 0.565931 0.0429814 13.7504 0.0429814 30.0102C0.0429814 46.2727 13.2266 59.4571 29.4918 59.4571C45.7517 59.4571 58.9362 46.2733 58.9362 30.0102C58.9362 13.7503 45.7525 0.566618 29.4918 0.565931ZM0 30.0102C0 13.7266 13.2028 0.522949 29.4918 0.522949C45.7762 0.523637 58.9792 13.7266 58.9792 30.0102C58.9792 46.297 45.7755 59.5001 29.4918 59.5001C13.2028 59.5001 0 46.2964 0 30.0102Z"/>
<path d="M40.7447 40.5235C40.1898 40.5235 39.6217 40.4836 39.063 40.4004C34.3789 39.7319 31.2469 36.3678 29.4925 33.7818C27.7326 36.3678 24.6007 39.7352 19.9188 40.4029C19.3617 40.4826 18.7996 40.5226 18.2368 40.5226C15.3247 40.5226 12.5909 39.4387 10.5345 37.4707C8.45853 35.4865 7.31299 32.8238 7.31299 29.9846C7.31299 27.1418 8.45849 24.4828 10.5375 22.495C12.5919 20.5267 15.3277 19.446 18.2411 19.446C18.7963 19.446 19.3615 19.4859 19.9184 19.5657C24.6004 20.2334 27.7321 23.5979 29.4922 26.1844C31.2469 23.5979 34.3787 20.2344 39.0624 19.5657C39.6211 19.4856 40.1862 19.446 40.7415 19.446C43.6536 19.446 46.3893 20.5295 48.4436 22.495C50.5216 24.4828 51.6645 27.1418 51.6645 29.9846C51.6645 32.8238 50.5245 35.4865 48.4466 37.4707C46.3886 39.4387 43.657 40.5235 40.7447 40.5235ZM31.5665 29.9857C32.4812 31.7279 35.1798 36.0751 39.5908 36.7069C39.9769 36.76 40.3656 36.7896 40.7443 36.7896C44.7066 36.7896 47.9319 33.7378 47.9319 29.9847C47.9319 26.2315 44.7073 23.1798 40.7415 23.1798C40.3628 23.1798 39.9742 23.2068 39.5916 23.2624C35.1798 23.8926 32.4813 28.2399 31.5665 29.9857ZM18.2411 23.1808C14.2735 23.1808 11.0477 26.2324 11.0477 29.9857C11.0477 33.7382 14.2722 36.7906 18.2361 36.7906C18.6166 36.7906 19.0054 36.761 19.3914 36.708C23.8026 36.0763 26.5003 31.7314 27.4156 29.9867C26.5028 28.2445 23.8025 23.8936 19.3914 23.2655C19.0099 23.2078 18.6201 23.1808 18.2411 23.1808Z"/>
<path d="M15.2313 28.9551H21.7914V31.069H15.2313V28.9551ZM43.6899 28.9551H41.4691V26.731H39.348V28.9551H37.1281V31.069H39.348V33.2927H41.4691V31.069H43.6899V28.9551Z"/>
</mask>
<path d="M29.4918 0.52002L29.4918 -0.47998H29.4918V0.52002ZM29.4919 0.540059L29.4919 -0.459941H29.4919V0.540059ZM29.4919 0.5L29.4919 -0.5H29.4919V0.5ZM29.4918 0.544434L29.4918 -0.455566H29.4918V0.544434ZM29.4918 0.565931L29.4919 -0.434069H29.4918V0.565931ZM29.4918 0.522949L29.4919 -0.477051H29.4918V0.522949ZM39.063 40.4004L39.2102 39.4113L39.2042 39.4105L39.063 40.4004ZM29.4925 33.7818L30.32 33.2204C30.1341 32.9463 29.8245 32.782 29.4932 32.7818C29.162 32.7815 28.8521 32.9453 28.6658 33.2192L29.4925 33.7818ZM19.9188 40.4029L19.7776 39.4129L19.7771 39.413L19.9188 40.4029ZM18.2368 40.5226L18.2369 39.5226H18.2368V40.5226ZM10.5345 37.4707L11.2259 36.7483L11.2254 36.7478L10.5345 37.4707ZM10.5375 22.495L11.2286 23.2178L11.2293 23.2171L10.5375 22.495ZM19.9184 19.5657L19.7766 20.5556L19.7772 20.5556L19.9184 19.5657ZM29.4922 26.1844L28.6654 26.747C28.8518 27.0208 29.1617 27.1846 29.4929 27.1844C29.8241 27.1841 30.1338 27.0199 30.3197 26.7458L29.4922 26.1844ZM39.0624 19.5657L39.2037 20.5556L39.2042 20.5555L39.0624 19.5657ZM48.4436 22.495L47.7523 23.2175L47.7523 23.2176L48.4436 22.495ZM48.4466 37.4707L47.756 36.7475L47.7555 36.748L48.4466 37.4707ZM31.5665 29.9857L30.6807 29.5216C30.5283 29.8125 30.5284 30.1598 30.6811 30.4506L31.5665 29.9857ZM39.5908 36.7069L39.449 37.6968L39.4545 37.6976L39.5908 36.7069ZM39.5916 23.2624L39.7331 24.2523L39.7353 24.252L39.5916 23.2624ZM19.3914 36.708L19.5275 37.6987L19.5332 37.6979L19.3914 36.708ZM27.4156 29.9867L28.3011 30.4513C28.4537 30.1606 28.4537 29.8135 28.3014 29.5226L27.4156 29.9867ZM19.3914 23.2655L19.242 24.2543L19.2504 24.2555L19.3914 23.2655ZM15.2313 28.9551V27.9551C14.679 27.9551 14.2313 28.4028 14.2313 28.9551H15.2313ZM21.7914 28.9551H22.7914C22.7914 28.4028 22.3437 27.9551 21.7914 27.9551V28.9551ZM21.7914 31.069V32.069C22.3437 32.069 22.7914 31.6213 22.7914 31.069H21.7914ZM15.2313 31.069H14.2313C14.2313 31.6213 14.679 32.069 15.2313 32.069V31.069ZM43.6899 28.9551H44.6899C44.6899 28.4028 44.2422 27.9551 43.6899 27.9551V28.9551ZM41.4691 28.9551H40.4691C40.4691 29.5074 40.9168 29.9551 41.4691 29.9551V28.9551ZM41.4691 26.731H42.4691C42.4691 26.1787 42.0213 25.731 41.4691 25.731V26.731ZM39.348 26.731V25.731C38.7957 25.731 38.348 26.1787 38.348 26.731H39.348ZM39.348 28.9551V29.9551C39.9003 29.9551 40.348 29.5074 40.348 28.9551H39.348ZM37.1281 28.9551V27.9551C36.5758 27.9551 36.1281 28.4028 36.1281 28.9551H37.1281ZM37.1281 31.069H36.1281C36.1281 31.6213 36.5758 32.069 37.1281 32.069V31.069ZM39.348 31.069H40.348C40.348 30.5167 39.9003 30.069 39.348 30.069V31.069ZM39.348 33.2927H38.348C38.348 33.845 38.7957 34.2927 39.348 34.2927V33.2927ZM41.4691 33.2927V34.2927C42.0213 34.2927 42.4691 33.845 42.4691 33.2927H41.4691ZM41.4691 31.069V30.069C40.9168 30.069 40.4691 30.5167 40.4691 31.069H41.4691ZM43.6899 31.069V32.069C44.2422 32.069 44.6899 31.6213 44.6899 31.069H43.6899ZM57.9577 29.9856C57.9577 45.7086 45.2113 58.4539 29.4918 58.4539V60.4539C46.3159 60.4539 59.9577 46.8131 59.9577 29.9856H57.9577ZM29.4918 58.4539C13.7669 58.4539 1.02148 45.7085 1.02148 29.9856H-0.978516C-0.978516 46.8132 12.6624 60.4539 29.4918 60.4539V58.4539ZM1.02148 29.9856C1.02148 14.2665 13.7669 1.52002 29.4918 1.52002V-0.47998C12.6625 -0.47998 -0.978516 13.1618 -0.978516 29.9856H1.02148ZM29.4918 1.52002C45.212 1.52006 57.9577 14.2664 57.9577 29.9856H59.9577C59.9577 13.1618 46.3166 -0.479936 29.4918 -0.47998L29.4918 1.52002ZM1.04165 29.9856C1.04165 14.2776 13.7781 1.54006 29.4919 1.54006V-0.459941C12.6737 -0.459941 -0.958354 13.1728 -0.958354 29.9856H1.04165ZM29.4919 58.4338C13.7781 58.4338 1.04165 45.6974 1.04165 29.9856H-0.958354C-0.958354 46.8021 12.6736 60.4338 29.4919 60.4338V58.4338ZM57.9378 29.9856C57.9378 45.6975 45.2003 58.4338 29.4919 58.4338V60.4338C46.305 60.4338 59.9378 46.802 59.9378 29.9856H57.9378ZM29.4919 1.54006C45.2011 1.5401 57.9378 14.2775 57.9378 29.9856H59.9378C59.9378 13.1729 46.3057 -0.459897 29.4919 -0.459941L29.4919 1.54006ZM29.4919 -0.5C12.6516 -0.5 -0.998413 13.1507 -0.998413 29.9856H1.00159C1.00159 14.2554 13.756 1.5 29.4919 1.5V-0.5ZM59.9779 29.9856C59.9779 13.1508 46.3278 -0.499956 29.4919 -0.5L29.4919 1.5C45.2232 1.50004 57.9779 14.2553 57.9779 29.9856H59.9779ZM29.4919 60.4739C46.3271 60.4739 59.9779 46.8242 59.9779 29.9856H57.9779C57.9779 45.7197 45.2225 58.4739 29.4919 58.4739V60.4739ZM-0.998413 29.9856C-0.998413 46.8242 12.6515 60.4739 29.4919 60.4739V58.4739C13.756 58.4739 1.00159 45.7196 1.00159 29.9856H-0.998413ZM57.9577 30.0102C57.9577 45.7329 45.2113 58.4786 29.4918 58.4786V60.4786C46.3159 60.4786 59.9577 46.8374 59.9577 30.0102H57.9577ZM29.4918 58.4786C13.7669 58.4786 1.02148 45.7322 1.02148 30.0102H-0.978516C-0.978516 46.8368 12.6624 60.4786 29.4918 60.4786V58.4786ZM1.02148 30.0102C1.02148 14.2909 13.7669 1.54443 29.4918 1.54443V-0.455566C12.6625 -0.455566 -0.978516 13.1861 -0.978516 30.0102H1.02148ZM29.4918 1.54443C45.2121 1.5451 57.9577 14.2908 57.9577 30.0102H59.9577C59.9577 13.1861 46.3166 -0.454855 29.4918 -0.455566L29.4918 1.54443ZM1.04298 30.0102C1.04298 14.3027 13.7788 1.56593 29.4918 1.56593V-0.434069C12.6744 -0.434069 -0.957019 13.198 -0.957019 30.0102H1.04298ZM29.4918 58.4571C13.7788 58.4571 1.04298 45.7203 1.04298 30.0102H-0.957019C-0.957019 46.825 12.6743 60.4571 29.4918 60.4571V58.4571ZM57.9362 30.0102C57.9362 45.7211 45.1994 58.4571 29.4918 58.4571V60.4571C46.304 60.4571 59.9362 46.8255 59.9362 30.0102H57.9362ZM29.4918 1.56593C45.2002 1.56659 57.9362 14.3026 57.9362 30.0102H59.9362C59.9362 13.198 46.3047 -0.433359 29.4919 -0.434069L29.4918 1.56593ZM29.4918 -0.477051C12.6506 -0.477051 -1 13.1743 -1 30.0102H1C1 14.279 13.755 1.52295 29.4918 1.52295V-0.477051ZM59.9792 30.0102C59.9792 13.1743 46.3285 -0.476339 29.4919 -0.477051L29.4918 1.52295C45.2239 1.52361 57.9792 14.2789 57.9792 30.0102H59.9792ZM29.4918 60.5001C46.3278 60.5001 59.9792 46.8493 59.9792 30.0102H57.9792C57.9792 45.7448 45.2231 58.5001 29.4918 58.5001V60.5001ZM-1 30.0102C-1 46.8487 12.6506 60.5001 29.4918 60.5001V58.5001C13.7551 58.5001 1 45.7441 1 30.0102H-1ZM40.7447 39.5235C40.237 39.5235 39.7182 39.487 39.2102 39.4113L38.9157 41.3895C39.5252 41.4803 40.1427 41.5235 40.7447 41.5235V39.5235ZM39.2042 39.4105C34.9355 38.8012 32.0151 35.719 30.32 33.2204L28.6649 34.3432C30.4787 37.0167 33.8223 40.6626 38.9217 41.3904L39.2042 39.4105ZM28.6658 33.2192C26.9641 35.7196 24.0438 38.8045 19.7776 39.4129L20.06 41.3928C25.1577 40.6659 28.5011 37.016 30.3192 34.3444L28.6658 33.2192ZM19.7771 39.413C19.2669 39.486 18.7523 39.5226 18.2369 39.5226L18.2367 41.5226C18.847 41.5226 19.4564 41.4793 20.0605 41.3928L19.7771 39.413ZM18.2368 39.5226C15.5759 39.5226 13.0916 38.5337 11.2259 36.7483L9.84309 38.1932C12.0901 40.3436 15.0735 41.5226 18.2368 41.5226V39.5226ZM11.2254 36.7478C9.34439 34.9499 8.31299 32.5474 8.31299 29.9846H6.31299C6.31299 33.1003 7.57267 36.0231 9.84353 38.1936L11.2254 36.7478ZM8.31299 29.9846C8.31299 27.4187 9.34404 25.0197 11.2286 23.2178L9.84642 21.7722C7.57293 23.946 6.31299 26.8649 6.31299 29.9846H8.31299ZM11.2293 23.2171C13.0921 21.4324 15.5779 20.446 18.2411 20.446V18.446C15.0776 18.446 12.0917 19.6211 9.84569 21.7729L11.2293 23.2171ZM18.2411 20.446C18.749 20.446 19.2668 20.4826 19.7766 20.5556L20.0601 18.5758C19.4562 18.4893 18.8436 18.446 18.2411 18.446V20.446ZM19.7772 20.5556C24.0437 21.1641 26.9639 24.2465 28.6654 26.747L30.3189 25.6218C28.5004 22.9493 25.1571 19.3027 20.0596 18.5757L19.7772 20.5556ZM30.3197 26.7458C32.0151 24.2468 34.9353 21.165 39.2037 20.5556L38.921 18.5757C33.8221 19.3037 30.4787 22.949 28.6647 25.623L30.3197 26.7458ZM39.2042 20.5555C39.7155 20.4823 40.2332 20.446 40.7415 20.446V18.446C40.1393 18.446 39.5267 18.4889 38.9205 18.5758L39.2042 20.5555ZM40.7415 20.446C43.4028 20.446 45.8889 21.4348 47.7523 23.2175L49.1349 21.7724C46.8896 19.6243 43.9044 18.446 40.7415 18.446V20.446ZM47.7523 23.2176C49.6355 25.0191 50.6645 27.4181 50.6645 29.9846H52.6645C52.6645 26.8656 51.4076 23.9465 49.1349 21.7724L47.7523 23.2176ZM50.6645 29.9846C50.6645 32.5486 49.6377 34.9506 47.756 36.7475L49.1372 38.194C51.4112 36.0224 52.6645 33.0991 52.6645 29.9846H50.6645ZM47.7555 36.748C45.8877 38.534 43.4052 39.5235 40.7447 39.5235V41.5235C43.9087 41.5235 46.8895 40.3433 49.1377 38.1935L47.7555 36.748ZM30.6811 30.4506C31.1627 31.3678 32.1179 32.981 33.5493 34.4585C34.9785 35.9338 36.9463 37.3384 39.449 37.6968L39.7326 35.717C37.8242 35.4437 36.2373 34.3587 34.9858 33.0669C33.7365 31.7774 32.885 30.3458 32.4518 29.5208L30.6811 30.4506ZM39.4545 37.6976C39.88 37.7561 40.3145 37.7896 40.7443 37.7896V35.7896C40.4167 35.7896 40.0738 35.764 39.7271 35.7163L39.4545 37.6976ZM40.7443 37.7896C45.2064 37.7896 48.9319 34.3411 48.9319 29.9847H46.9319C46.9319 33.1345 44.2067 35.7896 40.7443 35.7896V37.7896ZM48.9319 29.9847C48.9319 25.628 45.207 22.1798 40.7415 22.1798V24.1798C44.2077 24.1798 46.9319 26.835 46.9319 29.9847H48.9319ZM40.7415 22.1798C40.316 22.1798 39.8793 22.2101 39.448 22.2727L39.7353 24.252C40.069 24.2036 40.4095 24.1798 40.7415 24.1798V22.1798ZM39.4502 22.2724C36.947 22.63 34.9789 24.0342 33.5494 25.5099C32.1178 26.9879 31.1625 28.6021 30.6807 29.5216L32.4522 30.4498C32.8852 29.6235 33.7367 28.1912 34.986 26.9015C36.2374 25.6095 37.8244 24.525 39.7331 24.2523L39.4502 22.2724ZM18.2411 22.1808C13.7743 22.1808 10.0477 25.6285 10.0477 29.9857H12.0477C12.0477 26.8363 14.7728 24.1808 18.2411 24.1808V22.1808ZM10.0477 29.9857C10.0477 34.3414 13.7723 37.7906 18.2361 37.7906V35.7906C14.7721 35.7906 12.0477 33.1349 12.0477 29.9857H10.0477ZM18.2361 37.7906C18.6676 37.7906 19.1022 37.7571 19.5275 37.6986L19.2553 35.7173C18.9085 35.7649 18.5655 35.7906 18.2361 35.7906V37.7906ZM19.5332 37.6979C22.0358 37.3395 24.0034 35.9357 25.4326 34.4606C26.864 32.9832 27.8191 31.37 28.3011 30.4513L26.53 29.5222C26.0967 30.3481 25.2454 31.7797 23.9963 33.0689C22.745 34.3603 21.1582 35.4447 19.2497 35.7181L19.5332 37.6979ZM28.3014 29.5226C27.8205 28.6048 26.8653 26.9907 25.4337 25.5126C24.0042 24.0368 22.0356 22.6319 19.5324 22.2755L19.2504 24.2555C21.1583 24.5272 22.7454 25.6118 23.9971 26.9041C25.2465 28.194 26.0979 29.6264 26.5298 30.4508L28.3014 29.5226ZM19.5408 22.2767C19.1065 22.2111 18.6666 22.1808 18.2411 22.1808V24.1808C18.5736 24.1808 18.9133 24.2046 19.2421 24.2542L19.5408 22.2767ZM15.2313 29.9551H21.7914V27.9551H15.2313V29.9551ZM20.7914 28.9551V31.069H22.7914V28.9551H20.7914ZM21.7914 30.069H15.2313V32.069H21.7914V30.069ZM16.2313 31.069V28.9551H14.2313V31.069H16.2313ZM43.6899 27.9551H41.4691V29.9551H43.6899V27.9551ZM42.4691 28.9551V26.731H40.4691V28.9551H42.4691ZM41.4691 25.731H39.348V27.731H41.4691V25.731ZM38.348 26.731V28.9551H40.348V26.731H38.348ZM39.348 27.9551H37.1281V29.9551H39.348V27.9551ZM36.1281 28.9551V31.069H38.1281V28.9551H36.1281ZM37.1281 32.069H39.348V30.069H37.1281V32.069ZM38.348 31.069V33.2927H40.348V31.069H38.348ZM39.348 34.2927H41.4691V32.2927H39.348V34.2927ZM42.4691 33.2927V31.069H40.4691V33.2927H42.4691ZM41.4691 32.069H43.6899V30.069H41.4691V32.069ZM44.6899 31.069V28.9551H42.6899V31.069H44.6899Z" fill="white" mask="url(#path-1-inside-1_149_8)"/>
</svg>
