<svg width="52" height="52" viewBox="0 0 52 52" fill="none" xmlns="http://www.w3.org/2000/svg">
<path d="M21.9574 23.5824C22.3869 23.3227 22.5967 22.8532 22.5967 22.1939C22.5967 21.4547 22.317 20.9752 21.7476 20.7354C21.2581 20.5756 20.6388 20.4857 19.8796 20.4857H16.4432V23.972H20.2791C20.9684 23.982 21.5178 23.8522 21.9574 23.5824Z" fill="#1E1E1E"/>
<path d="M34.8738 24.7015C34.3843 24.282 33.7749 24.0722 33.0557 24.0722C32.2765 24.0722 31.6672 24.2919 31.2276 24.7415C30.7981 25.191 30.5284 25.7904 30.4085 26.5496H35.6729C35.633 25.7404 35.3533 25.1311 34.8738 24.7015Z" fill="#1E1E1E"/>
<path d="M47.6503 0.277344H4.49585C2.28818 0.277344 0.500061 2.06546 0.500061 4.27313V47.4276C0.500061 49.6353 2.28818 51.4234 4.49585 51.4234H47.6503C49.858 51.4234 51.6461 49.6353 51.6461 47.4276V4.27313C51.6461 2.06546 49.858 0.277344 47.6503 0.277344ZM29.6293 18.4881H36.4022V20.4561H29.6293V18.4881ZM25.5436 31.3046C25.244 31.7941 24.8744 32.2137 24.4248 32.5433C23.9254 32.9329 23.326 33.1926 22.6367 33.3425C21.9474 33.4823 21.2082 33.5522 20.3991 33.5522H13.2866V17.7489H20.9285C22.8565 17.7789 24.225 18.3383 25.0242 19.4371C25.5037 20.1064 25.7434 20.9156 25.7434 21.8546C25.7434 22.8136 25.5037 23.5928 25.0142 24.1821C24.7445 24.5118 24.3349 24.8115 23.8055 25.0812C24.6146 25.3809 25.224 25.8404 25.6336 26.4797C26.0431 27.119 26.2529 27.8882 26.2529 28.7973C26.2529 29.7163 26.0132 30.5554 25.5436 31.3046ZM38.8596 28.5675H30.3486C30.3985 29.7363 30.7981 30.5654 31.5673 31.0349C32.0368 31.3246 32.5962 31.4744 33.2555 31.4744C33.9448 31.4744 34.5142 31.2946 34.9537 30.935C35.1935 30.7452 35.4032 30.4755 35.5831 30.1259H38.6998C38.6199 30.8151 38.2403 31.5244 37.571 32.2436C36.5221 33.3824 35.0636 33.9518 33.1756 33.9518C31.6172 33.9518 30.2487 33.4723 29.0599 32.5133C27.8712 31.5544 27.2718 29.996 27.2718 27.8383C27.2718 25.8104 27.8113 24.262 28.8801 23.1832C29.959 22.1043 31.3475 21.5649 33.0557 21.5649C34.0746 21.5649 34.9937 21.7447 35.8028 22.1143C36.622 22.4739 37.2913 23.0533 37.8207 23.8425C38.3002 24.5318 38.6099 25.3409 38.7497 26.2599C38.8396 26.7894 38.8696 27.5586 38.8596 28.5675Z" fill="#1E1E1E"/>
<path d="M21.9075 26.859C21.5279 26.6892 21.0084 26.5993 20.3291 26.5893H16.4332V30.8048H20.2792C20.9684 30.8048 21.4979 30.7149 21.8775 30.5251C22.5767 30.1755 22.9164 29.5262 22.9164 28.5572C22.9164 27.7381 22.5767 27.1687 21.9075 26.859Z" fill="#1E1E1E"/>
</svg>
