<svg width="61" height="62" viewBox="0 0 61 62" fill="none" xmlns="http://www.w3.org/2000/svg">
<mask id="path-1-inside-1_149_11" fill="white">
<path d="M30.5 61.5C47.3447 61.5 61 47.8447 61 31C61 14.1553 47.3447 0.5 30.5 0.5C13.6553 0.5 0 14.1553 0 31C0 47.8447 13.6553 61.5 30.5 61.5Z"/>
<path d="M31.2101 31.5142C32.1021 30.7306 32.8262 29.9925 33.7812 29.5903C34.3409 29.3559 34.9601 29.0236 35.4918 29.5378C36.0235 30.052 35.6877 30.6152 35.5268 31.1679C35.205 32.2768 34.8796 33.3892 34.5858 34.5051C34.4983 34.8304 34.3514 35.2047 34.6837 35.4951C35.0161 35.7854 35.4323 35.593 35.7612 35.4251C36.9785 34.8024 37.9685 34.0643 37.8145 32.4272C37.7236 31.4478 37.8145 30.4053 38.7206 29.7057C39.0704 29.4293 39.4936 29.1075 39.9379 29.4154C40.3822 29.7232 40.0638 30.115 39.9379 30.4648C39.5081 31.784 39.3884 33.1846 39.5881 34.5576C39.6336 34.8654 39.5881 35.3097 39.8714 35.4216C40.2597 35.5685 40.4346 35.0718 40.683 34.8689C40.9314 34.666 41.0993 34.3792 41.3161 34.1413C41.8898 33.5151 42.2047 33.0149 41.4421 32.1579C40.5571 31.1679 40.8229 29.23 41.6939 28.31C41.9331 28.0223 42.2566 27.8169 42.6187 27.7227C42.9808 27.6286 43.3633 27.6505 43.7123 27.7852C44.4714 28.0616 44.7198 28.7157 44.7408 29.4818C44.7618 30.3424 44.391 31.0979 44.1006 31.9305C44.9472 32.1439 45.4719 31.6681 45.9476 31.1539C47.095 29.9086 48.4243 29.118 50.1873 29.3034C51.4642 29.4363 52.1953 30.1255 52.1288 31.1294C52.1037 31.3518 52.0256 31.5648 51.9011 31.7508C51.7766 31.9367 51.6094 32.0901 51.4134 32.198C51.2174 32.3059 50.9984 32.3653 50.7747 32.3711C50.551 32.3769 50.3292 32.329 50.1279 32.2313C49.7291 32.018 49.7781 31.8221 50.1279 31.6192C50.262 31.561 50.3697 31.455 50.4298 31.3217C50.49 31.1885 50.4983 31.0376 50.4532 30.8986C50.3981 30.7322 50.2943 30.5862 50.1552 30.4795C50.0161 30.3728 49.8481 30.3104 49.6731 30.3004C49.1914 30.2287 48.7003 30.3384 48.2949 30.6082C47.0146 31.4268 46.2975 33.7005 46.8956 35.0858C47.2454 35.9183 47.8961 36.0758 48.5712 35.4846C48.9437 35.1276 49.2245 34.686 49.3898 34.1973C49.4885 33.8927 49.6286 33.6032 49.8061 33.3367C50.1244 32.9135 50.5651 32.5392 51.1178 32.7665C51.6705 32.9939 51.3872 33.5676 51.2962 33.9559C50.9709 35.3027 50.6946 36.6145 51.835 37.7478C51.8651 37.7754 51.8891 37.8089 51.9056 37.8462C51.922 37.8836 51.9305 37.9239 51.9305 37.9647C51.9305 38.0055 51.922 38.0459 51.9056 38.0832C51.8891 38.1206 51.8651 38.1541 51.835 38.1816C51.766 38.2493 51.6773 38.2932 51.5817 38.307C51.4861 38.3208 51.3886 38.3039 51.3032 38.2586C50.9077 38.1198 50.5435 37.9044 50.2314 37.6247C49.9192 37.345 49.6653 37.0064 49.4842 36.6285C49.3688 36.3766 49.3198 36.0093 48.9105 36.3696C48.5574 36.7315 48.0856 36.9537 47.5817 36.9955C47.0779 37.0373 46.5759 36.8957 46.168 36.597C45.1746 35.9603 44.8178 35.0053 44.9087 33.8615C44.9262 33.6376 44.9542 33.4207 44.9822 33.1618C43.8383 33.2563 42.9078 33.5116 42.2536 34.5611C41.6863 35.4282 40.9137 36.142 40.0044 36.6389C38.8115 37.3386 38.3463 37.1217 38.0244 35.8099C37.979 35.628 37.9405 35.4601 37.8705 35.1103C37.0957 35.8042 36.2085 36.3613 35.2469 36.7579C33.4384 37.4015 32.389 36.5725 32.6548 34.659C32.8189 33.6763 33.0898 32.7144 33.4629 31.7906C33.5469 31.5632 33.7497 31.2833 33.4629 31.091C33.253 30.958 33.0326 31.1819 32.8682 31.3218C31.7523 32.2698 30.7694 33.3192 30.4475 34.8199C30.3728 35.2624 30.246 35.6945 30.0697 36.1072C29.9635 36.3832 29.7681 36.6157 29.5146 36.7678C29.261 36.9199 28.9639 36.9829 28.6705 36.9468C28.0408 36.8348 28.4466 36.1912 28.2717 35.7959C27.6001 36.1457 26.9564 36.4955 26.2918 36.7999C25.8125 37.0202 25.1864 37.1951 24.8366 36.7824C24.2524 36.0827 23.8571 36.3241 23.2414 36.7159C22.3424 37.2896 21.3105 37.0447 20.4954 36.0967C20.0826 35.6175 19.8693 35.649 19.4705 36.0758C18.663 36.9088 17.7036 37.5797 16.644 38.0522C12.4847 40.0286 8.39546 37.8108 8.16458 33.2283C7.89173 28.0546 10.092 23.9373 14.4157 21.0654C14.9743 20.6774 15.6119 20.4182 16.2827 20.3063C16.9536 20.1944 17.6408 20.2326 18.2951 20.4182C19.0626 20.6189 19.737 21.0791 20.2038 21.7205C20.6706 22.362 20.9009 23.1453 20.8557 23.9373C20.8047 24.6972 20.5132 25.4211 20.0232 26.0041C19.5333 26.5871 18.8704 26.999 18.1307 27.1801C17.8823 27.236 17.5605 27.334 17.4311 27.0996C17.2352 26.7848 17.5465 26.5714 17.7599 26.4C18.9283 25.4135 19.1277 24.1297 18.9073 22.72C18.6974 21.4047 17.7599 20.873 16.5111 21.3522C15.6147 21.7242 14.824 22.3118 14.2093 23.0628C12.1434 25.3455 10.8518 28.2227 10.5188 31.2833C10.3504 32.6047 10.5858 33.9461 11.1939 35.1313C12.0825 36.8278 13.5901 37.5799 15.4511 37.1392C16.9237 36.7711 18.2752 36.0261 19.3725 34.9773C19.5263 34.8166 19.6463 34.6267 19.7256 34.4188C19.8049 34.211 19.8419 33.9893 19.8343 33.767C20.0896 31.1084 22.3879 29.1145 24.9555 29.3104C25.5749 29.3297 26.1648 29.5791 26.6101 30.01C26.8217 30.208 26.9667 30.4667 27.025 30.7506C27.0833 31.0344 27.052 31.3294 26.9354 31.5947C26.6871 32.1964 26.1344 32.3922 25.5082 32.3608C25.3773 32.375 25.2448 32.3565 25.1227 32.3071C25.0007 32.2577 24.8927 32.1787 24.8086 32.0774C24.5777 31.7276 25.0185 31.7031 25.1584 31.5282C25.5502 31.0385 25.3298 30.4543 24.6582 30.3179C24.3258 30.2432 23.9796 30.2583 23.6551 30.3616C23.3305 30.4649 23.0393 30.6526 22.8112 30.9056C22.3355 31.3885 21.9811 31.9773 21.7768 32.6236C21.5725 33.2699 21.5242 33.9554 21.6358 34.624C21.7058 35.1418 21.9261 35.649 22.4963 35.8029C23.0665 35.9568 23.4373 35.53 23.7871 35.1313C24.0461 34.8004 24.2332 34.4192 24.3363 34.0119C24.42 33.6291 24.6279 33.2848 24.9275 33.0324C25.2773 32.763 25.6621 32.5427 26.0749 32.784C26.4877 33.0254 26.2358 33.4312 26.2358 33.767C26.2358 34.3827 25.5712 35.0998 26.3932 35.572C26.834 35.8239 28.611 34.4841 28.7509 33.8545C28.9713 32.8505 29.1497 31.836 29.3491 30.8286C29.3737 30.4735 29.5081 30.1348 29.7339 29.8596C29.9038 29.6658 30.1288 29.5285 30.3789 29.466C30.6289 29.4035 30.892 29.4188 31.1332 29.5098C31.6614 29.7302 31.399 30.2094 31.3465 30.6152C31.3186 30.8566 31.2766 31.1014 31.2101 31.5142ZM43.0267 29.1845C42.9358 28.9396 42.7889 28.7017 42.488 28.7332C42.1872 28.7647 42.0997 29.0411 42.0752 29.2999C42.0367 29.6832 42.0892 30.0702 42.2284 30.4295C42.3676 30.7887 42.5896 31.11 42.8763 31.3673C43.2066 30.6865 43.2605 29.9042 43.0267 29.1845Z"/>
</mask>
<path d="M30.5 61.5C47.3447 61.5 61 47.8447 61 31C61 14.1553 47.3447 0.5 30.5 0.5C13.6553 0.5 0 14.1553 0 31C0 47.8447 13.6553 61.5 30.5 61.5Z" stroke="white" stroke-width="2" mask="url(#path-1-inside-1_149_11)"/>
<path d="M31.2101 31.5142C32.1021 30.7306 32.8262 29.9925 33.7812 29.5903C34.3409 29.3559 34.9601 29.0236 35.4918 29.5378C36.0235 30.052 35.6877 30.6152 35.5268 31.1679C35.205 32.2768 34.8796 33.3892 34.5858 34.5051C34.4983 34.8304 34.3514 35.2047 34.6837 35.4951C35.0161 35.7854 35.4323 35.593 35.7612 35.4251C36.9785 34.8024 37.9685 34.0643 37.8145 32.4272C37.7236 31.4478 37.8145 30.4053 38.7206 29.7057C39.0704 29.4293 39.4936 29.1075 39.9379 29.4154C40.3822 29.7232 40.0638 30.115 39.9379 30.4648C39.5081 31.784 39.3884 33.1846 39.5881 34.5576C39.6336 34.8654 39.5881 35.3097 39.8714 35.4216C40.2597 35.5685 40.4346 35.0718 40.683 34.8689C40.9314 34.666 41.0993 34.3792 41.3161 34.1413C41.8898 33.5151 42.2047 33.0149 41.4421 32.1579C40.5571 31.1679 40.8229 29.23 41.6939 28.31C41.9331 28.0223 42.2566 27.8169 42.6187 27.7227C42.9808 27.6286 43.3633 27.6505 43.7123 27.7852C44.4714 28.0616 44.7198 28.7157 44.7408 29.4818C44.7618 30.3424 44.391 31.0979 44.1006 31.9305C44.9472 32.1439 45.4719 31.6681 45.9476 31.1539C47.095 29.9086 48.4243 29.118 50.1873 29.3034C51.4642 29.4363 52.1953 30.1255 52.1288 31.1294C52.1037 31.3518 52.0256 31.5648 51.9011 31.7508C51.7766 31.9367 51.6094 32.0901 51.4134 32.198C51.2174 32.3059 50.9984 32.3653 50.7747 32.3711C50.551 32.3769 50.3292 32.329 50.1279 32.2313C49.7291 32.018 49.7781 31.8221 50.1279 31.6192C50.262 31.561 50.3697 31.455 50.4298 31.3217C50.49 31.1885 50.4983 31.0376 50.4532 30.8986C50.3981 30.7322 50.2943 30.5862 50.1552 30.4795C50.0161 30.3728 49.8481 30.3104 49.6731 30.3004C49.1914 30.2287 48.7003 30.3384 48.2949 30.6082C47.0146 31.4268 46.2975 33.7005 46.8956 35.0858C47.2454 35.9183 47.8961 36.0758 48.5712 35.4846C48.9437 35.1276 49.2245 34.686 49.3898 34.1973C49.4885 33.8927 49.6286 33.6032 49.8061 33.3367C50.1244 32.9135 50.5651 32.5392 51.1178 32.7665C51.6705 32.9939 51.3872 33.5676 51.2962 33.9559C50.9709 35.3027 50.6946 36.6145 51.835 37.7478C51.8651 37.7754 51.8891 37.8089 51.9056 37.8462C51.922 37.8836 51.9305 37.9239 51.9305 37.9647C51.9305 38.0055 51.922 38.0459 51.9056 38.0832C51.8891 38.1206 51.8651 38.1541 51.835 38.1816C51.766 38.2493 51.6773 38.2932 51.5817 38.307C51.4861 38.3208 51.3886 38.3039 51.3032 38.2586C50.9077 38.1198 50.5435 37.9044 50.2314 37.6247C49.9192 37.345 49.6653 37.0064 49.4842 36.6285C49.3688 36.3766 49.3198 36.0093 48.9105 36.3696C48.5574 36.7315 48.0856 36.9537 47.5817 36.9955C47.0779 37.0373 46.5759 36.8957 46.168 36.597C45.1746 35.9603 44.8178 35.0053 44.9087 33.8615C44.9262 33.6376 44.9542 33.4207 44.9822 33.1618C43.8383 33.2563 42.9078 33.5116 42.2536 34.5611C41.6863 35.4282 40.9137 36.142 40.0044 36.6389C38.8115 37.3386 38.3463 37.1217 38.0244 35.8099C37.979 35.628 37.9405 35.4601 37.8705 35.1103C37.0957 35.8042 36.2085 36.3613 35.2469 36.7579C33.4384 37.4015 32.389 36.5725 32.6548 34.659C32.8189 33.6763 33.0898 32.7144 33.4629 31.7906C33.5469 31.5632 33.7497 31.2833 33.4629 31.091C33.253 30.958 33.0326 31.1819 32.8682 31.3218C31.7523 32.2698 30.7694 33.3192 30.4475 34.8199C30.3728 35.2624 30.246 35.6945 30.0697 36.1072C29.9635 36.3832 29.7681 36.6157 29.5146 36.7678C29.261 36.9199 28.9639 36.9829 28.6705 36.9468C28.0408 36.8348 28.4466 36.1912 28.2717 35.7959C27.6001 36.1457 26.9564 36.4955 26.2918 36.7999C25.8125 37.0202 25.1864 37.1951 24.8366 36.7824C24.2524 36.0827 23.8571 36.3241 23.2414 36.7159C22.3424 37.2896 21.3105 37.0447 20.4954 36.0967C20.0826 35.6175 19.8693 35.649 19.4705 36.0758C18.663 36.9088 17.7036 37.5797 16.644 38.0522C12.4847 40.0286 8.39546 37.8108 8.16458 33.2283C7.89173 28.0546 10.092 23.9373 14.4157 21.0654C14.9743 20.6774 15.6119 20.4182 16.2827 20.3063C16.9536 20.1944 17.6408 20.2326 18.2951 20.4182C19.0626 20.6189 19.737 21.0791 20.2038 21.7205C20.6706 22.362 20.9009 23.1453 20.8557 23.9373C20.8047 24.6972 20.5132 25.4211 20.0232 26.0041C19.5333 26.5871 18.8704 26.999 18.1307 27.1801C17.8823 27.236 17.5605 27.334 17.4311 27.0996C17.2352 26.7848 17.5465 26.5714 17.7599 26.4C18.9283 25.4135 19.1277 24.1297 18.9073 22.72C18.6974 21.4047 17.7599 20.873 16.5111 21.3522C15.6147 21.7242 14.824 22.3118 14.2093 23.0628C12.1434 25.3455 10.8518 28.2227 10.5188 31.2833C10.3504 32.6047 10.5858 33.9461 11.1939 35.1313C12.0825 36.8278 13.5901 37.5799 15.4511 37.1392C16.9237 36.7711 18.2752 36.0261 19.3725 34.9773C19.5263 34.8166 19.6463 34.6267 19.7256 34.4188C19.8049 34.211 19.8419 33.9893 19.8343 33.767C20.0896 31.1084 22.3879 29.1145 24.9555 29.3104C25.5749 29.3297 26.1648 29.5791 26.6101 30.01C26.8217 30.208 26.9667 30.4667 27.025 30.7506C27.0833 31.0344 27.052 31.3294 26.9354 31.5947C26.6871 32.1964 26.1344 32.3922 25.5082 32.3608C25.3773 32.375 25.2448 32.3565 25.1227 32.3071C25.0007 32.2577 24.8927 32.1787 24.8086 32.0774C24.5777 31.7276 25.0185 31.7031 25.1584 31.5282C25.5502 31.0385 25.3298 30.4543 24.6582 30.3179C24.3258 30.2432 23.9796 30.2583 23.6551 30.3616C23.3305 30.4649 23.0393 30.6526 22.8112 30.9056C22.3355 31.3885 21.9811 31.9773 21.7768 32.6236C21.5725 33.2699 21.5242 33.9554 21.6358 34.624C21.7058 35.1418 21.9261 35.649 22.4963 35.8029C23.0665 35.9568 23.4373 35.53 23.7871 35.1313C24.0461 34.8004 24.2332 34.4192 24.3363 34.0119C24.42 33.6291 24.6279 33.2848 24.9275 33.0324C25.2773 32.763 25.6621 32.5427 26.0749 32.784C26.4877 33.0254 26.2358 33.4312 26.2358 33.767C26.2358 34.3827 25.5712 35.0998 26.3932 35.572C26.834 35.8239 28.611 34.4841 28.7509 33.8545C28.9713 32.8505 29.1497 31.836 29.3491 30.8286C29.3737 30.4735 29.5081 30.1348 29.7339 29.8596C29.9038 29.6658 30.1288 29.5285 30.3789 29.466C30.6289 29.4035 30.892 29.4188 31.1332 29.5098C31.6614 29.7302 31.399 30.2094 31.3465 30.6152C31.3186 30.8566 31.2766 31.1014 31.2101 31.5142ZM43.0267 29.1845C42.9358 28.9396 42.7889 28.7017 42.488 28.7332C42.1872 28.7647 42.0997 29.0411 42.0752 29.2999C42.0367 29.6832 42.0892 30.0702 42.2284 30.4295C42.3676 30.7887 42.5896 31.11 42.8763 31.3673C43.2066 30.6865 43.2605 29.9042 43.0267 29.1845Z" stroke="white" stroke-width="2" mask="url(#path-1-inside-1_149_11)"/>
</svg>
