<svg width="59" height="106" viewBox="0 0 59 106" fill="none" xmlns="http://www.w3.org/2000/svg">
<mask id="path-1-inside-1_149_9" fill="white">
<path d="M9 0.837891V22.8379H12V0.837891H9Z"/>
<path d="M9 83.1621V105.162H12V83.1621H9Z"/>
<path d="M0.979187 71.8109C0.979187 73.5545 1.24186 74.8408 1.67119 75.8265C1.67303 75.8308 1.67545 75.8349 1.67735 75.8392C2.26644 77.3041 3.16533 78.0599 4.13008 78.5915C5.94835 79.7694 8.00169 80.3865 8.6568 83.122C8.68235 83.2287 8.70573 83.3349 8.73051 83.4417H11.7586C11.7834 83.3348 11.8087 83.2288 11.8343 83.122C13.093 77.8662 19.5119 82.0718 19.5119 71.8109C19.5119 71.7512 19.5097 71.6869 19.5078 71.6232C19.5097 71.5073 19.5119 71.3904 19.5119 71.2706C19.5119 68.818 17.8331 62.901 17.8331 60.6215V45.584C17.8331 43.3045 19.5119 37.3875 19.5119 34.9349C19.5119 34.8151 19.5097 34.6982 19.5078 34.5823C19.5098 34.5186 19.5119 34.4543 19.5119 34.3946C19.5119 24.1337 13.093 28.3393 11.8343 23.0835C11.8087 22.9767 11.7834 22.8707 11.7586 22.7638H8.73051C8.70573 22.8706 8.68235 22.9768 8.6568 23.0835C8.00169 25.819 5.94835 26.4361 4.13008 27.614C3.16533 28.1456 2.26644 28.9014 1.67735 30.3663C1.67545 30.3706 1.67309 30.3747 1.67119 30.379C1.24186 31.3647 0.979187 32.651 0.979187 34.3946C0.979187 34.4533 0.981415 34.515 0.98325 34.5772C0.98135 34.6947 0.979187 34.8134 0.979187 34.9349C0.979187 37.3875 2.65802 43.3045 2.65802 45.584V60.6215C2.65802 62.901 0.979187 68.818 0.979187 71.2706C0.979187 71.3921 0.981415 71.5108 0.98325 71.6283C0.98135 71.6905 0.979187 71.7522 0.979187 71.8109Z"/>
<path d="M0.979187 71.8109C0.979187 72.1131 0.986428 72.3997 1.00171 72.6752H19.4955C19.5062 72.3987 19.5119 72.1117 19.5119 71.8109C19.5119 71.7512 19.5097 71.6869 19.5078 71.6232C19.5097 71.5073 19.5119 71.3904 19.5119 71.2706C19.5119 70.2856 19.2402 68.7396 18.9161 67.097H1.57497C1.2509 68.7396 0.979187 70.2856 0.979187 71.2706C0.979187 71.3921 0.981415 71.5108 0.98325 71.6283C0.98135 71.6905 0.979187 71.7522 0.979187 71.8109Z"/>
<path d="M2.2895 63.4905H18.2016C17.9876 62.3334 17.8331 61.3103 17.8331 60.6215L17.8331 57.9149H2.65803L2.65802 60.6215C2.65802 61.3103 2.50344 62.3334 2.2895 63.4905Z"/>
<path d="M2.65801 54.3074H17.833V48.7317H2.65801V54.3074Z"/>
<path d="M0.979187 34.9349C0.979187 35.4616 1.05825 36.1476 1.17983 36.9234H19.3112C19.4328 36.1476 19.5119 35.4616 19.5119 34.9349C19.5119 34.8151 19.5097 34.6982 19.5078 34.5823C19.5098 34.5186 19.5119 34.4543 19.5119 34.3946C19.5119 33.1929 19.4237 32.1911 19.2662 31.3478H1.33543C1.11011 32.1748 0.979187 33.1717 0.979187 34.3946C0.979187 34.4533 0.981415 34.515 0.98325 34.5772C0.98135 34.6947 0.979187 34.8134 0.979187 34.9349Z"/>
<path d="M47.5327 0.837891V22.8379H50.5327V0.837891H47.5327Z"/>
<path d="M47.5327 83.1621V105.162H50.5327V83.1621H47.5327Z"/>
<path d="M39.5119 71.8109C39.5119 73.5545 39.7746 74.8408 40.2039 75.8265C40.2057 75.8308 40.2082 75.8349 40.2101 75.8392C40.7992 77.3041 41.698 78.0599 42.6628 78.5915C44.4811 79.7694 46.5344 80.3865 47.1895 83.122C47.2151 83.2287 47.2385 83.3349 47.2632 83.4417H50.2913C50.3161 83.3348 50.3415 83.2288 50.367 83.122C51.6257 77.8662 58.0446 82.0718 58.0446 71.8109C58.0446 71.7512 58.0425 71.6869 58.0406 71.6232C58.0425 71.5073 58.0446 71.3904 58.0446 71.2706C58.0446 68.818 56.3658 62.901 56.3658 60.6215V45.584C56.3658 43.3045 58.0446 37.3875 58.0446 34.9349C58.0446 34.8151 58.0424 34.6982 58.0406 34.5823C58.0425 34.5186 58.0446 34.4543 58.0446 34.3946C58.0446 24.1337 51.6257 28.3393 50.367 23.0835C50.3415 22.9767 50.3161 22.8707 50.2913 22.7638H47.2632C47.2385 22.8706 47.2151 22.9768 47.1895 23.0835C46.5344 25.819 44.4811 26.4361 42.6628 27.614C41.698 28.1456 40.7992 28.9014 40.2101 30.3663C40.2082 30.3706 40.2058 30.3747 40.2039 30.379C39.7746 31.3647 39.5119 32.651 39.5119 34.3946C39.5119 34.4533 39.5141 34.515 39.516 34.5772C39.5141 34.6947 39.5119 34.8134 39.5119 34.9349C39.5119 37.3875 41.1907 43.3045 41.1907 45.584V60.6215C41.1907 62.901 39.5119 68.818 39.5119 71.2706C39.5119 71.3921 39.5141 71.5108 39.516 71.6283C39.5141 71.6905 39.5119 71.7522 39.5119 71.8109Z"/>
<path d="M39.5119 71.8109C39.5119 72.1131 39.5191 72.3997 39.5344 72.6752H58.0282C58.039 72.3987 58.0446 72.1117 58.0446 71.8109C58.0446 71.7512 58.0425 71.6869 58.0406 71.6232C58.0425 71.5073 58.0446 71.3904 58.0446 71.2706C58.0446 70.2856 57.7729 68.7396 57.4488 67.097H40.1077C39.7836 68.7396 39.5119 70.2856 39.5119 71.2706C39.5119 71.3921 39.5141 71.5108 39.516 71.6283C39.5141 71.6905 39.5119 71.7522 39.5119 71.8109Z"/>
<path d="M40.8222 63.4905H56.7343C56.5204 62.3334 56.3658 61.3103 56.3658 60.6215L56.3658 57.9149H41.1907L41.1907 60.6215C41.1907 61.3103 41.0362 62.3334 40.8222 63.4905Z"/>
<path d="M41.1907 54.3074H56.3657V48.7317H41.1907V54.3074Z"/>
<path d="M39.5119 34.9349C39.5119 35.4616 39.591 36.1476 39.7125 36.9234H57.844C57.9655 36.1476 58.0446 35.4616 58.0446 34.9349C58.0446 34.8151 58.0424 34.6982 58.0406 34.5823C58.0425 34.5186 58.0446 34.4543 58.0446 34.3946C58.0446 33.1929 57.9564 32.1911 57.7989 31.3478H39.8681C39.6428 32.1748 39.5119 33.1717 39.5119 34.3946C39.5119 34.4533 39.5141 34.515 39.516 34.5772C39.5141 34.6947 39.5119 34.8134 39.5119 34.9349Z"/>
</mask>
<path d="M19.5078 71.6232L19.0079 71.615L19.0077 71.6265L19.0081 71.6381L19.5078 71.6232ZM19.5078 34.5823L19.0081 34.5669L19.0077 34.5786L19.0079 34.5902L19.5078 34.5823ZM0.98325 34.5772L1.48318 34.5853L1.48337 34.5739L1.48303 34.5625L0.98325 34.5772ZM0.98325 71.6283L1.48302 71.6435L1.48337 71.632L1.48319 71.6204L0.98325 71.6283ZM58.0406 71.6232L57.5406 71.615L57.5404 71.6265L57.5408 71.6381L58.0406 71.6232ZM58.0406 34.5823L57.5408 34.5669L57.5404 34.5786L57.5406 34.5902L58.0406 34.5823ZM39.516 34.5772L40.0159 34.5853L40.0161 34.5739L40.0157 34.5625L39.516 34.5772ZM39.516 71.6283L40.0157 71.6435L40.0161 71.632L40.0159 71.6204L39.516 71.6283ZM20.0119 71.8109C20.0119 71.7418 20.0094 71.6683 20.0076 71.6083L19.0081 71.6381C19.0101 71.7055 19.0119 71.7605 19.0119 71.8109H20.0119ZM20.0078 71.6314C20.0096 71.5172 20.0119 71.3955 20.0119 71.2706H19.0119C19.0119 71.3854 19.0098 71.4974 19.0079 71.615L20.0078 71.6314ZM20.0119 34.9349C20.0119 34.81 20.0096 34.688 20.0078 34.5744L19.0079 34.5902C19.0098 34.7084 19.0119 34.8201 19.0119 34.9349H20.0119ZM20.0076 34.5977C20.0095 34.5367 20.0119 34.4637 20.0119 34.3946H19.0119C19.0119 34.4449 19.0101 34.5006 19.0081 34.5669L20.0076 34.5977ZM0.479187 34.3946C0.479187 34.4628 0.481785 34.5349 0.483467 34.592L1.48303 34.5625C1.48105 34.4951 1.47919 34.4438 1.47919 34.3946H0.479187ZM0.483315 34.5692C0.481442 34.685 0.479187 34.8084 0.479187 34.9349H1.47919C1.47919 34.8184 1.48126 34.7045 1.48318 34.5853L0.483315 34.5692ZM0.479187 71.2706C0.479187 71.3971 0.481511 71.5208 0.483311 71.6361L1.48319 71.6204C1.48132 71.5007 1.47919 71.3872 1.47919 71.2706H0.479187ZM0.483483 71.613C0.481705 71.6712 0.479187 71.7426 0.479187 71.8109H1.47919C1.47919 71.7618 1.48099 71.7097 1.48302 71.6435L0.483483 71.613ZM58.5446 71.8109C58.5446 71.7418 58.5421 71.6683 58.5403 71.6083L57.5408 71.6381C57.5428 71.7055 57.5446 71.7605 57.5446 71.8109H58.5446ZM58.5405 71.6314C58.5424 71.5172 58.5446 71.3955 58.5446 71.2706H57.5446C57.5446 71.3854 57.5425 71.4974 57.5406 71.615L58.5405 71.6314ZM58.5446 34.9349C58.5446 34.81 58.5423 34.688 58.5405 34.5744L57.5406 34.5902C57.5425 34.7084 57.5446 34.8201 57.5446 34.9349H58.5446ZM58.5403 34.5977C58.5422 34.5367 58.5446 34.4637 58.5446 34.3946H57.5446C57.5446 34.4449 57.5428 34.5006 57.5408 34.5669L58.5403 34.5977ZM39.0119 34.3946C39.0119 34.4628 39.0145 34.5349 39.0162 34.592L40.0157 34.5625C40.0138 34.4951 40.0119 34.4438 40.0119 34.3946H39.0119ZM39.016 34.5692C39.0142 34.685 39.0119 34.8084 39.0119 34.9349H40.0119C40.0119 34.8184 40.014 34.7045 40.0159 34.5853L39.016 34.5692ZM39.0119 71.2706C39.0119 71.3971 39.0142 71.5208 39.016 71.6361L40.0159 71.6204C40.014 71.5007 40.0119 71.3872 40.0119 71.2706H39.0119ZM39.0162 71.613C39.0144 71.6712 39.0119 71.7426 39.0119 71.8109H40.0119C40.0119 71.7618 40.0137 71.7097 40.0157 71.6435L39.0162 71.613ZM9 0.837891V-0.162109H8V0.837891H9ZM9 22.8379H8V23.8379H9V22.8379ZM12 22.8379V23.8379H13V22.8379H12ZM12 0.837891H13V-0.162109H12V0.837891ZM9 83.1621V82.1621H8V83.1621H9ZM9 105.162H8V106.162H9V105.162ZM12 105.162V106.162H13V105.162H12ZM12 83.1621H13V82.1621H12V83.1621ZM1.67119 75.8265L2.59 75.4317L2.588 75.4271L1.67119 75.8265ZM1.67735 75.8392L2.60515 75.4661L2.59821 75.4488L2.59064 75.4318L1.67735 75.8392ZM4.13008 78.5915L4.67379 77.7522L4.64388 77.7328L4.61267 77.7156L4.13008 78.5915ZM8.6568 83.122L7.6843 83.3549L7.6843 83.3549L8.6568 83.122ZM8.73051 83.4417L7.75638 83.6676L7.93594 84.4417H8.73051V83.4417ZM11.7586 83.4417V84.4417H12.5529L12.7326 83.6679L11.7586 83.4417ZM11.8343 83.122L12.8068 83.3549L12.8068 83.3549L11.8343 83.122ZM17.8331 60.6215L18.8331 60.6215L18.8331 60.6215L17.8331 60.6215ZM11.8343 23.0835L12.8068 22.8506L12.8068 22.8505L11.8343 23.0835ZM11.7586 22.7638L12.7326 22.5376L12.5529 21.7638H11.7586V22.7638ZM8.73051 22.7638V21.7638H7.93594L7.75638 22.5379L8.73051 22.7638ZM8.6568 23.0835L7.6843 22.8506L7.6843 22.8506L8.6568 23.0835ZM4.13008 27.614L4.61267 28.4899L4.64388 28.4727L4.67379 28.4533L4.13008 27.614ZM1.67735 30.3663L2.59212 30.7703L2.59889 30.755L2.60515 30.7394L1.67735 30.3663ZM1.67119 30.379L0.757818 29.9718L0.754389 29.9797L1.67119 30.379ZM1.00171 72.6752L0.00324214 72.7306L0.0556279 73.6752H1.00171V72.6752ZM19.4955 72.6752V73.6752H20.4574L20.4948 72.7141L19.4955 72.6752ZM18.9161 67.097L19.8972 66.9035L19.7381 66.097H18.9161V67.097ZM1.57497 67.097V66.097H0.75299L0.593882 66.9035L1.57497 67.097ZM2.2895 63.4905L1.30617 63.3087L1.08766 64.4905H2.2895V63.4905ZM18.2016 63.4905V64.4905H19.4034L19.1849 63.3087L18.2016 63.4905ZM17.8331 57.9149L18.8331 57.9149L18.8331 56.9149H17.8331V57.9149ZM2.65803 57.9149V56.9149H1.65803L1.65803 57.9149L2.65803 57.9149ZM2.65801 54.3074H1.65801V55.3074H2.65801V54.3074ZM17.833 54.3074V55.3074H18.833V54.3074H17.833ZM17.833 48.7317H18.833V47.7317H17.833V48.7317ZM2.65801 48.7317V47.7317H1.65801V48.7317H2.65801ZM1.17983 36.9234L0.191885 37.0782L0.324332 37.9234H1.17983V36.9234ZM19.3112 36.9234V37.9234H20.1667L20.2992 37.0782L19.3112 36.9234ZM19.2662 31.3478L20.2492 31.1642L20.0967 30.3478H19.2662V31.3478ZM1.33543 31.3478V30.3478H0.571408L0.37059 31.0849L1.33543 31.3478ZM47.5327 0.837891V-0.162109H46.5327V0.837891H47.5327ZM47.5327 22.8379H46.5327V23.8379H47.5327V22.8379ZM50.5327 22.8379V23.8379H51.5327V22.8379H50.5327ZM50.5327 0.837891H51.5327V-0.162109H50.5327V0.837891ZM47.5327 83.1621V82.1621H46.5327V83.1621H47.5327ZM47.5327 105.162H46.5327V106.162H47.5327V105.162ZM50.5327 105.162V106.162H51.5327V105.162H50.5327ZM50.5327 83.1621H51.5327V82.1621H50.5327V83.1621ZM40.2039 75.8265L41.1227 75.4317L41.1207 75.4271L40.2039 75.8265ZM40.2101 75.8392L41.1379 75.4661L41.1309 75.4488L41.1234 75.4318L40.2101 75.8392ZM42.6628 78.5915L43.2065 77.7522L43.1766 77.7328L43.1454 77.7156L42.6628 78.5915ZM47.1895 83.122L46.217 83.3549L46.217 83.3549L47.1895 83.122ZM47.2632 83.4417L46.2891 83.6676L46.4687 84.4417H47.2632V83.4417ZM50.2913 83.4417V84.4417H51.0856L51.2653 83.6679L50.2913 83.4417ZM50.367 83.122L51.3395 83.3549L51.3395 83.3549L50.367 83.122ZM56.3658 60.6215L57.3658 60.6215L57.3658 60.6215L56.3658 60.6215ZM50.367 23.0835L51.3395 22.8506L51.3395 22.8505L50.367 23.0835ZM50.2913 22.7638L51.2653 22.5376L51.0856 21.7638H50.2913V22.7638ZM47.2632 22.7638V21.7638H46.4687L46.2891 22.5379L47.2632 22.7638ZM47.1895 23.0835L46.217 22.8506L46.217 22.8506L47.1895 23.0835ZM42.6628 27.614L43.1454 28.4899L43.1766 28.4727L43.2065 28.4533L42.6628 27.614ZM40.2101 30.3663L41.1248 30.7703L41.1316 30.755L41.1379 30.7394L40.2101 30.3663ZM40.2039 30.379L39.2905 29.9718L39.2871 29.9797L40.2039 30.379ZM39.5344 72.6752L38.536 72.7306L38.5883 73.6752H39.5344V72.6752ZM58.0282 72.6752V73.6752H58.9901L59.0275 72.7141L58.0282 72.6752ZM57.4488 67.097L58.4299 66.9035L58.2708 66.097H57.4488V67.097ZM40.1077 67.097V66.097H39.2857L39.1266 66.9035L40.1077 67.097ZM40.8222 63.4905L39.8389 63.3087L39.6204 64.4905H40.8222V63.4905ZM56.7343 63.4905V64.4905H57.9361L57.7176 63.3087L56.7343 63.4905ZM56.3658 57.9149L57.3658 57.9149L57.3658 56.9149H56.3658V57.9149ZM41.1907 57.9149V56.9149H40.1907L40.1907 57.9149L41.1907 57.9149ZM41.1907 54.3074H40.1907V55.3074H41.1907V54.3074ZM56.3657 54.3074V55.3074H57.3657V54.3074H56.3657ZM56.3657 48.7317H57.3657V47.7317H56.3657V48.7317ZM41.1907 48.7317V47.7317H40.1907V48.7317H41.1907ZM39.7125 36.9234L38.7246 37.0782L38.857 37.9234H39.7125V36.9234ZM57.844 36.9234V37.9234H58.6995L58.8319 37.0782L57.844 36.9234ZM57.7989 31.3478L58.7819 31.1642L58.6294 30.3478H57.7989V31.3478ZM39.8681 31.3478V30.3478H39.1041L38.9033 31.0849L39.8681 31.3478ZM8 0.837891V22.8379H10V0.837891H8ZM9 23.8379H12V21.8379H9V23.8379ZM13 22.8379V0.837891H11V22.8379H13ZM12 -0.162109H9V1.83789H12V-0.162109ZM8 83.1621V105.162H10V83.1621H8ZM9 106.162H12V104.162H9V106.162ZM13 105.162V83.1621H11V105.162H13ZM12 82.1621H9V84.1621H12V82.1621ZM-0.020813 71.8109C-0.020813 73.6524 0.25634 75.0824 0.75439 76.2258L2.588 75.4271C2.22739 74.5993 1.97919 73.4566 1.97919 71.8109H-0.020813ZM0.752403 76.2212C0.761013 76.2413 0.768717 76.2575 0.773799 76.2679C0.778633 76.2778 0.782801 76.286 0.783379 76.2871C0.784152 76.2886 0.783616 76.2876 0.783292 76.2869C0.782771 76.2859 0.781537 76.2834 0.779941 76.2802C0.776866 76.274 0.770996 76.262 0.764067 76.2465L2.59064 75.4318C2.58276 75.4142 2.57587 75.4001 2.57175 75.3917C2.56963 75.3875 2.56787 75.384 2.56681 75.3819C2.56627 75.3808 2.56582 75.3799 2.56556 75.3794C2.56542 75.3792 2.5653 75.3789 2.56523 75.3788C2.56515 75.3786 2.56513 75.3786 2.56512 75.3786C2.56501 75.3784 2.56573 75.3798 2.56671 75.3817C2.56774 75.3838 2.56944 75.3872 2.57153 75.3914C2.57558 75.3998 2.58229 75.4138 2.58999 75.4317L0.752403 76.2212ZM0.749557 76.2123C1.44356 77.9381 2.53019 78.8517 3.64749 79.4673L4.61267 77.7156C3.80047 77.2681 3.08931 76.6701 2.60515 75.4661L0.749557 76.2123ZM3.58637 79.4308C5.66253 80.7758 7.14982 81.1231 7.6843 83.3549L9.6293 82.8891C8.85357 79.6499 6.23417 78.7631 4.67379 77.7522L3.58637 79.4308ZM7.6843 83.3549C7.70936 83.4596 7.72766 83.5439 7.75638 83.6676L9.70464 83.2157C9.68381 83.1259 9.65533 82.9978 9.6293 82.8891L7.6843 83.3549ZM8.73051 84.4417H11.7586V82.4417H8.73051V84.4417ZM12.7326 83.6679C12.7566 83.5649 12.7812 83.462 12.8068 83.3549L10.8618 82.8891C10.8363 82.9955 10.8102 83.1047 10.7845 83.2154L12.7326 83.6679ZM12.8068 83.3549C13.0577 82.3074 13.5305 81.7946 14.1091 81.4193C14.4257 81.2139 14.7872 81.0425 15.216 80.8558C15.6235 80.6783 16.1214 80.4752 16.5952 80.2363C17.5881 79.7359 18.6156 79.0145 19.3657 77.6496C20.0987 76.3158 20.5119 74.4672 20.5119 71.8109H18.5119C18.5119 74.285 18.1228 75.7586 17.6129 76.6864C17.1201 77.583 16.4642 78.0627 15.695 78.4504C15.2878 78.6556 14.885 78.8185 14.4174 79.0221C13.971 79.2165 13.4829 79.4416 13.0207 79.7413C12.0418 80.3763 11.2403 81.3087 10.8618 82.8891L12.8068 83.3549ZM20.5119 71.2706C20.5119 69.9179 20.0619 67.7019 19.6526 65.6825C19.2207 63.5518 18.8331 61.6333 18.8331 60.6215H16.8331C16.8331 61.8892 17.2848 64.0689 17.6924 66.0798C18.1225 68.2019 18.5119 70.1706 18.5119 71.2706H20.5119ZM18.8331 60.6215V45.584H16.8331V60.6215H18.8331ZM18.8331 45.584C18.8331 44.5722 19.2207 42.6537 19.6526 40.523C20.0619 38.5036 20.5119 36.2876 20.5119 34.9349H18.5119C18.5119 36.0349 18.1225 38.0036 17.6924 40.1257C17.2848 42.1366 16.8331 44.3163 16.8331 45.584H18.8331ZM20.5119 34.3946C20.5119 31.7383 20.0987 29.8897 19.3657 28.5559C18.6156 27.191 17.5881 26.4696 16.5952 25.9691C16.1214 25.7303 15.6235 25.5272 15.216 25.3497C14.7872 25.163 14.4257 24.9916 14.1091 24.7862C13.5305 24.4109 13.0577 23.8981 12.8068 22.8506L10.8618 23.3164C11.2403 24.8968 12.0418 25.8292 13.0207 26.4642C13.4829 26.7639 13.971 26.9889 14.4174 27.1834C14.885 27.387 15.2878 27.5499 15.695 27.7551C16.4642 28.1428 17.1201 28.6224 17.6129 29.5191C18.1228 30.4469 18.5119 31.9205 18.5119 34.3946H20.5119ZM12.8068 22.8505C12.7812 22.7435 12.7566 22.6406 12.7326 22.5376L10.7845 22.9901C10.8102 23.1008 10.8363 23.21 10.8618 23.3164L12.8068 22.8505ZM11.7586 21.7638H8.73051V23.7638H11.7586V21.7638ZM7.75638 22.5379C7.72765 22.6617 7.70937 22.7459 7.6843 22.8506L9.6293 23.3164C9.65533 23.2077 9.68382 23.0796 9.70464 22.9898L7.75638 22.5379ZM7.6843 22.8506C7.14981 25.0824 5.66254 25.4297 3.58637 26.7747L4.67379 28.4533C6.23416 27.4424 8.85357 26.5556 9.6293 23.3164L7.6843 22.8506ZM3.64749 26.7382C2.53019 27.3538 1.44356 28.2674 0.749558 29.9932L2.60515 30.7394C3.08931 29.5354 3.80047 28.9374 4.61267 28.4899L3.64749 26.7382ZM0.762584 29.9623C0.76902 29.9478 0.774517 29.9363 0.777735 29.9298C0.779385 29.9264 0.7807 29.9238 0.781426 29.9223C0.782087 29.921 0.782586 29.92 0.782289 29.9206C0.782239 29.9207 0.781278 29.9226 0.780268 29.9246C0.77916 29.9268 0.777445 29.9302 0.775407 29.9344C0.771422 29.9425 0.765092 29.9556 0.757851 29.9718L2.58454 30.7862C2.57825 30.8003 2.57292 30.8113 2.56997 30.8173C2.56845 30.8204 2.56727 30.8227 2.56669 30.8239C2.5662 30.8249 2.56578 30.8257 2.56626 30.8247C2.56649 30.8243 2.56752 30.8223 2.56871 30.8199C2.56997 30.8174 2.57181 30.8137 2.57398 30.8093C2.57823 30.8006 2.58474 30.787 2.59212 30.7703L0.762584 29.9623ZM0.754389 29.9797C0.25634 31.1231 -0.020813 32.5531 -0.020813 34.3946H1.97919C1.97919 32.7489 2.22739 31.6062 2.588 30.7783L0.754389 29.9797ZM-0.020813 34.9349C-0.020813 36.2876 0.429232 38.5036 0.838533 40.523C1.27038 42.6537 1.65802 44.5722 1.65802 45.584H3.65802C3.65802 44.3163 3.20624 42.1366 2.79868 40.1257C2.36856 38.0036 1.97919 36.0349 1.97919 34.9349H-0.020813ZM1.65802 45.584V60.6215H3.65802V45.584H1.65802ZM1.65802 60.6215C1.65802 61.6333 1.27038 63.5518 0.838533 65.6825C0.429232 67.7019 -0.020813 69.9179 -0.020813 71.2706H1.97919C1.97919 70.1706 2.36856 68.2019 2.79868 66.0798C3.20624 64.0689 3.65802 61.8892 3.65802 60.6215H1.65802ZM-0.020813 71.8109C-0.020813 72.129 -0.0131919 72.4343 0.00324214 72.7306L2.00017 72.6199C1.98605 72.3652 1.97919 72.0971 1.97919 71.8109H-0.020813ZM1.00171 73.6752H19.4955V71.6752H1.00171V73.6752ZM20.4948 72.7141C20.506 72.4242 20.5119 72.1243 20.5119 71.8109H18.5119C18.5119 72.0991 18.5065 72.3731 18.4963 72.6364L20.4948 72.7141ZM20.5119 71.2706C20.5119 70.1688 20.2163 68.521 19.8972 66.9035L17.935 67.2906C18.264 68.9582 18.5119 70.4024 18.5119 71.2706H20.5119ZM18.9161 66.097H1.57497V68.097H18.9161V66.097ZM0.593882 66.9035C0.274751 68.521 -0.020813 70.1688 -0.020813 71.2706H1.97919C1.97919 70.4024 2.22705 68.9581 2.55606 67.2906L0.593882 66.9035ZM2.2895 64.4905H18.2016V62.4905H2.2895V64.4905ZM19.1849 63.3087C18.9694 62.1433 18.8331 61.2058 18.8331 60.6215H16.8331C16.8331 61.4148 17.0058 62.5236 17.2182 63.6723L19.1849 63.3087ZM18.8331 60.6215L18.8331 57.9149L16.8331 57.9149L16.8331 60.6215L18.8331 60.6215ZM17.8331 56.9149H2.65803V58.9149H17.8331V56.9149ZM1.65803 57.9149L1.65802 60.6215L3.65802 60.6215L3.65803 57.9149L1.65803 57.9149ZM1.65802 60.6215C1.65802 61.2058 1.52165 62.1433 1.30617 63.3087L3.27284 63.6723C3.48523 62.5236 3.65802 61.4148 3.65802 60.6215H1.65802ZM2.65801 55.3074H17.833V53.3074H2.65801V55.3074ZM18.833 54.3074V48.7317H16.833V54.3074H18.833ZM17.833 47.7317H2.65801V49.7317H17.833V47.7317ZM1.65801 48.7317V54.3074H3.65801V48.7317H1.65801ZM-0.020813 34.9349C-0.020813 35.5428 0.0686947 36.2921 0.191885 37.0782L2.16777 36.7686C2.0478 36.003 1.97919 35.3803 1.97919 34.9349H-0.020813ZM1.17983 37.9234H19.3112V35.9234H1.17983V37.9234ZM20.2992 37.0782C20.4224 36.2921 20.5119 35.5428 20.5119 34.9349H18.5119C18.5119 35.3803 18.4433 36.003 18.3233 36.7686L20.2992 37.0782ZM20.5119 34.3946C20.5119 33.1454 20.4203 32.0805 20.2492 31.1642L18.2832 31.5313C18.4271 32.3016 18.5119 33.2403 18.5119 34.3946H20.5119ZM19.2662 30.3478H1.33543V32.3478H19.2662V30.3478ZM0.37059 31.0849C0.117536 32.0138 -0.020813 33.1014 -0.020813 34.3946H1.97919C1.97919 33.242 2.10269 32.3359 2.30027 31.6106L0.37059 31.0849ZM46.5327 0.837891V22.8379H48.5327V0.837891H46.5327ZM47.5327 23.8379H50.5327V21.8379H47.5327V23.8379ZM51.5327 22.8379V0.837891H49.5327V22.8379H51.5327ZM50.5327 -0.162109H47.5327V1.83789H50.5327V-0.162109ZM46.5327 83.1621V105.162H48.5327V83.1621H46.5327ZM47.5327 106.162H50.5327V104.162H47.5327V106.162ZM51.5327 105.162V83.1621H49.5327V105.162H51.5327ZM50.5327 82.1621H47.5327V84.1621H50.5327V82.1621ZM38.5119 71.8109C38.5119 73.6524 38.7891 75.0824 39.2871 76.2258L41.1207 75.4271C40.7601 74.5993 40.5119 73.4566 40.5119 71.8109H38.5119ZM39.2851 76.2212C39.2937 76.2412 39.3014 76.2574 39.3065 76.2678C39.3113 76.2777 39.3155 76.2859 39.316 76.287C39.3168 76.2885 39.3163 76.2875 39.316 76.2868C39.3154 76.2858 39.3142 76.2834 39.3126 76.2802C39.3096 76.274 39.3037 76.262 39.2968 76.2465L41.1234 75.4318C41.1155 75.4142 41.1086 75.4001 41.1045 75.3918C41.1024 75.3876 41.1006 75.3841 41.0996 75.382C41.099 75.3809 41.0986 75.38 41.0983 75.3795C41.0982 75.3793 41.0981 75.379 41.098 75.3789C41.0979 75.3787 41.0979 75.3787 41.0979 75.3787C41.0978 75.3785 41.0985 75.3799 41.0995 75.3818C41.1005 75.3839 41.1022 75.3872 41.1043 75.3915C41.1083 75.3998 41.115 75.4139 41.1227 75.4317L39.2851 76.2212ZM39.2823 76.2123C39.9763 77.9381 41.0629 78.8517 42.1802 79.4673L43.1454 77.7156C42.3332 77.2681 41.622 76.6701 41.1379 75.4661L39.2823 76.2123ZM42.1191 79.4308C44.1952 80.7758 45.6825 81.1231 46.217 83.3549L48.162 82.8891C47.3863 79.6499 44.7669 78.7631 43.2065 77.7522L42.1191 79.4308ZM46.217 83.3549C46.2421 83.4595 46.2604 83.5439 46.2891 83.6676L48.2374 83.2157C48.2165 83.1258 48.188 82.9978 48.162 82.8891L46.217 83.3549ZM47.2632 84.4417H50.2913V82.4417H47.2632V84.4417ZM51.2653 83.6679C51.2893 83.5649 51.3139 83.462 51.3395 83.3549L49.3945 82.8891C49.369 82.9955 49.3429 83.1047 49.3172 83.2154L51.2653 83.6679ZM51.3395 83.3549C51.5904 82.3074 52.0632 81.7946 52.6418 81.4193C52.9585 81.2139 53.32 81.0425 53.7487 80.8558C54.1563 80.6783 54.6541 80.4752 55.1279 80.2363C56.1208 79.7359 57.1483 79.0145 57.8984 77.6496C58.6314 76.3158 59.0446 74.4672 59.0446 71.8109H57.0446C57.0446 74.285 56.6555 75.7586 56.1456 76.6864C55.6528 77.583 54.9969 78.0627 54.2277 78.4504C53.8206 78.6556 53.4177 78.8185 52.9501 79.0221C52.5037 79.2165 52.0156 79.4416 51.5535 79.7413C50.5745 80.3763 49.773 81.3087 49.3945 82.8891L51.3395 83.3549ZM59.0446 71.2706C59.0446 69.9179 58.5946 67.7019 58.1853 65.6825C57.7534 63.5518 57.3658 61.6333 57.3658 60.6215H55.3658C55.3658 61.8892 55.8176 64.0689 56.2251 66.0798C56.6552 68.2019 57.0446 70.1706 57.0446 71.2706H59.0446ZM57.3658 60.6215V45.584H55.3658V60.6215H57.3658ZM57.3658 45.584C57.3658 44.5722 57.7534 42.6537 58.1853 40.523C58.5946 38.5036 59.0446 36.2876 59.0446 34.9349H57.0446C57.0446 36.0349 56.6552 38.0036 56.2251 40.1257C55.8176 42.1366 55.3658 44.3163 55.3658 45.584H57.3658ZM59.0446 34.3946C59.0446 31.7383 58.6314 29.8897 57.8984 28.5559C57.1483 27.191 56.1208 26.4696 55.1279 25.9691C54.6541 25.7303 54.1563 25.5272 53.7487 25.3497C53.32 25.163 52.9585 24.9916 52.6418 24.7862C52.0632 24.4109 51.5904 23.8981 51.3395 22.8506L49.3945 23.3164C49.773 24.8968 50.5745 25.8292 51.5535 26.4642C52.0156 26.7639 52.5037 26.9889 52.9501 27.1834C53.4177 27.387 53.8206 27.5499 54.2277 27.7551C54.9969 28.1428 55.6528 28.6224 56.1456 29.5191C56.6555 30.4469 57.0446 31.9205 57.0446 34.3946H59.0446ZM51.3395 22.8505C51.3139 22.7435 51.2893 22.6406 51.2653 22.5376L49.3172 22.9901C49.3429 23.1008 49.369 23.21 49.3945 23.3164L51.3395 22.8505ZM50.2913 21.7638H47.2632V23.7638H50.2913V21.7638ZM46.2891 22.5379C46.2604 22.6616 46.2421 22.7459 46.217 22.8506L48.162 23.3164C48.188 23.2077 48.2165 23.0796 48.2374 22.9898L46.2891 22.5379ZM46.217 22.8506C45.6825 25.0824 44.1953 25.4297 42.1191 26.7747L43.2065 28.4533C44.7669 27.4424 47.3863 26.5556 48.162 23.3164L46.217 22.8506ZM42.1802 26.7382C41.0629 27.3538 39.9763 28.2674 39.2823 29.9932L41.1379 30.7394C41.622 29.5354 42.3332 28.9374 43.1454 28.4899L42.1802 26.7382ZM39.2953 29.9623C39.3017 29.9478 39.3072 29.9364 39.3104 29.9299C39.3121 29.9265 39.3134 29.9239 39.3141 29.9224C39.3148 29.9211 39.3153 29.9201 39.315 29.9207C39.3149 29.9208 39.3139 29.9227 39.3129 29.9247C39.3118 29.9269 39.3101 29.9303 39.3081 29.9345C39.3041 29.9425 39.2978 29.9556 39.2906 29.9718L41.1173 30.7862C41.111 30.8003 41.1057 30.8112 41.1027 30.8172C41.1012 30.8203 41.1 30.8227 41.0994 30.8238C41.099 30.8248 41.0985 30.8256 41.099 30.8246C41.0993 30.8242 41.1003 30.8222 41.1015 30.8198C41.1027 30.8173 41.1046 30.8136 41.1067 30.8092C41.111 30.8005 41.1175 30.787 41.1248 30.7703L39.2953 29.9623ZM39.2871 29.9797C38.7891 31.1231 38.5119 32.5531 38.5119 34.3946H40.5119C40.5119 32.7489 40.7601 31.6062 41.1207 30.7783L39.2871 29.9797ZM38.5119 34.9349C38.5119 36.2876 38.9619 38.5036 39.3712 40.523C39.8031 42.6537 40.1907 44.5722 40.1907 45.584H42.1907C42.1907 44.3163 41.739 42.1366 41.3314 40.1257C40.9013 38.0036 40.5119 36.0349 40.5119 34.9349H38.5119ZM40.1907 45.584V60.6215H42.1907V45.584H40.1907ZM40.1907 60.6215C40.1907 61.6333 39.8031 63.5518 39.3712 65.6825C38.9619 67.7019 38.5119 69.9179 38.5119 71.2706H40.5119C40.5119 70.1706 40.9013 68.2019 41.3314 66.0798C41.739 64.0689 42.1907 61.8892 42.1907 60.6215H40.1907ZM38.5119 71.8109C38.5119 72.129 38.5195 72.4343 38.536 72.7306L40.5329 72.6199C40.5188 72.3652 40.5119 72.0971 40.5119 71.8109H38.5119ZM39.5344 73.6752H58.0282V71.6752H39.5344V73.6752ZM59.0275 72.7141C59.0387 72.4242 59.0446 72.1243 59.0446 71.8109H57.0446C57.0446 72.0991 57.0392 72.3731 57.029 72.6364L59.0275 72.7141ZM59.0446 71.2706C59.0446 70.1688 58.749 68.521 58.4299 66.9035L56.4677 67.2906C56.7967 68.9582 57.0446 70.4024 57.0446 71.2706H59.0446ZM57.4488 66.097H40.1077V68.097H57.4488V66.097ZM39.1266 66.9035C38.8075 68.521 38.5119 70.1688 38.5119 71.2706H40.5119C40.5119 70.4024 40.7598 68.9581 41.0888 67.2906L39.1266 66.9035ZM40.8222 64.4905H56.7343V62.4905H40.8222V64.4905ZM57.7176 63.3087C57.5021 62.1433 57.3658 61.2058 57.3658 60.6215H55.3658C55.3658 61.4148 55.5386 62.5236 55.751 63.6723L57.7176 63.3087ZM57.3658 60.6215L57.3658 57.9149L55.3658 57.9149L55.3658 60.6215L57.3658 60.6215ZM56.3658 56.9149H41.1907V58.9149H56.3658V56.9149ZM40.1907 57.9149L40.1907 60.6215L42.1907 60.6215L42.1907 57.9149L40.1907 57.9149ZM40.1907 60.6215C40.1907 61.2058 40.0544 62.1433 39.8389 63.3087L41.8055 63.6723C42.0179 62.5236 42.1907 61.4148 42.1907 60.6215H40.1907ZM41.1907 55.3074H56.3657V53.3074H41.1907V55.3074ZM57.3657 54.3074V48.7317H55.3657V54.3074H57.3657ZM56.3657 47.7317H41.1907V49.7317H56.3657V47.7317ZM40.1907 48.7317V54.3074H42.1907V48.7317H40.1907ZM38.5119 34.9349C38.5119 35.5428 38.6014 36.2921 38.7246 37.0782L40.7005 36.7686C40.5805 36.003 40.5119 35.3803 40.5119 34.9349H38.5119ZM39.7125 37.9234H57.844V35.9234H39.7125V37.9234ZM58.8319 37.0782C58.9551 36.2921 59.0446 35.5428 59.0446 34.9349H57.0446C57.0446 35.3803 56.976 36.003 56.856 36.7686L58.8319 37.0782ZM59.0446 34.3946C59.0446 33.1454 58.9531 32.0805 58.7819 31.1642L56.8159 31.5313C56.9598 32.3016 57.0446 33.2403 57.0446 34.3946H59.0446ZM57.7989 30.3478H39.8681V32.3478H57.7989V30.3478ZM38.9033 31.0849C38.6502 32.0138 38.5119 33.1014 38.5119 34.3946H40.5119C40.5119 33.242 40.6354 32.3359 40.833 31.6106L38.9033 31.0849Z" fill="white" mask="url(#path-1-inside-1_149_9)"/>
</svg>
