<svg width="50" height="49" viewBox="0 0 50 49" fill="none" xmlns="http://www.w3.org/2000/svg">
<path d="M37.142 0.728147L37.3834 0.290266L37.1421 0.728156L48.4266 6.94791C48.8537 7.18332 49.1695 7.57929 49.3041 8.04826C49.4384 8.5171 49.3804 9.02013 49.1431 9.44611C49.1431 9.44613 49.143 9.44616 49.143 9.44618L45.3897 16.1787L45.7158 16.3605L45.3897 16.1787C42.9076 20.6311 38.9574 23.7572 34.473 25.2929L33.4047 25.6588L34.3937 26.2038L48.2015 33.8143C48.2016 33.8143 48.2016 33.8143 48.2017 33.8144C48.6288 34.05 48.9445 34.446 49.0791 34.9149C49.2135 35.3836 49.1555 35.8868 48.9181 36.3126L42.6628 47.5336L43.082 47.7673L42.6628 47.5337C42.1715 48.4151 41.0603 48.7337 40.1764 48.2466L24.3782 39.539C24.3782 39.539 24.3782 39.539 24.3782 39.539C22.7642 38.6493 20.7362 39.2338 19.8485 40.8263L20.2852 41.0698L19.8485 40.8264L16.0953 47.5591C15.604 48.4403 14.4928 48.7589 13.6091 48.2718L13.3745 48.6975L13.6091 48.2718L2.32418 42.052C1.89687 41.8164 1.58118 41.4205 1.44676 40.9516L1.44675 40.9516C1.31233 40.4828 1.37024 39.9798 1.60774 39.5537L5.36087 32.821C7.84294 28.3687 11.7932 25.2426 16.2776 23.7069L17.3459 23.341L16.357 22.796L2.54899 15.1853C2.54899 15.1853 2.54898 15.1853 2.54898 15.1853C2.12181 14.9498 1.80609 14.5539 1.67166 14.0851L1.67165 14.085C1.5372 13.6162 1.59513 13.1131 1.83263 12.6871L1.83264 12.6871L8.08786 1.46613L7.66436 1.23005L8.08786 1.46613C8.57918 0.584753 9.69038 0.266126 10.5741 0.753215L26.373 9.46122L26.6143 9.02333L26.373 9.46122C27.9871 10.3509 30.0149 9.7664 30.9028 8.17372L30.9029 8.1737L34.656 1.44107C35.1473 0.559676 36.2584 0.241082 37.142 0.728147ZM37.4059 5.0602L36.9701 4.82L36.7278 5.25464L34.1054 9.95898C34.1054 9.95899 34.1054 9.959 34.1054 9.95901C32.2296 13.3236 27.9754 14.5311 24.6031 12.6723L10.8379 5.08526L10.4021 4.84506L10.1598 5.27969L6.17681 12.4246L5.93218 12.8634L6.37218 13.1059L20.1175 20.6821C27.9638 25.0067 37.8446 22.1835 42.1871 14.3934L44.7988 9.70865L45.0434 9.26981L44.6034 9.02729L37.4059 5.0602ZM8.56347 34.6062L9.0002 34.8497L8.56347 34.6062L5.95191 39.291L5.70728 39.7299L6.14727 39.9724L13.3453 43.9399L13.7811 44.1801L14.0234 43.7455L16.6459 39.0411C18.5215 35.6765 22.7758 34.4691 26.148 36.3278L39.9129 43.9145L40.3486 44.1547L40.5909 43.7201L44.5739 36.5753L44.8185 36.1364L44.3785 35.8939L30.6333 28.3177L30.3919 28.7556L30.6333 28.3177C22.7869 23.993 12.9061 26.8162 8.56347 34.6062Z" stroke="white"/>
</svg>
