<svg width="60" height="68" viewBox="0 0 60 68" fill="none" xmlns="http://www.w3.org/2000/svg">
<path d="M30.2107 62.0176V62.6844L30.8508 62.4975L50.8147 56.6699L51.1433 56.574L51.1727 56.2329L55.5054 6.02533L55.5521 5.48416L55.009 5.48234L30.7124 5.40094L30.2107 5.39926V5.90094V12.5737H11.5976H11.0238L11.1023 13.142L12.1148 20.4771L12.1744 20.9087H12.6101H27.928L12.6954 27.4892L12.3447 27.6407L12.3987 28.0189L13.4107 35.1097L13.472 35.5391H13.9057H30.2107V46.099L29.9968 46.1411L22.5457 44.2184L21.9753 38.9383L21.9271 38.492H21.4782H14.2297H13.6865L13.7314 39.0334L14.703 50.7298L14.7318 51.076L15.0663 51.1698L30.2107 55.4166V62.0176ZM12.1713 13.5737H30.2107V19.9087H13.0458L12.1713 13.5737ZM30.2107 21.0119V34.5391H14.3394L13.4426 28.2557L30.2107 21.0119ZM31.2107 34.5391V13.5737H48.4736L48.4731 19.9129L31.6109 26.9568L31.8036 27.9181H47.0133L45.1829 49.9065L31.2107 54.3768V46.9215L38.7846 45.4323L39.1509 45.3603L39.1859 44.9885L40.1175 35.0859L40.169 34.5391H39.6197H31.2107ZM31.2107 45.9024V35.5391H39.0705L38.2253 44.5231L31.2107 45.9024ZM30.0782 47.1442L30.2107 47.1182V54.378L15.6708 50.3008L14.773 39.492H21.0293L21.5887 44.6698L21.6258 45.0138L21.9608 45.1002L29.8568 47.1377L29.9668 47.1661L30.0782 47.1442ZM31.2107 61.3507V55.4268L45.8058 50.7571L46.124 50.6553L46.1517 50.3224L48.0549 27.4596L48.1 26.9181H47.5566H34.2978L49.1658 20.7073L49.4731 20.5789L49.4731 20.2459L49.4736 13.0737L49.4736 12.5737H48.9736H31.2107V6.40261L54.4624 6.48052L50.2059 55.8059L31.2107 61.3507ZM30.7087 67.3657L6.39855 60.4898L1.53043 0.615137L59.4432 0.734994L54.2954 60.4923L30.7087 67.3657Z" stroke="white"/>
</svg>
