<svg width="66" height="51" viewBox="0 0 66 51" fill="none" xmlns="http://www.w3.org/2000/svg">
<path d="M55.8626 4.27085C51.5917 2.29168 47.0431 0.833337 42.2514 0C41.6611 1.04167 40.9667 2.46529 40.5153 3.61113C35.4458 2.84723 30.4111 2.84723 25.4458 3.61113C24.9597 2.46529 24.2652 1.04167 23.675 0C18.8833 0.833337 14.3346 2.29168 10.0638 4.27085C1.45264 17.257 -0.873758 29.9308 0.27208 42.3961C6.00127 46.667 11.5221 49.2364 16.9735 50.9378C18.3277 49.0975 19.5083 47.1184 20.5499 45.0697C18.5708 44.3406 16.6958 43.4031 14.9249 42.3267C15.411 41.9795 15.8624 41.5975 16.3138 41.2503C27.1819 46.3198 38.9528 46.3198 49.682 41.2503C50.1334 41.6322 50.5848 41.9795 51.0709 42.3267C49.3 43.4031 47.3903 44.3058 45.4459 45.0697C46.4875 47.1184 47.6681 49.0975 49.0223 50.9378C54.4737 49.2364 60.0292 46.667 65.7237 42.3961C67.0779 27.9169 63.3973 15.382 55.932 4.27085H55.8626ZM22.0083 34.7572C18.7444 34.7572 16.0708 31.7364 16.0708 28.0211C16.0708 24.3058 18.6749 21.2849 22.0083 21.2849C25.3416 21.2849 27.9805 24.3058 27.9458 28.0211C27.9458 31.7016 25.3416 34.7572 22.0083 34.7572ZM43.9181 34.7572C40.6542 34.7572 37.9805 31.7364 37.9805 28.0211C37.9805 24.3058 40.5847 21.2849 43.9181 21.2849C47.2514 21.2849 49.8903 24.3058 49.8556 28.0211C49.8556 31.7016 47.2514 34.7572 43.9181 34.7572Z" fill="#1E1E1E"/>
</svg>
