<svg width="60" height="90" viewBox="0 0 60 90" fill="none" xmlns="http://www.w3.org/2000/svg">
<path d="M29.494 59.5H14.997C6.99489 59.5 0.5 53.004 0.5 45C0.5 36.9961 6.99489 30.5 14.997 30.5H29.494V45V59.5ZM29.494 29.5H14.997C6.99489 29.5 0.500029 23.004 0.500029 15C0.500029 6.99605 6.99492 0.5 14.997 0.5H29.494L29.494 29.5ZM30.494 29.5L30.494 0.5H44.991C52.9931 0.5 59.488 6.99605 59.488 15C59.488 23.004 52.9931 29.5 44.991 29.5H30.494ZM44.991 59.5C36.9889 59.5 30.494 53.004 30.494 45C30.494 36.9961 36.9889 30.5 44.991 30.5C52.9931 30.5 59.488 36.9961 59.488 45C59.488 53.004 52.9931 59.5 44.991 59.5ZM14.997 60.5H29.494V75C29.494 83.004 22.9991 89.5 14.997 89.5C6.99489 89.5 0.5 83.004 0.5 75C0.5 66.996 6.99489 60.5 14.997 60.5Z" stroke="white"/>
</svg>
