<svg width="51" height="51" viewBox="0 0 51 51" fill="none" xmlns="http://www.w3.org/2000/svg">
<path fill-rule="evenodd" clip-rule="evenodd" d="M25.4689 0C39.5353 0 50.9377 11.69 50.9377 26.113C50.9377 37.6479 43.6485 47.4331 33.5348 50.8892C32.2436 51.1464 31.7851 50.331 31.7851 49.6357C31.7851 48.7748 31.8157 45.9631 31.8157 42.4688C31.8157 40.034 31.0007 38.4449 30.0864 37.635C35.7583 36.9881 41.718 34.7797 41.718 24.7501C41.718 21.8975 40.7298 19.5698 39.0947 17.7411C39.3596 17.0815 40.2332 14.4254 38.8451 10.8292C38.8451 10.8292 36.7108 10.1295 31.8488 13.5067C29.8138 12.9286 27.6337 12.6377 25.4689 12.6275C23.304 12.6377 21.1264 12.9286 19.094 13.5067C14.2269 10.1295 12.0875 10.8292 12.0875 10.8292C10.7046 14.4254 11.5781 17.0815 11.8405 17.7411C10.213 19.5698 9.21719 21.8975 9.21719 24.7501C9.21719 34.7542 15.1642 36.9965 20.8208 37.6561C20.0924 38.3081 19.4327 39.4583 19.2035 41.1469C17.7518 41.8142 14.0639 42.969 11.7921 38.978C11.7921 38.978 10.4448 36.469 7.88771 36.2857C7.88771 36.2857 5.40449 36.2527 7.71452 37.8725C7.71452 37.8725 9.38273 38.6748 10.5416 41.6928C10.5416 41.6928 12.0366 46.3535 19.122 44.7744C19.1348 46.9571 19.1577 49.0142 19.1577 49.6357C19.1577 50.3259 18.689 51.1337 17.4181 50.8917C7.29682 47.4407 0 37.6504 0 26.113C0 11.69 11.405 0 25.4689 0Z" fill="#1E1E1E"/>
</svg>
