<svg width="59" height="58" viewBox="0 0 59 58" fill="none" xmlns="http://www.w3.org/2000/svg">
<path d="M19.1098 46.9142C19.1101 46.9142 19.1103 46.9142 19.1106 46.9142L19.1165 47.2777C19.3995 47.2642 19.6752 47.2336 19.9402 47.1909L19.1098 46.9142ZM19.1098 46.9142C19.1095 46.9142 19.1092 46.9142 19.1089 46.9142L19.1161 47.2777M19.1098 46.9142L19.1161 47.2777M19.1161 47.2777C18.8314 47.2913 18.5392 47.2876 18.2431 47.2617C18.2872 47.2162 18.3346 47.176 18.3831 47.1414L19.1161 47.2777ZM19.2719 47.7697C19.4278 47.7595 19.5813 47.7446 19.7319 47.7257C19.658 47.5422 19.4104 47.4084 19.1188 47.4141C18.8077 47.4192 18.5557 47.5749 18.5022 47.7794C18.6624 47.7861 18.8211 47.7871 18.9777 47.7831M19.2719 47.7697C19.2739 47.7654 19.2759 47.7615 19.2779 47.7581C19.2887 47.7396 19.296 47.7371 19.287 47.7435C19.2752 47.7518 19.2512 47.7641 19.216 47.7731M19.2719 47.7697C19.2533 47.7709 19.2346 47.772 19.216 47.7731M19.2719 47.7697C19.2636 47.7873 19.2563 47.8113 19.2548 47.8399C19.2547 47.8427 19.2546 47.8456 19.2546 47.8485M19.216 47.7731C19.186 47.7749 19.156 47.7764 19.1259 47.7778C19.1255 47.7778 19.1251 47.7778 19.1247 47.7779C19.1013 47.7789 19.0778 47.7799 19.0543 47.7807M19.216 47.7731C19.1913 47.7794 19.1612 47.7841 19.126 47.7846C19.1256 47.7846 19.1252 47.7846 19.1248 47.7846L19.1202 47.7847C19.0958 47.7852 19.0738 47.7836 19.0543 47.7807M19.0543 47.7807C19.0063 47.7736 18.974 47.7587 18.9592 47.7488C18.9562 47.7468 18.9548 47.7456 18.9545 47.7453C18.9538 47.7447 18.9588 47.7488 18.9658 47.7598C18.9697 47.7659 18.9738 47.7737 18.9777 47.7831M19.0543 47.7807C19.0288 47.7817 19.0033 47.7825 18.9777 47.7831M18.9777 47.7831C18.985 47.8011 18.9912 47.8247 18.9916 47.8529L18.4917 47.8607H18.9917C18.9917 47.8976 18.9805 47.927 18.9702 47.9444C18.9609 47.9601 18.9551 47.9617 18.9639 47.9554C18.9832 47.9417 19.0368 47.9163 19.123 47.9142C19.1241 47.9141 19.1252 47.9141 19.1264 47.9141C19.1266 47.9141 19.1267 47.9141 19.1269 47.9141L19.1286 47.9141C19.2131 47.9124 19.2686 47.9362 19.2888 47.9498C19.293 47.9526 19.2938 47.9537 19.2924 47.9524C19.2908 47.9508 19.2861 47.9459 19.2802 47.9365C19.2698 47.9198 19.2581 47.8923 19.2551 47.8571C19.2549 47.8543 19.2547 47.8514 19.2546 47.8485M19.2546 47.8485C19.2545 47.8457 19.2544 47.8428 19.2544 47.8399V47.8485L19.2547 47.857C19.2546 47.8542 19.2546 47.8513 19.2546 47.8485ZM13.7494 49.9169C15.2596 51.0408 17.7118 51.8864 21.5673 51.1842C21.5741 52.3035 21.5834 53.3631 21.5909 54.2191C21.5982 55.0532 21.6038 55.6941 21.6038 56.0089C21.6038 56.2886 21.505 56.5585 21.3149 56.7307C21.1424 56.8869 20.8195 57.0302 20.219 56.9269C8.75747 53.1231 0.5 42.3784 0.5 29.7204C0.5 13.882 13.4315 1.03687 29.3859 1.03687C45.342 1.03687 58.2716 13.882 58.2716 29.7204C58.2716 42.3749 50.0236 53.1163 38.5674 56.9237C37.9537 57.0351 37.6305 56.8913 37.4606 56.7372C37.2726 56.5668 37.174 56.2954 37.174 56.0089C37.174 55.6919 37.1778 55.1364 37.1828 54.3916C37.1853 54.0119 37.1882 53.5829 37.1911 53.1113C37.1996 51.7169 37.2081 49.9539 37.2081 48.0001C37.2081 45.7547 36.5935 44.0784 35.7482 42.9713C38.7456 42.5553 41.8065 41.7004 44.1974 39.713C46.8746 37.4876 48.6329 33.9113 48.6329 28.1963C48.6329 24.9983 47.5259 22.3525 45.6849 20.256C46.0836 19.1311 46.787 16.2293 45.2852 12.4551L45.1977 12.2352L44.9723 12.1635L44.8206 12.6399C44.9723 12.1635 44.9718 12.1633 44.9713 12.1632L44.9703 12.1628L44.968 12.1621L44.9628 12.1605L44.9496 12.1567C44.9396 12.1539 44.9271 12.1505 44.9121 12.1468C44.8821 12.1393 44.8422 12.1304 44.7922 12.1215C44.6922 12.1035 44.5521 12.0851 44.3708 12.0769C44.0079 12.0603 43.4824 12.0842 42.7849 12.2303C41.422 12.5158 39.406 13.2668 36.6587 15.0894C34.3284 14.4699 31.848 14.1603 29.3881 14.1495L29.3837 14.1495C26.924 14.1603 24.4453 14.4699 22.1193 15.0893C19.3686 13.2667 17.3502 12.5157 15.9857 12.2303C15.2873 12.0842 14.7613 12.0603 14.3981 12.0769C14.2166 12.0851 14.0764 12.1035 13.9762 12.1214C13.9262 12.1304 13.8862 12.1393 13.8562 12.1467C13.8412 12.1504 13.8287 12.1538 13.8187 12.1566L13.8055 12.1605L13.8003 12.1621L13.7981 12.1628L13.797 12.1631C13.7965 12.1632 13.796 12.1634 13.9475 12.6399L13.796 12.1634L13.5702 12.2352L13.4828 12.4554C11.9846 16.2299 12.6882 19.1317 13.0868 20.2563C11.2498 22.352 10.135 24.9977 10.135 28.1963C10.135 33.8981 11.8901 37.4756 14.5609 39.7079C16.9483 41.7033 20.0049 42.5692 22.9976 42.9929C22.408 43.7717 21.9335 44.8314 21.7061 46.1706C20.8811 46.5077 19.6163 46.8816 18.2803 46.763C16.8366 46.6349 15.2656 45.9303 14.0398 43.8459L14.0361 43.8394L14.0192 43.8103C14.0049 43.7859 13.9843 43.7518 13.9576 43.7091C13.9042 43.6239 13.8259 43.5045 13.723 43.3619C13.5177 43.0773 13.2118 42.6964 12.8067 42.308C11.9997 41.5342 10.769 40.703 9.13649 40.5891L9.12233 40.5881L9.10814 40.5879L9.10167 41.0879C9.10814 40.5879 9.10798 40.5879 9.1078 40.5879L9.1074 40.5879L9.10639 40.5879L9.10359 40.5879L9.09492 40.5878L9.06593 40.5879C9.04171 40.5881 9.00784 40.5887 8.96645 40.5901C8.88413 40.5929 8.76978 40.5993 8.64103 40.6133C8.40339 40.6393 8.04104 40.6987 7.75505 40.8606C7.60687 40.9446 7.43184 41.0825 7.33473 41.304C7.23061 41.5416 7.25215 41.7913 7.34677 42.0153C7.43604 42.2267 7.59391 42.4279 7.79483 42.6238C7.99939 42.8233 8.27155 43.0392 8.61971 43.2757L8.65308 43.2984L8.68685 43.3141L8.68689 43.3141L8.68716 43.3143L8.68793 43.3146L8.6887 43.315L8.69474 43.3181C8.70348 43.3226 8.71904 43.3307 8.74084 43.343C8.78444 43.3675 8.85298 43.4084 8.94167 43.4686C9.11898 43.589 9.37714 43.7869 9.67801 44.0865C10.2772 44.6832 11.0527 45.6901 11.6948 47.3067L11.698 47.3158C11.7029 47.3295 11.7097 47.3481 11.7187 47.3711C11.7365 47.417 11.7626 47.4808 11.7983 47.5593C11.8696 47.7163 11.9794 47.9329 12.1374 48.1844C12.4533 48.6873 12.9643 49.3326 13.7494 49.9169ZM10.5418 42.0999C10.5308 42.0688 10.5196 42.016 10.5348 41.9518C10.5561 41.9611 10.5772 41.9706 10.5982 41.9802C10.5987 41.9804 10.5992 41.9806 10.5997 41.9808C10.6014 41.9816 10.6031 41.9824 10.6048 41.9832C10.6049 41.9832 10.605 41.9833 10.6051 41.9833C10.626 41.9929 10.6468 42.0026 10.6674 42.0124C10.6287 42.0675 10.5811 42.0937 10.5509 42.1053C10.5492 42.106 10.5475 42.1066 10.5459 42.1072C10.5455 42.1073 10.5452 42.1074 10.5448 42.1076C10.5445 42.1069 10.5442 42.1063 10.544 42.1056C10.5433 42.1038 10.5426 42.1019 10.5418 42.0999Z" stroke="white"/>
</svg>
