<svg width="60" height="68" viewBox="0 0 60 68" fill="none" xmlns="http://www.w3.org/2000/svg">
<path d="M30.2107 62.018V62.6849L30.8508 62.498L50.8147 56.6699L51.1433 56.574L51.1727 56.2329L55.5054 6.02484L55.5521 5.48367L55.0089 5.48185L30.7123 5.40045L30.2107 5.39877V5.90045V12.0024H11.638H11.0905L11.14 12.5476L13.205 35.2883L13.2463 35.743H13.703H30.2107V46.6581L22.315 44.355L21.8962 38.9129L21.8607 38.4513H21.3977H13.9865H13.4419L13.4884 38.9939L14.5009 50.8125L14.5304 51.1575L14.8638 51.2512L30.0896 55.5302L30.2107 55.5642V62.018ZM12.1854 13.0024H30.2107V19.4198H19.7776H19.2257L19.28 19.969L20.0494 27.7527L20.0939 28.2035H20.547H30.2107V34.743H14.1596L12.1854 13.0024ZM31.2107 19.4198V13.0024H48.4654L47.8702 19.4198H31.2107ZM31.2107 20.4198H48.326H48.7817L48.8238 19.966L49.5118 12.5486L49.5625 12.0024H49.014H31.2107V6.40213L54.4624 6.48003L50.2058 55.8059L31.2107 61.3512V55.293L45.7063 51.2514L46.0392 51.1586L46.07 50.8144L48.135 27.7481L48.1838 27.2035H47.637H31.2107V20.4198ZM20.3294 20.4198H30.2107V27.2035H21L20.3294 20.4198ZM31.2107 34.743V28.2035H47.0902L45.1048 50.381L31.2107 54.2549V47.434L38.6172 45.4247L38.948 45.335L38.9836 44.994L39.9952 35.2949L40.0527 34.743H39.4978H31.2107ZM30.2107 47.6998V54.5255L15.4677 50.3821L14.5312 39.4513H20.9347L21.3445 44.7766L21.3711 45.1213L21.703 45.2182L30.0853 47.6632L30.2107 47.6998ZM38.0245 44.5494L31.2107 46.3978V35.743H38.943L38.0245 44.5494ZM30.7086 67.3662L6.39849 60.4903L1.53037 0.614649L59.4431 0.734506L54.2953 60.4927L30.7086 67.3662Z" stroke="white"/>
</svg>
