<svg width="66" height="66" viewBox="0 0 66 66" fill="none" xmlns="http://www.w3.org/2000/svg">
<path d="M29.3382 28.1004L31.8116 35.8465H23.7386L26.1653 28.1004C26.7255 26.2338 27.1919 24.0408 27.6583 22.2209H27.7516C28.2184 24.0409 28.7314 26.1872 29.3382 28.1004ZM65.9355 11.043V54.9571C65.9355 60.9953 60.9952 65.9357 54.957 65.9357H11.043C5.00479 65.9355 0.0644531 60.9952 0.0644531 54.957V11.043C0.0644531 5.00479 5.00479 0.0644531 11.043 0.0644531H54.9571C60.9952 0.0644531 65.9355 5.00479 65.9355 11.043ZM41.7973 49.0985L31.5778 17.6483H24.252L14.173 49.0985H20.0992L22.8058 40.1859H32.7916L35.6381 49.0985H41.7973ZM51.5006 26.3738H45.7143V49.0985H51.5006V26.3738ZM51.827 20.0279C51.7804 18.2547 50.5673 16.9017 48.6073 16.9017C46.6941 16.9017 45.3878 18.2547 45.3878 20.0279C45.3878 21.7546 46.6474 23.1076 48.5607 23.1076C50.5672 23.1075 51.827 21.7545 51.827 20.0279Z" stroke="white"/>
</svg>
