<svg width="55" height="54" viewBox="0 0 55 54" fill="none" xmlns="http://www.w3.org/2000/svg">
<path d="M2.77894 22.9016L2.77896 22.9017L2.78315 22.8974L22.7396 2.45649C24.9076 0.244279 28.804 0.22254 31.1873 2.46339L51.8638 23.6241L51.8637 23.6241L51.8678 23.6282C53.8228 25.5832 54.0686 26.9829 53.612 28.0426C53.3683 28.6082 52.8997 29.1486 52.2256 29.6696C51.5532 30.1893 50.7022 30.6697 49.7329 31.1231C48.0586 31.9063 46.0905 32.583 44.1759 33.2413C43.8676 33.3472 43.5608 33.4528 43.2567 33.5581C41.0995 34.306 39.0452 35.0602 37.7892 35.9446L37.7883 35.9452C37.4705 36.1699 37.2125 36.4932 37.2414 36.9216C37.267 37.3013 37.5149 37.5989 37.7408 37.8084C38.181 38.2166 38.9161 38.6236 39.6126 39.0092C39.6478 39.0287 39.6828 39.0481 39.7177 39.0674C40.4841 39.4921 41.2222 39.9086 41.7205 40.3412C42.2403 40.7925 42.3031 41.081 42.2145 41.3023L42.2134 41.3052C41.8494 42.2317 41.373 42.7554 40.8142 43.1079C40.2325 43.4749 39.5359 43.6754 38.6695 43.905C38.619 43.9184 38.5682 43.9318 38.517 43.9453C36.8188 44.3939 34.7045 44.9523 32.49 47.1914L32.4871 47.1943C32.2323 47.4562 32.0467 47.7437 31.9986 48.0634C31.9471 48.4051 32.0653 48.694 32.2398 48.9149C32.4038 49.1225 32.6267 49.2835 32.8347 49.4109C33.0464 49.5406 33.2826 49.6587 33.4938 49.7643C33.714 49.8744 33.9073 49.971 34.0702 50.0701C34.2384 50.1723 34.3273 50.25 34.3669 50.3026C34.3699 50.3066 34.3723 50.3101 34.3742 50.313C34.3599 50.3475 34.3057 50.4431 34.1225 50.5993C32.6552 51.8132 30.2403 52.7993 28.1287 53.1093C27.072 53.2644 26.1438 53.242 25.4721 53.0321C24.8191 52.8281 24.4676 52.4741 24.3765 51.9605L24.3764 51.96C24.1783 50.8508 23.7406 50.0833 23.1289 49.5542C22.5284 49.0348 21.8058 48.7858 21.1159 48.6243C20.7878 48.5476 20.4541 48.488 20.1384 48.4316L20.0885 48.4227C19.7527 48.3627 19.4381 48.3053 19.141 48.2316C18.5436 48.0833 18.0826 47.8832 17.7565 47.5384L17.7565 47.5384L17.7516 47.5334C17.5958 47.3732 17.549 47.2462 17.5379 47.149C17.526 47.0452 17.5482 46.9146 17.6324 46.7415C17.813 46.3705 18.1893 45.9712 18.65 45.4916L18.6839 45.4562C19.1001 45.0231 19.5881 44.5153 19.8455 43.9865C19.9838 43.7024 20.0744 43.3774 20.0344 43.0278C19.9937 42.6716 19.824 42.3476 19.5439 42.0597L19.5439 42.0597L19.5391 42.0548C19.2686 41.7844 18.8893 41.5402 18.4623 41.3159C18.0295 41.0885 17.5183 40.8665 16.9622 40.6492C15.8759 40.2247 14.5809 39.804 13.2998 39.3879L13.2124 39.3595C11.8947 38.9314 10.5967 38.508 9.51981 38.0812C8.98199 37.8681 8.50904 37.6579 8.12238 37.4505C7.73008 37.24 7.45427 37.0469 7.28864 36.8766L7.28867 36.8766L7.28383 36.8718C7.16872 36.7566 7.1852 36.7125 7.19069 36.6978C7.1911 36.6967 7.19145 36.6958 7.19168 36.695C7.21236 36.6235 7.3004 36.4838 7.54685 36.2835C8.02989 35.891 8.83361 35.4882 9.70396 35.0654C9.76061 35.0378 9.81762 35.0102 9.87484 34.9825C10.6545 34.6044 11.4745 34.2069 11.9882 33.815C12.2477 33.6171 12.5505 33.3338 12.6269 32.9589C12.7233 32.4859 12.434 32.1343 12.0955 31.9139L12.0955 31.9139L12.0905 31.9107C10.8911 31.1497 9.19541 30.6368 7.52332 30.1787C7.2267 30.0975 6.93048 30.0179 6.63651 29.9388C5.23785 29.5629 3.89026 29.2007 2.79423 28.7413C1.43597 28.1721 0.692834 27.5444 0.565462 26.7807C0.501293 26.396 0.576887 25.9014 0.917425 25.2535C1.25928 24.6031 1.85371 23.8269 2.77894 22.9016ZM52.2642 41.3453L52.2658 41.3532L52.2677 41.361C52.2682 41.3631 52.2687 41.3651 52.2692 41.3671C52.275 41.3895 52.2791 41.4051 52.2226 41.4564C52.1337 41.5372 51.9494 41.6353 51.6388 41.7215C51.0288 41.8908 50.1391 41.9595 49.1989 41.9388C48.2649 41.9181 47.3266 41.8104 46.6335 41.6509C46.2831 41.5702 46.022 41.4823 45.8601 41.3997C45.8578 41.3986 45.8557 41.3975 45.8535 41.3964C46.3048 40.2827 47.6542 39.5949 49.1332 39.5415C50.7211 39.4842 52.0235 40.1603 52.2642 41.3453ZM11.956 46.4866L11.956 46.4866L11.9516 46.4829C11.6498 46.2279 11.5127 46.0061 11.4595 45.8341C11.4092 45.6712 11.4221 45.5161 11.4946 45.3548C11.6542 44.9998 12.1107 44.6121 12.8027 44.3229C13.4762 44.0413 14.2795 43.8939 15.0002 43.9441C15.5974 43.9856 16.0852 44.157 16.4153 44.4446C15.9883 45.3202 15.242 46.1189 14.4232 46.565C13.5237 47.0552 12.6408 47.0789 11.956 46.4866ZM46.589 45.9811C45.684 46.5456 44.7587 46.3593 44.2996 45.926C44.0725 45.7116 43.9571 45.4408 43.979 45.1432C43.9982 44.8808 44.129 44.5428 44.4831 44.1655C45.477 44.4105 46.0677 44.8945 46.3599 45.3195C46.5211 45.554 46.5834 45.7573 46.5925 45.8884C46.5959 45.9364 46.5925 45.9654 46.589 45.9811ZM46.5861 45.9918C46.5848 45.9953 46.5838 45.9969 46.5836 45.9968C46.5833 45.9968 46.584 45.995 46.5861 45.9918Z" stroke="white"/>
</svg>
