<svg width="64" height="64" viewBox="0 0 64 64" fill="none" xmlns="http://www.w3.org/2000/svg">
<mask id="path-1-inside-1_149_19" fill="white">
<path fill-rule="evenodd" clip-rule="evenodd" d="M29.4494 0.990705C31.5462 -0.0864561 34.1862 0.248428 35.9479 2.01006L61.9898 28.052C64.17 30.2325 64.17 33.7673 61.9898 35.9475L35.9479 61.9895C35.5296 62.4078 35.0572 62.7488 34.5506 63.0089C32.4537 64.0861 29.8137 63.7511 28.0521 61.9895L2.01023 35.9475C-0.170078 33.7673 -0.170075 30.2325 2.01023 28.052L28.0521 2.01006C28.4704 1.59177 28.9428 1.25081 29.4494 0.990705ZM32.2354 6.0758C29.5869 10.4633 30.1578 16.2525 33.9445 20.0391L43.9606 30.0554C44.4765 30.571 44.766 31.2706 44.766 31.9999C44.766 32.7292 44.4765 33.4285 43.9606 33.9444L35.7317 42.1733C37.69 44.8966 38.74 48.0704 38.8819 51.2771L58.1008 32.0585C58.1123 32.0469 58.1167 32.0387 58.1192 32.0324C58.1222 32.0244 58.125 32.0134 58.125 31.9999C58.125 31.9864 58.1222 31.9752 58.1192 31.9672C58.1167 31.9611 58.1123 31.9529 58.1008 31.9411L32.2354 6.0758ZM31.7646 57.9239C34.4131 53.5363 33.8422 47.7472 30.0555 43.9605L20.0393 33.9444C18.9654 32.8706 18.9654 31.1293 20.0393 30.0554L28.2682 21.8264C26.31 19.1031 25.2601 15.9292 25.118 12.7225L5.89931 31.9411C5.88762 31.9529 5.88336 31.9611 5.88088 31.9672C5.87764 31.9752 5.875 31.9864 5.875 31.9999C5.875 32.0134 5.87764 32.0244 5.88088 32.0324C5.88336 32.0387 5.88762 32.0469 5.89931 32.0585L31.7646 57.9239ZM32 25.8728L25.8729 31.9999L32 38.1269L38.127 31.9999L32 25.8728Z"/>
</mask>
<path d="M29.4494 0.990705L29.9062 1.88028L29.9063 1.88021L29.4494 0.990705ZM35.9479 2.01006L36.655 1.30295L36.655 1.30295L35.9479 2.01006ZM61.9898 28.052L62.697 27.3449L62.6969 27.3449L61.9898 28.052ZM61.9898 35.9475L61.2827 35.2404L61.2827 35.2404L61.9898 35.9475ZM35.9479 61.9895L36.655 62.6966L36.655 62.6966L35.9479 61.9895ZM34.5506 63.0089L34.0938 62.1194L34.0937 62.1194L34.5506 63.0089ZM28.0521 61.9895L27.345 62.6966L27.345 62.6966L28.0521 61.9895ZM2.01023 35.9475L2.71734 35.2404L2.71732 35.2404L2.01023 35.9475ZM2.01023 28.052L1.30312 27.3449L1.30309 27.3449L2.01023 28.052ZM28.0521 2.01006L28.7592 2.71716L28.7592 2.71716L28.0521 2.01006ZM32.2354 6.0758L32.9425 5.36869L32.0394 4.46554L31.3793 5.559L32.2354 6.0758ZM33.9445 20.0391L34.6516 19.332L34.6516 19.332L33.9445 20.0391ZM43.9606 30.0554L43.2535 30.7625L43.2537 30.7627L43.9606 30.0554ZM35.7317 42.1733L35.0246 41.4662L34.4237 42.0671L34.9199 42.7571L35.7317 42.1733ZM38.8819 51.2771L37.8828 51.3213L37.9832 53.59L39.589 51.9842L38.8819 51.2771ZM58.1008 32.0585L58.8079 32.7656L58.8079 32.7656L58.1008 32.0585ZM58.1192 32.0324L59.0505 32.3968L59.0542 32.387L58.1192 32.0324ZM58.1192 31.9672L59.0542 31.6125L59.0496 31.6005L59.0448 31.5886L58.1192 31.9672ZM58.1008 31.9411L58.8162 31.2423L58.8079 31.2339L58.1008 31.9411ZM31.7646 57.9239L31.0575 58.631L31.9606 59.5342L32.6207 58.4407L31.7646 57.9239ZM30.0555 43.9605L30.7626 43.2534L30.7626 43.2534L30.0555 43.9605ZM20.0393 33.9444L20.7464 33.2373L20.7464 33.2373L20.0393 33.9444ZM20.0393 30.0554L20.7464 30.7625L20.7464 30.7625L20.0393 30.0554ZM28.2682 21.8264L28.9754 22.5336L29.5763 21.9326L29.0801 21.2427L28.2682 21.8264ZM25.118 12.7225L26.117 12.6782L26.0165 10.4098L24.4109 12.0154L25.118 12.7225ZM5.89931 31.9411L5.19219 31.2339L5.18808 31.2381L5.89931 31.9411ZM5.88088 31.9672L4.95533 31.5886L4.95462 31.5903L5.88088 31.9672ZM5.88088 32.0324L6.81221 31.6679L6.80714 31.6555L5.88088 32.0324ZM5.89931 32.0585L6.60643 31.3514L6.60222 31.3472L5.89931 32.0585ZM32 25.8728L32.7071 25.1657L32 24.4585L31.2929 25.1657L32 25.8728ZM25.8729 31.9999L25.1658 31.2928L24.4587 31.9999L25.1658 32.707L25.8729 31.9999ZM32 38.1269L31.2929 38.834L32 39.5411L32.7071 38.834L32 38.1269ZM38.127 31.9999L38.8341 32.707L39.5412 31.9999L38.8341 31.2928L38.127 31.9999ZM29.9063 1.88021C31.629 0.99526 33.796 1.27237 35.2408 2.71717L36.655 1.30295C34.5765 -0.775513 31.4635 -1.16817 28.9924 0.101205L29.9063 1.88021ZM35.2408 2.71717L61.2827 28.7591L62.6969 27.3449L36.655 1.30295L35.2408 2.71717ZM61.2827 28.7591C63.0725 30.5491 63.0724 33.4508 61.2827 35.2404L62.6969 36.6546C65.2677 34.0839 65.2676 29.9159 62.697 27.3449L61.2827 28.7591ZM61.2827 35.2404L35.2408 61.2824L36.655 62.6966L62.6969 36.6546L61.2827 35.2404ZM35.2408 61.2824C34.8968 61.6263 34.509 61.9061 34.0938 62.1194L35.0075 63.8985C35.6053 63.5914 36.1624 63.1892 36.655 62.6966L35.2408 61.2824ZM34.0937 62.1194C32.371 63.0044 30.204 62.7272 28.7592 61.2824L27.345 62.6966C29.4235 64.7751 32.5365 65.1678 35.0076 63.8984L34.0937 62.1194ZM28.7592 61.2824L2.71734 35.2404L1.30312 36.6546L27.345 62.6966L28.7592 61.2824ZM2.71732 35.2404C0.927584 33.4508 0.927522 30.5491 2.71736 28.7591L1.30309 27.3449C-1.26767 29.9159 -1.26774 34.0839 1.30314 36.6547L2.71732 35.2404ZM2.71734 28.7591L28.7592 2.71716L27.345 1.30295L1.30312 27.3449L2.71734 28.7591ZM28.7592 2.71716C29.1032 2.3732 29.4909 2.0935 29.9062 1.88028L28.9926 0.101126C28.3947 0.408117 27.8376 0.810342 27.345 1.30296L28.7592 2.71716ZM31.3793 5.559C28.4986 10.3311 29.1181 16.627 33.2374 20.7463L34.6516 19.332C31.1975 15.878 30.6752 10.5955 33.0915 6.59259L31.3793 5.559ZM33.2374 20.7462L43.2535 30.7625L44.6677 29.3483L34.6516 19.332L33.2374 20.7462ZM43.2537 30.7627C43.5817 31.0906 43.766 31.5356 43.766 31.9999H45.766C45.766 31.0056 45.3712 30.0515 44.6675 29.3481L43.2537 30.7627ZM43.766 31.9999C43.766 32.464 43.5818 32.909 43.2535 33.2373L44.6677 34.6515C45.3711 33.9481 45.766 32.9944 45.766 31.9999H43.766ZM43.2535 33.2373L35.0246 41.4662L36.4389 42.8804L44.6677 34.6515L43.2535 33.2373ZM34.9199 42.7571C36.7612 45.3178 37.7493 48.3029 37.8828 51.3213L39.8809 51.2329C39.7307 47.8378 38.6188 44.4753 36.5436 41.5894L34.9199 42.7571ZM39.589 51.9842L58.8079 32.7656L57.3937 31.3514L38.1748 50.57L39.589 51.9842ZM58.8079 32.7656C58.9102 32.6633 58.9943 32.5403 59.0505 32.3968L57.188 31.668C57.2088 31.6146 57.2385 31.5534 57.2803 31.4903C57.3198 31.4309 57.3601 31.3849 57.3937 31.3514L58.8079 32.7656ZM59.0542 32.387C59.094 32.2821 59.125 32.1509 59.125 31.9999H57.125C57.125 31.8759 57.1505 31.7667 57.1842 31.6777L59.0542 32.387ZM59.125 31.9999C59.125 31.8519 59.0952 31.7206 59.0542 31.6125L57.1842 32.3218C57.1493 32.2297 57.125 32.1209 57.125 31.9999H59.125ZM59.0448 31.5886C58.9909 31.4568 58.9127 31.3412 58.8162 31.2423L57.3854 32.6398C57.3542 32.6079 57.317 32.5647 57.2803 32.5095C57.2413 32.4507 57.2135 32.3942 57.1937 32.3458L59.0448 31.5886ZM58.8079 31.2339L32.9425 5.36869L31.5283 6.7829L57.3937 32.6482L58.8079 31.2339ZM32.6207 58.4407C35.5014 53.6684 34.8819 47.3727 30.7626 43.2534L29.3484 44.6676C32.8025 48.1217 33.3248 53.4041 30.9085 57.4071L32.6207 58.4407ZM30.7626 43.2534L20.7464 33.2373L19.3322 34.6515L29.3484 44.6676L30.7626 43.2534ZM20.7464 33.2373C20.063 32.554 20.063 31.4459 20.7464 30.7625L19.3322 29.3482C17.8677 30.8127 17.8677 33.1872 19.3322 34.6516L20.7464 33.2373ZM20.7464 30.7625L28.9754 22.5336L27.5611 21.1193L19.3322 29.3483L20.7464 30.7625ZM29.0801 21.2427C27.2388 18.6819 26.2508 15.6967 26.117 12.6782L24.119 12.7667C24.2694 16.1618 25.3812 19.5243 27.4563 22.4102L29.0801 21.2427ZM24.4109 12.0154L5.1922 31.2339L6.60641 32.6482L25.8251 13.4296L24.4109 12.0154ZM5.18808 31.2381C5.08386 31.3435 5.00704 31.4622 4.95533 31.5886L6.80643 32.3458C6.78885 32.3888 6.76184 32.4456 6.72127 32.5071C6.68314 32.5649 6.64399 32.6102 6.61054 32.644L5.18808 31.2381ZM4.95462 31.5903C4.90175 31.7202 4.875 31.8597 4.875 31.9999H6.875C6.875 32.1131 6.85353 32.2301 6.80714 32.3441L4.95462 31.5903ZM4.875 31.9999C4.875 32.1433 4.90295 32.2823 4.95462 32.4092L6.80714 31.6555C6.85232 31.7665 6.875 31.8834 6.875 31.9999H4.875ZM4.94964 32.3968C5.0037 32.5349 5.08632 32.661 5.1964 32.7698L6.60222 31.3472C6.63809 31.3827 6.68039 31.4307 6.72127 31.4926C6.76467 31.5584 6.79334 31.62 6.81212 31.668L4.94964 32.3968ZM5.1922 32.7656L31.0575 58.631L32.4717 57.2168L6.60642 31.3514L5.1922 32.7656ZM31.2929 25.1657L25.1658 31.2928L26.5801 32.707L32.7071 26.5799L31.2929 25.1657ZM25.1658 32.707L31.2929 38.834L32.7071 37.4198L26.58 31.2928L25.1658 32.707ZM32.7071 38.834L38.8341 32.707L37.4199 31.2928L31.2929 37.4198L32.7071 38.834ZM38.8341 31.2928L32.7071 25.1657L31.2929 26.5799L37.4199 32.707L38.8341 31.2928Z" fill="white" mask="url(#path-1-inside-1_149_19)"/>
</svg>
