<svg width="52" height="52" viewBox="0 0 52 52" fill="none" xmlns="http://www.w3.org/2000/svg">
<path d="M47.3375 0.00461491H4.40574C3.85238 -0.021305 3.29932 0.0621475 2.77825 0.250243C2.25718 0.438339 1.77834 0.727348 1.36909 1.10071C0.959872 1.4741 0.628284 1.92455 0.393365 2.42622C0.158446 2.92793 0.0247622 3.47103 0 4.02445V47.0528C0.0324159 48.2108 0.507013 49.3129 1.32632 50.132C2.14562 50.9514 3.24751 51.4261 4.40574 51.4585H47.3375C48.4634 51.4084 49.525 50.9189 50.2945 50.0953C51.0641 49.2718 51.4802 48.1796 51.4538 47.0528V4.02445C51.4632 3.48579 51.3622 2.95096 51.1573 2.45269C50.9525 1.95446 50.6479 1.5033 50.2624 1.12689C49.8771 0.750502 49.4188 0.456831 48.9159 0.263847C48.4129 0.0708626 47.8759 -0.0173494 47.3375 0.00461491ZM16.0793 42.9044H8.58636V19.9752H16.0793V42.9044ZM12.5097 16.502C11.9868 16.5202 11.4658 16.4301 10.9795 16.2374C10.4931 16.0446 10.0518 15.7534 9.68339 15.3819C9.31495 15.0104 9.02729 14.5668 8.83852 14.0788C8.64971 13.5909 8.56388 13.0692 8.58636 12.5465C8.56324 12.0181 8.65081 11.4908 8.84347 10.9983C9.03613 10.5057 9.32961 10.0589 9.70506 9.68649C10.0805 9.31403 10.5297 9.02418 11.0238 8.83554C11.5178 8.64687 12.0459 8.56358 12.574 8.59097C13.0969 8.57277 13.6179 8.66285 14.1043 8.85561C14.5907 9.04837 15.0319 9.33963 15.4004 9.71109C15.7688 10.0826 16.0565 10.5262 16.2452 11.0141C16.434 11.5021 16.5199 12.0238 16.4974 12.5465C16.5205 13.0749 16.4329 13.6022 16.2403 14.0947C16.0476 14.5872 15.7541 15.0341 15.3787 15.4065C15.0032 15.7789 14.554 16.0688 14.06 16.2574C13.5659 16.4461 13.0379 16.5294 12.5097 16.502ZM42.8996 42.9044H35.3745V30.3625C35.3745 27.3717 34.3133 25.3136 31.6441 25.3136C30.8151 25.3206 30.0082 25.584 29.3348 26.0677C28.6611 26.5514 28.1536 27.2315 27.8816 28.0149C27.6725 28.6021 27.585 29.2257 27.6243 29.8479V42.9044H20.2278V19.9752H27.6243V23.1911C28.2819 21.9829 29.2605 20.9802 30.4523 20.2933C31.6441 19.6067 33.0025 19.2629 34.3776 19.2998C39.2336 19.2998 42.8996 22.5158 42.8996 29.3656V42.9044Z" fill="#1E1E1E"/>
</svg>
