<svg width="65" height="49" viewBox="0 0 65 49" fill="none" xmlns="http://www.w3.org/2000/svg">
<path d="M0.5 27.3819H5H5.5V27.8819V28.3958C5.52967 29.5683 6.01598 30.683 6.85546 31.5023C7.69634 32.323 8.82486 32.7823 9.99986 32.7819L10.3169 32.7818L10.4522 33.0686L16.4518 45.7876C16.4518 45.7877 16.4518 45.7878 16.4519 45.7879C16.8179 46.5594 17.394 47.212 18.1141 47.6709C18.8339 48.1295 19.6683 48.3759 20.5217 48.3819H23.0379C24.2244 48.3719 25.359 47.8937 26.1947 47.0513C27.0309 46.2084 27.5 45.0692 27.5 43.8819V33.7619V33.0236L28.1856 33.2976L52.5049 43.0174L0.5 27.3819ZM0.5 27.3819V16.3819H5H5.5V15.8819V15.4819C5.5 14.2884 5.97411 13.1439 6.81802 12.2999C7.66193 11.456 8.80653 10.9819 10 10.9819H25.8C25.8 10.9819 25.8 10.9819 25.8 10.9819C26.4945 10.982 27.1825 10.8476 27.8259 10.5861C27.8267 10.5857 27.8276 10.5854 27.8285 10.585L52.5032 0.867142L52.5099 0.86453L52.5164 0.86173C53.1943 0.572179 53.9329 0.453576 54.6673 0.516348C55.4001 0.578978 56.1063 0.820246 56.7242 1.21901C57.3292 1.62893 57.8253 2.18007 58.1696 2.82477C58.5145 3.47072 58.6966 4.19109 58.7 4.92334C58.7 4.92362 58.7 4.9239 58.7 4.92417L58.7 38.9545C58.6784 39.6662 58.4882 40.3627 58.145 40.9867C57.8008 41.6126 57.3125 42.1475 56.7206 42.5473C55.9735 43.0506 55.0965 43.3266 54.1959 43.3419C53.617 43.3416 53.0435 43.2316 52.5056 43.0176L0.5 27.3819ZM59.82 26.3541V17.4098C60.8295 17.5226 61.7768 17.9747 62.502 18.6999C63.3459 19.5439 63.82 20.6884 63.82 21.8819C63.82 23.0754 63.3459 24.22 62.502 25.0639C61.7768 25.7891 60.8295 26.2412 59.82 26.3541ZM23.5 15.4819V14.9819H23H10H9.5V15.4819V28.4019V28.9019H10H23H23.5V28.4019V15.4819ZM23 44.3819H23.5V43.8819V33.2819V32.7819H23H15.56H14.7767L15.1065 33.4924L20.0265 44.0924L20.1608 44.3819H20.48H23ZM29.2525 29.4472L29.2733 29.4578L29.2951 29.4665L54.0151 39.3065L54.7 39.5791V38.8419V4.92192V4.18474L54.0151 4.45737L29.2971 14.2966C29.2968 14.2967 29.2964 14.2969 29.296 14.297C28.843 14.475 28.3756 14.6139 27.899 14.7122L27.5 14.7946V15.2019V28.4019V28.7715L27.8533 28.8799C28.3353 29.0279 28.8035 29.2177 29.2525 29.4472Z" stroke="white"/>
</svg>
