<svg width="40" height="48" viewBox="0 0 40 48" fill="none" xmlns="http://www.w3.org/2000/svg">
<mask id="path-1-inside-1_149_26" fill="white">
<path d="M15.2906 16.8951C11.7512 14.8516 10.0257 10.6857 11.0834 6.73807C12.1412 2.79042 15.7186 0.0454102 19.8055 0.0454102C23.8924 0.0454102 27.4697 2.79042 28.5275 6.73807C29.5853 10.6857 27.8597 14.8516 24.3203 16.8951L21.6016 12.1861C23.0097 11.3732 23.6962 9.71587 23.2753 8.14538C22.8545 6.57489 21.4314 5.48284 19.8055 5.48284C18.1796 5.48284 16.7564 6.57489 16.3356 8.14538C15.9148 9.71587 16.6013 11.3732 18.0093 12.1861L15.2906 16.8951Z"/>
<path d="M34.627 19.0812C38.1663 21.1246 39.8919 25.2905 38.8341 29.2382C37.7764 33.1858 34.199 35.9308 30.1121 35.9308C26.0252 35.9308 22.4478 33.1858 21.3901 29.2382C20.3323 25.2905 22.0579 21.1246 25.5972 19.0812L28.316 23.7901C26.9079 24.6031 26.2214 26.2604 26.6422 27.8309C27.063 29.4014 28.4862 30.4934 30.1121 30.4934C31.738 30.4934 33.1612 29.4014 33.582 27.8309C34.0028 26.2604 33.3163 24.6031 31.9083 23.7901L34.627 19.0812Z"/>
<path d="M18.723 26.9012C18.723 30.9881 15.978 34.5654 12.0303 35.6232C8.08268 36.681 3.91675 34.9554 1.87329 31.416C-0.170157 27.8767 0.418409 23.4061 3.30829 20.5162C6.19816 17.6263 10.6688 17.0377 14.2081 19.0812L11.4894 23.7901C10.0813 22.9772 8.30281 23.2113 7.15313 24.361C6.00345 25.5107 5.7693 27.2892 6.58225 28.6973C7.39519 30.1054 9.05252 30.7919 10.623 30.371C12.1935 29.9502 13.2856 28.527 13.2856 26.9012H18.723Z"/>
<path d="M3.2422 38.0959C4.00645 38.0271 4.77913 38.0278 5.53949 38.1367C6.00815 38.2197 6.50533 38.3409 6.85731 38.6825C7.22615 39.0941 7.3169 39.6658 7.39793 40.1928C7.53081 41.2864 7.51525 42.3955 7.39793 43.4897C7.31949 44.0238 7.24235 44.6007 6.89232 45.035C6.51052 45.4227 5.94657 45.5329 5.42929 45.6145C4.66569 45.7098 3.89107 45.7319 3.12423 45.6554C2.60501 45.6022 2.0631 45.5108 1.62101 45.2146C1.33515 45.0331 1.18152 44.7129 1.07716 44.4024C0.867784 43.7554 0.841207 43.0683 0.812686 42.3942C0.809444 41.5035 0.826298 40.6038 1.00002 39.7274C1.09401 39.3184 1.2081 38.8685 1.5536 38.5956C2.04041 38.2424 2.65946 38.1568 3.2422 38.0959ZM3.36861 39.3165C3.04709 39.3651 2.64649 39.3916 2.45268 39.6911C2.28349 40.1377 2.28932 40.6252 2.25497 41.0952C2.23876 41.9333 2.19663 42.7792 2.32627 43.6109C2.37424 43.8916 2.47277 44.2261 2.78456 44.3084C3.46065 44.5152 4.18406 44.4802 4.8809 44.4406C5.22834 44.3875 5.68923 44.3576 5.85841 43.994C6.05223 43.4404 6.03862 42.8428 6.0626 42.2645C6.05482 41.4517 6.1002 40.6233 5.90573 39.8279C5.85906 39.5453 5.56606 39.4247 5.3178 39.3748C4.67736 39.249 4.01618 39.2646 3.36861 39.3165ZM10.1969 40.6291C10.6611 40.3342 11.2373 40.2862 11.7727 40.3348C12.2725 40.3776 12.8274 40.5474 13.0951 41.0076C13.4147 41.5852 13.4328 42.2678 13.4549 42.9121C13.4406 43.5746 13.4283 44.2662 13.1547 44.882C12.9985 45.2561 12.6394 45.5011 12.255 45.5977C11.6664 45.7422 11.0195 45.7578 10.4523 45.5231C10.1457 45.4032 9.93375 45.1426 9.75809 44.8756V47.9034H8.46165C8.4623 45.3974 8.46036 42.8907 8.4623 40.3847C8.8817 40.3828 9.30109 40.3828 9.71984 40.3847C9.70558 40.6427 9.69132 40.9 9.68419 41.1587C9.83976 40.9688 9.98431 40.76 10.1969 40.6291ZM10.6189 41.3058C10.3104 41.3298 9.97459 41.4828 9.88708 41.8056C9.72179 42.3747 9.75096 42.9776 9.77494 43.5636C9.81513 43.9454 9.86245 44.4374 10.2689 44.6085C10.7058 44.7777 11.2101 44.7686 11.6522 44.6241C12.0346 44.4892 12.0904 44.0394 12.1306 43.6919C12.1708 43.1163 12.185 42.529 12.0722 41.9605C12.034 41.7401 11.9205 41.5126 11.7053 41.4199C11.3657 41.2702 10.9819 41.278 10.6189 41.3058ZM15.0061 40.6388C15.6433 40.3115 16.3894 40.2998 17.0888 40.3329C17.6709 40.3815 18.3774 40.4787 18.6983 41.0355C19.06 41.7077 19.001 42.4985 19.0516 43.2362H15.5052C15.5467 43.6167 15.4974 44.027 15.6893 44.3758C15.8533 44.6513 16.2014 44.7077 16.4957 44.7239C16.8593 44.7265 17.2508 44.7563 17.586 44.5871C17.7778 44.4367 17.7791 44.1697 17.8038 43.9493C18.2186 43.9486 18.6335 43.9486 19.0483 43.9493C19.0328 44.3823 18.977 44.8671 18.6296 45.1718C18.1078 45.6398 17.361 45.6884 16.6934 45.7014C16.1041 45.6839 15.4818 45.6541 14.9542 45.3637C14.527 45.1115 14.3909 44.5936 14.3157 44.1372C14.2204 43.4592 14.1964 42.7682 14.2775 42.0876C14.3436 41.5502 14.4881 40.9182 15.0061 40.6388ZM15.7638 41.464C15.4929 41.711 15.5194 42.1206 15.5078 42.4564C16.2701 42.4603 17.0324 42.4584 17.7953 42.4571C17.794 42.155 17.8232 41.8257 17.6599 41.5567C17.4997 41.3389 17.1996 41.3246 16.9533 41.298C16.5559 41.2922 16.1177 41.2488 15.7638 41.464ZM21.8123 40.6356C22.2609 40.3244 22.8404 40.281 23.3681 40.3419C23.8173 40.3893 24.2931 40.5604 24.5582 40.948C24.7935 41.2695 24.859 41.6792 24.8622 42.0688C24.8603 43.2576 24.8628 44.4458 24.8616 45.6346C24.4506 45.6353 24.0403 45.6353 23.6306 45.6346C23.6286 44.51 23.6319 43.386 23.6286 42.262C23.6163 42.0163 23.6261 41.7324 23.4413 41.5431C23.2443 41.3298 22.935 41.2883 22.6596 41.2903C22.3264 41.2883 21.966 41.3454 21.7093 41.5755C21.4584 41.7894 21.3631 42.1343 21.3618 42.4532C21.3599 43.5137 21.3625 44.5741 21.3605 45.634C20.9502 45.6353 20.5399 45.6353 20.1302 45.6346C20.1296 43.8844 20.1296 42.1343 20.1302 40.3841C20.5334 40.3828 20.9372 40.3834 21.3404 40.3841C21.3385 40.6913 21.308 40.9966 21.2989 41.3039C21.4312 41.0556 21.5699 40.7937 21.8123 40.6356ZM27.0908 38.3357C27.7701 38.1075 28.4942 38.0751 29.2046 38.0498C29.893 38.0531 30.6125 38.0596 31.2556 38.337C31.5823 38.4731 31.8085 38.7713 31.9187 39.1006C32.0983 39.5926 32.1034 40.1254 32.1073 40.6433C31.6335 40.6433 31.1596 40.6446 30.6864 40.6427C30.6787 40.2784 30.7065 39.87 30.4809 39.5602C30.2528 39.3268 29.8963 39.3275 29.5935 39.2918C28.9777 39.2801 28.3366 39.2406 27.7468 39.4532C27.5342 39.5206 27.424 39.7333 27.3812 39.9381C27.26 40.4878 27.2593 41.055 27.26 41.6157C27.2671 42.365 27.2554 43.1254 27.4155 43.8624C27.4577 44.1321 27.7059 44.298 27.9548 44.3576C28.5305 44.5009 29.1314 44.4801 29.7193 44.4451C30.0259 44.405 30.3993 44.3849 30.5918 44.1035C30.7973 43.7678 30.7629 43.3548 30.7519 42.9776C31.2303 42.9756 31.708 42.9763 32.1864 42.9776C32.1806 43.5733 32.1702 44.1885 31.9537 44.7524C31.8422 45.0473 31.6121 45.2976 31.3139 45.4103C30.7286 45.645 30.0868 45.6599 29.4658 45.6975C28.7457 45.7098 28.0164 45.6923 27.3125 45.5244C26.8995 45.4168 26.4484 45.2275 26.2572 44.8172C26.0128 44.2747 25.9681 43.6712 25.9052 43.0871C25.8527 42.3158 25.819 41.5431 25.8378 40.7704C25.8747 40.1449 25.9318 39.4856 26.2695 38.9405C26.449 38.6371 26.7641 38.4472 27.0908 38.3357ZM32.4198 38.1172C32.9137 38.1179 33.4077 38.1036 33.9009 38.1244C34.3813 39.6483 34.9089 41.1567 35.3938 42.6788C35.5824 43.2634 35.716 43.865 35.9111 44.4477C36.1295 43.819 36.2695 43.1656 36.4834 42.5355C36.9573 41.0634 37.4441 39.5958 37.9173 38.1237C38.4048 38.103 38.8935 38.1211 39.3816 38.1147V38.2761C38.5791 40.7218 37.7954 43.174 37.0091 45.6256C36.2754 45.6405 35.5403 45.6424 34.8065 45.6243C34.0248 43.1176 33.2054 40.6226 32.4198 38.1172Z"/>
</mask>
<path d="M15.2906 16.8951C11.7512 14.8516 10.0257 10.6857 11.0834 6.73807C12.1412 2.79042 15.7186 0.0454102 19.8055 0.0454102C23.8924 0.0454102 27.4697 2.79042 28.5275 6.73807C29.5853 10.6857 27.8597 14.8516 24.3203 16.8951L21.6016 12.1861C23.0097 11.3732 23.6962 9.71587 23.2753 8.14538C22.8545 6.57489 21.4314 5.48284 19.8055 5.48284C18.1796 5.48284 16.7564 6.57489 16.3356 8.14538C15.9148 9.71587 16.6013 11.3732 18.0093 12.1861L15.2906 16.8951Z" stroke="white" mask="url(#path-1-inside-1_149_26)"/>
<path d="M34.627 19.0812C38.1663 21.1246 39.8919 25.2905 38.8341 29.2382C37.7764 33.1858 34.199 35.9308 30.1121 35.9308C26.0252 35.9308 22.4478 33.1858 21.3901 29.2382C20.3323 25.2905 22.0579 21.1246 25.5972 19.0812L28.316 23.7901C26.9079 24.6031 26.2214 26.2604 26.6422 27.8309C27.063 29.4014 28.4862 30.4934 30.1121 30.4934C31.738 30.4934 33.1612 29.4014 33.582 27.8309C34.0028 26.2604 33.3163 24.6031 31.9083 23.7901L34.627 19.0812Z" stroke="white" mask="url(#path-1-inside-1_149_26)"/>
<path d="M18.723 26.9012C18.723 30.9881 15.978 34.5654 12.0303 35.6232C8.08268 36.681 3.91675 34.9554 1.87329 31.416C-0.170157 27.8767 0.418409 23.4061 3.30829 20.5162C6.19816 17.6263 10.6688 17.0377 14.2081 19.0812L11.4894 23.7901C10.0813 22.9772 8.30281 23.2113 7.15313 24.361C6.00345 25.5107 5.7693 27.2892 6.58225 28.6973C7.39519 30.1054 9.05252 30.7919 10.623 30.371C12.1935 29.9502 13.2856 28.527 13.2856 26.9012H18.723Z" stroke="white" mask="url(#path-1-inside-1_149_26)"/>
<path d="M3.2422 38.0959C4.00645 38.0271 4.77913 38.0278 5.53949 38.1367C6.00815 38.2197 6.50533 38.3409 6.85731 38.6825C7.22615 39.0941 7.3169 39.6658 7.39793 40.1928C7.53081 41.2864 7.51525 42.3955 7.39793 43.4897C7.31949 44.0238 7.24235 44.6007 6.89232 45.035C6.51052 45.4227 5.94657 45.5329 5.42929 45.6145C4.66569 45.7098 3.89107 45.7319 3.12423 45.6554C2.60501 45.6022 2.0631 45.5108 1.62101 45.2146C1.33515 45.0331 1.18152 44.7129 1.07716 44.4024C0.867784 43.7554 0.841207 43.0683 0.812686 42.3942C0.809444 41.5035 0.826298 40.6038 1.00002 39.7274C1.09401 39.3184 1.2081 38.8685 1.5536 38.5956C2.04041 38.2424 2.65946 38.1568 3.2422 38.0959ZM3.36861 39.3165C3.04709 39.3651 2.64649 39.3916 2.45268 39.6911C2.28349 40.1377 2.28932 40.6252 2.25497 41.0952C2.23876 41.9333 2.19663 42.7792 2.32627 43.6109C2.37424 43.8916 2.47277 44.2261 2.78456 44.3084C3.46065 44.5152 4.18406 44.4802 4.8809 44.4406C5.22834 44.3875 5.68923 44.3576 5.85841 43.994C6.05223 43.4404 6.03862 42.8428 6.0626 42.2645C6.05482 41.4517 6.1002 40.6233 5.90573 39.8279C5.85906 39.5453 5.56606 39.4247 5.3178 39.3748C4.67736 39.249 4.01618 39.2646 3.36861 39.3165ZM10.1969 40.6291C10.6611 40.3342 11.2373 40.2862 11.7727 40.3348C12.2725 40.3776 12.8274 40.5474 13.0951 41.0076C13.4147 41.5852 13.4328 42.2678 13.4549 42.9121C13.4406 43.5746 13.4283 44.2662 13.1547 44.882C12.9985 45.2561 12.6394 45.5011 12.255 45.5977C11.6664 45.7422 11.0195 45.7578 10.4523 45.5231C10.1457 45.4032 9.93375 45.1426 9.75809 44.8756V47.9034H8.46165C8.4623 45.3974 8.46036 42.8907 8.4623 40.3847C8.8817 40.3828 9.30109 40.3828 9.71984 40.3847C9.70558 40.6427 9.69132 40.9 9.68419 41.1587C9.83976 40.9688 9.98431 40.76 10.1969 40.6291ZM10.6189 41.3058C10.3104 41.3298 9.97459 41.4828 9.88708 41.8056C9.72179 42.3747 9.75096 42.9776 9.77494 43.5636C9.81513 43.9454 9.86245 44.4374 10.2689 44.6085C10.7058 44.7777 11.2101 44.7686 11.6522 44.6241C12.0346 44.4892 12.0904 44.0394 12.1306 43.6919C12.1708 43.1163 12.185 42.529 12.0722 41.9605C12.034 41.7401 11.9205 41.5126 11.7053 41.4199C11.3657 41.2702 10.9819 41.278 10.6189 41.3058ZM15.0061 40.6388C15.6433 40.3115 16.3894 40.2998 17.0888 40.3329C17.6709 40.3815 18.3774 40.4787 18.6983 41.0355C19.06 41.7077 19.001 42.4985 19.0516 43.2362H15.5052C15.5467 43.6167 15.4974 44.027 15.6893 44.3758C15.8533 44.6513 16.2014 44.7077 16.4957 44.7239C16.8593 44.7265 17.2508 44.7563 17.586 44.5871C17.7778 44.4367 17.7791 44.1697 17.8038 43.9493C18.2186 43.9486 18.6335 43.9486 19.0483 43.9493C19.0328 44.3823 18.977 44.8671 18.6296 45.1718C18.1078 45.6398 17.361 45.6884 16.6934 45.7014C16.1041 45.6839 15.4818 45.6541 14.9542 45.3637C14.527 45.1115 14.3909 44.5936 14.3157 44.1372C14.2204 43.4592 14.1964 42.7682 14.2775 42.0876C14.3436 41.5502 14.4881 40.9182 15.0061 40.6388ZM15.7638 41.464C15.4929 41.711 15.5194 42.1206 15.5078 42.4564C16.2701 42.4603 17.0324 42.4584 17.7953 42.4571C17.794 42.155 17.8232 41.8257 17.6599 41.5567C17.4997 41.3389 17.1996 41.3246 16.9533 41.298C16.5559 41.2922 16.1177 41.2488 15.7638 41.464ZM21.8123 40.6356C22.2609 40.3244 22.8404 40.281 23.3681 40.3419C23.8173 40.3893 24.2931 40.5604 24.5582 40.948C24.7935 41.2695 24.859 41.6792 24.8622 42.0688C24.8603 43.2576 24.8628 44.4458 24.8616 45.6346C24.4506 45.6353 24.0403 45.6353 23.6306 45.6346C23.6286 44.51 23.6319 43.386 23.6286 42.262C23.6163 42.0163 23.6261 41.7324 23.4413 41.5431C23.2443 41.3298 22.935 41.2883 22.6596 41.2903C22.3264 41.2883 21.966 41.3454 21.7093 41.5755C21.4584 41.7894 21.3631 42.1343 21.3618 42.4532C21.3599 43.5137 21.3625 44.5741 21.3605 45.634C20.9502 45.6353 20.5399 45.6353 20.1302 45.6346C20.1296 43.8844 20.1296 42.1343 20.1302 40.3841C20.5334 40.3828 20.9372 40.3834 21.3404 40.3841C21.3385 40.6913 21.308 40.9966 21.2989 41.3039C21.4312 41.0556 21.5699 40.7937 21.8123 40.6356ZM27.0908 38.3357C27.7701 38.1075 28.4942 38.0751 29.2046 38.0498C29.893 38.0531 30.6125 38.0596 31.2556 38.337C31.5823 38.4731 31.8085 38.7713 31.9187 39.1006C32.0983 39.5926 32.1034 40.1254 32.1073 40.6433C31.6335 40.6433 31.1596 40.6446 30.6864 40.6427C30.6787 40.2784 30.7065 39.87 30.4809 39.5602C30.2528 39.3268 29.8963 39.3275 29.5935 39.2918C28.9777 39.2801 28.3366 39.2406 27.7468 39.4532C27.5342 39.5206 27.424 39.7333 27.3812 39.9381C27.26 40.4878 27.2593 41.055 27.26 41.6157C27.2671 42.365 27.2554 43.1254 27.4155 43.8624C27.4577 44.1321 27.7059 44.298 27.9548 44.3576C28.5305 44.5009 29.1314 44.4801 29.7193 44.4451C30.0259 44.405 30.3993 44.3849 30.5918 44.1035C30.7973 43.7678 30.7629 43.3548 30.7519 42.9776C31.2303 42.9756 31.708 42.9763 32.1864 42.9776C32.1806 43.5733 32.1702 44.1885 31.9537 44.7524C31.8422 45.0473 31.6121 45.2976 31.3139 45.4103C30.7286 45.645 30.0868 45.6599 29.4658 45.6975C28.7457 45.7098 28.0164 45.6923 27.3125 45.5244C26.8995 45.4168 26.4484 45.2275 26.2572 44.8172C26.0128 44.2747 25.9681 43.6712 25.9052 43.0871C25.8527 42.3158 25.819 41.5431 25.8378 40.7704C25.8747 40.1449 25.9318 39.4856 26.2695 38.9405C26.449 38.6371 26.7641 38.4472 27.0908 38.3357ZM32.4198 38.1172C32.9137 38.1179 33.4077 38.1036 33.9009 38.1244C34.3813 39.6483 34.9089 41.1567 35.3938 42.6788C35.5824 43.2634 35.716 43.865 35.9111 44.4477C36.1295 43.819 36.2695 43.1656 36.4834 42.5355C36.9573 41.0634 37.4441 39.5958 37.9173 38.1237C38.4048 38.103 38.8935 38.1211 39.3816 38.1147V38.2761C38.5791 40.7218 37.7954 43.174 37.0091 45.6256C36.2754 45.6405 35.5403 45.6424 34.8065 45.6243C34.0248 43.1176 33.2054 40.6226 32.4198 38.1172Z" stroke="white" mask="url(#path-1-inside-1_149_26)"/>
</svg>
