<svg width="66" height="66" viewBox="0 0 66 66" fill="none" xmlns="http://www.w3.org/2000/svg">
<path d="M54.957 0.0644531H11.043C5.00479 0.0644531 0.0644531 5.00479 0.0644531 11.043V54.9571C0.0644531 60.9953 5.00479 65.9357 11.043 65.9357H54.9571C60.9953 65.9357 65.9357 60.9953 65.9357 54.9571V11.043C65.9355 5.00479 60.9952 0.0644531 54.957 0.0644531ZM31.6244 33.5832C29.3382 35.8695 25.7449 36.9431 21.6854 36.9431C20.6121 36.9431 19.6323 36.8961 18.8855 36.7561V48.6084H13.1932V17.578C15.2463 17.2049 18.0928 16.9246 21.9652 16.9246C26.1653 16.9246 29.245 17.8112 31.2515 19.4913C33.1181 21.0313 34.3311 23.5043 34.3311 26.444C34.331 29.4305 33.3978 31.9033 31.6244 33.5832ZM43.5679 49.0754C40.8147 49.0754 38.3417 48.422 36.6618 47.4885L37.7816 43.3357C39.0881 44.129 41.5614 44.9691 43.6145 44.9691C46.134 44.9691 47.2543 43.9425 47.2543 42.4491C47.2543 40.9096 46.3212 40.116 43.5212 39.1362C39.088 37.5962 37.2221 35.1699 37.2686 32.51C37.2686 28.497 40.5815 25.3708 45.8543 25.3708C48.3743 25.3708 50.5673 26.0242 51.8736 26.7238L50.7537 30.7835C49.7738 30.2237 47.9538 29.477 45.9475 29.477C43.8943 29.477 42.7744 30.4569 42.7744 31.8566C42.7744 33.3034 43.8477 34.0035 46.7409 35.03C50.8471 36.523 52.7603 38.6228 52.807 41.9828C52.8068 46.089 49.5874 49.0754 43.5679 49.0754ZM28.5914 26.6771C28.5914 30.3636 25.9781 32.4634 21.6854 32.4634C20.5189 32.4634 19.5856 32.4167 18.8855 32.2302V21.591C19.4924 21.4512 20.6122 21.3112 22.1989 21.3112C26.1653 21.3112 28.5914 23.1777 28.5914 26.6771Z" stroke="white"/>
</svg>
