<svg width="68" height="68" viewBox="0 0 68 68" fill="none" xmlns="http://www.w3.org/2000/svg">
<path d="M18.5001 36.5V67H56C63.6 67 66.5 59.6667 67 56V11C67 3.4 60 1.16667 56.5 1H11C3.4 1 1.16667 7.66667 1 11V57.5C1 64.7 7.33337 66.8333 10.5001 67V52C9.30005 35.6 13.6667 25.4999 16.0001 22.4999C25.2001 10.8999 38.1667 10.6666 43.5001 11.9999C61.5001 20.3999 58.0001 34.8332 54.0001 40.9999C40.0001 55.7999 30.5001 48.4999 27.5001 42.9999C23.1001 30.1999 33.0001 26.6666 38.5001 26.4999C43.7001 31.2999 39.6667 33.8332 37.0001 34.4999C30.6001 38.4999 35.0001 41.1666 38.0001 41.9999C43.2001 41.1999 45.8334 38.6666 46.5001 37.4999C52.5001 25.0999 43.3334 20 38.0001 19C23.6001 18.6 19.0001 30.5 18.5001 36.5Z" stroke="white"/>
</svg>
