<svg width="59" height="60" viewBox="0 0 59 60" fill="none" xmlns="http://www.w3.org/2000/svg">
<path d="M21.3525 4.6415C21.7553 4.6412 22.1541 4.72061 22.5262 4.87515C22.8984 5.02975 23.2365 5.25646 23.5211 5.54223C23.8057 5.82799 24.0313 6.16719 24.1851 6.54036C24.3388 6.91339 24.4177 7.31311 24.4174 7.71668M21.3525 4.6415C20.9498 4.6412 20.5509 4.72061 20.1789 4.87515C19.8066 5.02975 19.4686 5.25646 19.184 5.54223C18.8993 5.82799 18.6737 6.16718 18.52 6.54036C18.3663 6.91339 18.2874 7.31311 18.2877 7.71668M21.3525 4.6415C21.3527 4.6415 21.3528 4.6415 21.353 4.6415L21.3525 5.1415L21.3521 4.6415C21.3522 4.6415 21.3524 4.6415 21.3525 4.6415ZM24.4174 7.71668C24.4177 8.12025 24.3388 8.51997 24.1851 8.893C24.0313 9.26617 23.8057 9.60536 23.5211 9.89112C23.2365 10.1769 22.8984 10.4036 22.5262 10.5582C22.1541 10.7127 21.7553 10.7922 21.3525 10.7919M24.4174 7.71668C24.4174 7.71653 24.4174 7.71638 24.4174 7.71623L23.9174 7.71668L24.4174 7.71713C24.4174 7.71698 24.4174 7.71683 24.4174 7.71668ZM21.3525 10.7919C20.9498 10.7922 20.5509 10.7127 20.1789 10.5582C19.8066 10.4036 19.4686 10.1769 19.184 9.89112C18.8993 9.60536 18.6737 9.26617 18.52 8.89299C18.3663 8.51997 18.2874 8.12025 18.2877 7.71668M21.3525 10.7919C21.3527 10.7919 21.3528 10.7919 21.353 10.7919L21.3525 10.2919L21.3521 10.7919C21.3522 10.7919 21.3524 10.7919 21.3525 10.7919ZM18.2877 7.71668C18.2877 7.71683 18.2877 7.71698 18.2877 7.71713L18.7877 7.71668L18.2877 7.71623C18.2877 7.71638 18.2877 7.71653 18.2877 7.71668ZM37.4997 55.3588C37.097 55.3591 36.6981 55.2797 36.326 55.1252C35.9538 54.9706 35.6158 54.7439 35.3312 54.4581C35.0465 54.1723 34.8209 53.8331 34.6672 53.46C34.5135 53.087 34.4346 52.6872 34.4349 52.2837M37.4997 55.3588C37.9027 55.3591 38.3015 55.2794 38.6734 55.125C39.0456 54.9704 39.3837 54.7436 39.6683 54.4579C39.9529 54.1721 40.1785 53.8329 40.3323 53.4597C40.486 53.0867 40.5649 52.687 40.5646 52.2834M37.4997 55.3588C37.4996 55.3588 37.4994 55.3588 37.4993 55.3588L37.4997 54.8588L37.5002 55.3588C37.5 55.3588 37.4999 55.3588 37.4997 55.3588ZM34.4349 52.2837C34.4345 51.8801 34.5134 51.4804 34.6671 51.1073C34.8208 50.7341 35.0464 50.3949 35.3311 50.1091C35.6157 49.8233 35.9538 49.5965 36.326 49.4419C36.6981 49.2874 37.0969 49.2079 37.4997 49.2082M34.4349 52.2837C34.4349 52.2838 34.4349 52.284 34.4349 52.2841L34.9349 52.2837L34.4349 52.2832C34.4349 52.2834 34.4349 52.2835 34.4349 52.2837ZM37.4997 49.2082C37.9025 49.2079 38.3013 49.2874 38.6734 49.4419C39.0456 49.5965 39.3837 49.8232 39.6683 50.109C39.9529 50.3947 40.1785 50.7339 40.3323 51.1071C40.486 51.4801 40.5649 51.8799 40.5646 52.2834M37.4997 49.2082C37.4996 49.2082 37.4994 49.2082 37.4993 49.2082L37.4997 49.7082L37.5002 49.2082C37.5 49.2082 37.4999 49.2082 37.4997 49.2082ZM40.5646 52.2834C40.5646 52.2833 40.5646 52.2831 40.5646 52.283L40.0646 52.2834L40.5646 52.2839C40.5646 52.2837 40.5646 52.2836 40.5646 52.2834ZM15.7065 7.11318L15.7064 7.07813L15.7019 7.0468L15.7015 7.04287C15.7008 7.03683 15.6997 7.02508 15.6986 7.00801C15.6963 6.97385 15.694 6.91858 15.6955 6.84522C15.6985 6.6984 15.7168 6.48027 15.7805 6.21441C15.9068 5.68653 16.2146 4.95832 16.9603 4.21632C18.4571 2.72691 21.7976 1.10938 29.214 1.10938C36.9513 1.10938 40.3759 3.05343 41.8901 4.85285C42.6499 5.75569 42.9554 6.6512 43.0734 7.31456C43.1326 7.64723 43.1447 7.92195 43.1425 8.10961C43.1414 8.20334 43.1367 8.27497 43.1327 8.32078C43.1307 8.34368 43.1289 8.36008 43.1277 8.36952L43.1269 8.37641L43.1268 8.37726L43.1267 8.37794L43.1266 8.37838C43.1265 8.37897 43.1265 8.3791 43.1266 8.37878L43.1211 8.41421V8.45244V21.4121C43.1211 23.2828 42.6486 24.6435 41.9669 25.6412C41.2829 26.6424 40.3666 27.3094 39.4335 27.7546C38.4984 28.2007 37.5569 28.4187 36.8445 28.5243C36.4895 28.5769 36.1948 28.6011 35.9907 28.6121C35.8888 28.6177 35.8097 28.6199 35.7573 28.6208C35.7312 28.6212 35.7117 28.6213 35.6994 28.6213L35.6864 28.6213L35.6845 28.6212V28.6212H35.6764H21.5357C19.3297 28.6212 17.6564 29.1674 16.3962 30.0154C15.1386 30.8616 14.3243 31.9866 13.7984 33.096C13.2736 34.2031 13.0315 35.3035 12.9196 36.1224C12.8635 36.5331 12.8396 36.8765 12.8299 37.1191C12.825 37.2405 12.8236 37.3369 12.8235 37.4042C12.8234 37.4379 12.8237 37.4644 12.824 37.483L12.8244 37.5051L12.8245 37.5058V44.0227H8.34449H8.32842L8.31442 44.0236L8.31378 44.0237L8.31351 44.0237L8.31318 44.0237L8.31239 44.0238L8.30303 44.0241C8.29226 44.0245 8.27403 44.025 8.24884 44.0251C8.19845 44.0253 8.12033 44.0239 8.01848 44.0173C7.81461 44.004 7.51681 43.9695 7.15642 43.8837C6.43656 43.7124 5.46794 43.3371 4.49442 42.5168C2.55991 40.8868 0.5 37.404 0.5 29.9238C0.5 22.4648 2.84929 19.1373 5.06067 17.6387C6.18008 16.8801 7.29996 16.5641 8.14069 16.438C8.56074 16.375 8.90897 16.3598 9.14914 16.36C9.26911 16.3601 9.36175 16.364 9.42247 16.3677C9.45282 16.3696 9.47516 16.3714 9.48891 16.3726L9.50301 16.3739L9.50376 16.374L9.50441 16.3741L9.50485 16.3741L9.50508 16.3741L9.53195 16.3772H9.56033H29.4804H29.9804V15.8772V13.8538V13.3538H29.4804H15.7219L15.7065 7.11318ZM43.1458 52.8867L43.1458 52.9217L43.1502 52.9523L43.1503 52.9531L43.1504 52.9532L43.1505 52.9545L43.1508 52.957C43.1511 52.9599 43.1515 52.9642 43.152 52.9697C43.1525 52.9757 43.1531 52.9831 43.1537 52.9919C43.156 53.026 43.1583 53.0813 43.1568 53.1546C43.1537 53.3015 43.1354 53.5196 43.0718 53.7855C42.9454 54.3133 42.6376 55.0416 41.892 55.7835C40.3952 57.273 37.0546 58.8905 29.6383 58.8905C21.9011 58.8905 18.4765 56.9465 16.9621 55.1471C16.2023 54.2443 15.8968 53.3488 15.7787 52.6855C15.7195 52.3528 15.7074 52.0781 15.7096 51.8905C15.7107 51.7967 15.7153 51.7251 15.7193 51.6793C15.7201 51.6704 15.7208 51.6625 15.7215 51.6557C15.7226 51.6447 15.7236 51.6363 15.7243 51.6306L15.7251 51.6237L15.7253 51.6228L15.7254 51.6221L15.7254 51.6217L15.7255 51.6213L15.7309 51.5859V51.5477V38.5878C15.7309 36.717 16.2034 35.3563 16.8851 34.3585C17.5692 33.3573 18.4854 32.6903 19.4186 32.2451C20.3536 31.799 21.2952 31.581 22.0076 31.4754C22.3625 31.4228 22.6572 31.3986 22.8613 31.3875C22.9633 31.382 23.0423 31.3797 23.0947 31.3789C23.1209 31.3784 23.1404 31.3783 23.1527 31.3783L23.1656 31.3784L23.1675 31.3784L23.1675 31.3785H23.1756H37.3163C39.5223 31.3785 41.1956 30.8322 42.4558 29.9842C43.7134 29.1381 44.5278 28.013 45.0537 26.9036C45.5784 25.7966 45.8205 24.6961 45.9324 23.8772C45.9886 23.4665 46.0124 23.1232 46.0222 22.8806C46.027 22.7592 46.0284 22.6627 46.0285 22.5954C46.0286 22.5617 46.0283 22.5353 46.028 22.5166L46.0276 22.4945L46.0276 22.4938V15.9771H50.5075H50.5236L50.5376 15.9762L50.5383 15.9762L50.5385 15.9762L50.5389 15.9762L50.5396 15.9761L50.549 15.9758C50.5598 15.9754 50.578 15.9749 50.6032 15.9748C50.6536 15.9746 50.7317 15.9759 50.8335 15.9826C51.0374 15.9959 51.3352 16.0304 51.6956 16.1162C52.4155 16.2875 53.3841 16.6628 54.3576 17.483C56.2921 19.113 58.352 22.5958 58.352 30.0758C58.352 37.5351 56.0027 40.8627 53.7914 42.3614C52.6719 43.12 51.5521 43.4359 50.7113 43.562C50.2913 43.6251 49.9431 43.6403 49.7029 43.6401C49.5829 43.64 49.4903 43.6361 49.4296 43.6324C49.3992 43.6305 49.3769 43.6287 49.3631 43.6275L49.349 43.6262L49.3483 43.6261L49.3476 43.6261L49.3472 43.626L49.347 43.626L49.3201 43.6229H49.2917H29.3716H28.8716V44.1229V46.1463V46.6463H29.3716H43.1304L43.1458 52.8867Z" stroke="white"/>
</svg>
