<svg width="27" height="32" viewBox="0 0 27 32" fill="none" xmlns="http://www.w3.org/2000/svg">
<path d="M7.8416 0.000354493C7.68018 0.00534484 7.50635 0.0651312 7.30908 0.221006C6.82617 0.0344063 6.35762 -0.0304683 5.93877 0.349483C5.29199 0.26543 5.08184 0.438918 4.92256 0.641468C4.78057 0.638532 3.86016 0.495182 3.43799 1.12612C2.37725 1.00038 2.04199 1.75128 2.42188 2.45159C2.20518 2.78761 1.98066 3.11962 2.4873 3.76034C2.30811 4.1171 2.41924 4.50419 2.84141 4.9726C2.73008 5.47428 2.94902 5.8281 3.34189 6.10394C3.26836 6.79036 3.97012 7.18949 4.17959 7.33167C4.26006 7.73158 4.42773 8.10909 5.2292 8.3177C5.36143 8.9138 5.84307 9.01674 6.30957 9.1418C4.76787 10.0398 3.4458 11.2211 3.45479 14.1199L3.22891 14.5235C1.46113 15.6007 -0.129297 19.0628 2.35781 21.8768C2.52022 22.7576 2.79268 23.3903 3.03525 24.0905C3.39805 26.9121 5.76592 28.2334 6.39053 28.3897C7.30566 29.0881 8.28037 29.7509 9.59951 30.2152C10.8428 31.5 12.1898 31.9898 13.5442 31.989C13.5642 31.989 16.3057 31.5001 17.5491 30.2152C18.8681 29.7509 19.8428 29.0881 20.7581 28.3897C21.3825 28.2334 23.7504 26.9121 24.1132 24.0905C24.3558 23.3903 24.6282 22.7576 24.7907 21.8768C27.2776 19.0625 25.6873 15.6003 23.9196 14.5232L23.6934 14.1195C23.7023 11.221 22.3803 10.0396 20.8386 9.1414C21.305 9.01635 21.7868 8.91341 21.9188 8.31731C22.7203 8.1086 22.8881 7.73119 22.9685 7.33128C23.178 7.1891 23.8797 6.78997 23.8063 6.10355C24.199 5.82771 24.4181 5.47379 24.3066 4.97221C24.7289 4.5038 24.8399 4.11671 24.6607 3.75985C25.1676 3.11952 24.9427 2.78751 24.7263 2.4515C25.106 1.75118 24.7709 1.00019 23.7098 1.12602C23.2879 0.495084 22.3676 0.638336 22.2252 0.641272C22.066 0.43882 21.8559 0.265332 21.2091 0.349385C20.7902 -0.0305661 20.3219 0.0342106 19.8388 0.220908C19.2651 -0.232626 18.8856 0.130886 18.4521 0.268366C17.7575 0.0409622 17.5986 0.352419 17.2574 0.47933C16.5 0.318954 16.2698 0.668083 15.9068 1.03659L15.4844 1.02817C14.342 1.70275 13.7744 3.07637 13.5732 3.78255C13.3721 3.07627 12.8058 1.70265 11.6636 1.02817L11.2412 1.03659C10.8776 0.668083 10.6476 0.318954 9.89014 0.47933C9.54883 0.352419 9.39062 0.0409622 8.69551 0.268366C8.41094 0.178148 8.14971 -0.00923481 7.8416 0.000354493L0 13.7967Z" fill="white"/>
<path d="M5.56719 2.96805C8.59805 4.53374 10.3601 5.80032 11.3254 6.87901C10.8311 8.86429 8.25215 8.9549 7.30918 8.89922C7.50225 8.8092 7.66338 8.70127 7.72051 8.53561C7.48389 8.36712 6.64492 8.51781 6.05918 8.18815C6.28418 8.14138 6.38945 8.09588 6.49463 7.92953C5.94131 7.75272 5.34521 7.60027 4.99463 7.3073C5.18379 7.30965 5.36045 7.34977 5.60752 7.17804C5.11191 6.91042 4.58301 6.69828 4.17207 6.28917C4.42832 6.28291 4.70459 6.28663 4.78496 6.1922C4.33135 5.91059 3.94854 5.59747 3.63174 5.2549C3.99033 5.29825 4.1418 5.26097 4.22852 5.19834C3.88555 4.84638 3.45156 4.54921 3.24463 4.11553C3.51084 4.20751 3.75449 4.24274 3.93008 4.10751C3.81357 3.8441 3.31436 3.68871 3.02686 3.07314C3.30723 3.10044 3.60449 3.13439 3.66396 3.07314C3.53389 2.54201 3.31064 2.24337 3.0917 1.93397C3.6916 1.92506 4.60059 1.93632 4.55947 1.88553L4.18848 1.50578C4.77451 1.34765 5.37412 1.53112 5.80947 1.66733C6.00488 1.51282 5.80596 1.31742 5.56748 1.1179C6.06553 1.18454 6.51553 1.29922 6.92236 1.45724C7.13965 1.26066 6.78125 1.06398 6.60781 0.867403C7.37725 1.01359 7.70322 1.21917 8.02715 1.42495C8.26221 1.19921 8.04062 1.00733 7.88203 0.810846C8.46221 1.02612 8.76103 1.30411 9.07559 1.57848C9.18223 1.43425 9.34658 1.32847 9.14814 0.980518C9.56006 1.21839 9.87031 1.49873 10.0998 1.81283C10.3547 1.6502 10.2517 1.42789 10.253 1.22289C10.6812 1.57183 10.9528 1.94317 11.2854 2.3057C11.3523 2.25678 11.4109 2.09112 11.4628 1.82898C12.484 2.82166 13.9271 5.32222 11.8337 6.31364C10.0521 4.84139 7.9251 3.77081 5.56719 2.96805ZM21.649 2.96805C18.6186 4.53394 16.8565 5.80012 15.8913 6.87901C16.3856 8.86429 18.9645 8.9549 19.9074 8.89922C19.7144 8.8092 19.5532 8.70127 19.4962 8.53561C19.7328 8.36712 20.5718 8.51781 21.1574 8.18815C20.9324 8.14138 20.8272 8.09588 20.722 7.92953C21.2754 7.75272 21.8715 7.60027 22.222 7.3073C22.0328 7.30965 21.8562 7.34977 21.6091 7.17804C22.1048 6.91042 22.6337 6.69828 23.0446 6.28917C22.7883 6.28291 22.512 6.28663 22.4317 6.1922C22.8854 5.91059 23.2682 5.59747 23.585 5.2549C23.2263 5.29825 23.0749 5.26097 22.9882 5.19834C23.3311 4.84638 23.7651 4.54921 23.9721 4.11553C23.7058 4.20751 23.4621 4.24274 23.2865 4.10751C23.403 3.8441 23.9023 3.68871 24.1897 3.07314C23.9095 3.10044 23.6121 3.13439 23.5526 3.07314C23.683 2.54181 23.9063 2.24317 24.1252 1.93377C23.5253 1.92487 22.6163 1.93612 22.6574 1.88534L23.0284 1.50548C22.4424 1.34746 21.8428 1.53092 21.4074 1.66713C21.212 1.51263 21.4108 1.31722 21.6493 1.1177C21.1514 1.18424 20.7013 1.29902 20.2945 1.45705C20.0771 1.26047 20.4356 1.06379 20.6091 0.867208C19.8396 1.0134 19.5137 1.21898 19.1896 1.42476C18.9546 1.19902 19.1763 1.00713 19.3349 0.81065C18.7547 1.02592 18.4559 1.30391 18.1413 1.57828C18.0346 1.43405 17.8703 1.32828 18.0687 0.980322C17.6568 1.2182 17.3466 1.49854 17.1171 1.81263C16.8622 1.65001 16.9652 1.42759 16.9639 1.2227C16.5357 1.57163 16.2641 1.94287 15.9315 2.3055C15.8646 2.25658 15.806 2.09092 15.7541 1.82868C14.7329 2.82147 13.2898 5.32202 15.3832 6.31344C17.1638 4.8408 19.291 3.77081 21.649 2.96805Z" fill="#1E1E1E"/>
<path d="M17.2786 23.1838C17.2892 25.0364 15.6723 26.5461 13.6673 26.5558C11.6622 26.5656 10.0282 25.0717 10.0177 23.2191C10.0176 23.2073 10.0176 23.1955 10.0177 23.1838C10.0071 21.3313 11.6239 19.8215 13.629 19.8118C15.6341 19.802 17.268 21.2958 17.2786 23.1484V23.1838ZM11.5475 13.6014C13.0518 14.589 13.3229 16.8274 12.1531 18.6011C10.9833 20.3748 8.81553 21.0122 7.31123 20.0247C5.80693 19.0371 5.53584 16.7987 6.70557 15.025C7.87539 13.2513 10.0432 12.6139 11.5475 13.6014ZM15.6076 13.4226C14.1034 14.4101 13.8322 16.6487 15.002 18.4223C16.1718 20.196 18.3396 20.8334 19.8438 19.8458C21.3481 18.8583 21.6193 16.6199 20.4495 14.8462C19.2798 13.0725 17.112 12.4351 15.6076 13.4226ZM4.0291 15.2159C5.65322 14.7797 4.57744 21.9483 3.25596 21.3601C1.80234 20.1887 1.33418 16.7579 4.0291 15.2159ZM22.7981 15.1266C21.1738 14.6905 22.2498 21.8594 23.5713 21.2712C25.0249 20.0996 25.4931 16.6685 22.7981 15.1266ZM17.2799 9.78819C20.0827 9.31401 22.4149 10.9825 22.3208 14.0278C22.2286 15.1954 16.2473 9.96207 17.2799 9.78819ZM9.53574 9.69885C6.73272 9.22458 4.40068 10.8935 4.49482 13.9386C4.58701 15.106 10.5685 9.87273 9.53574 9.69885ZM13.5619 8.98866C11.8891 8.94502 10.2836 10.2326 10.2797 10.9795C10.2751 11.887 11.6023 12.8162 13.5733 12.8397C15.586 12.8541 16.8704 12.096 16.8769 11.1595C16.8843 10.0984 15.0463 8.97232 13.5619 8.98866ZM13.6641 27.5978C15.1226 27.534 17.0796 28.0684 17.0835 28.7776C17.1077 29.466 15.3086 31.0216 13.5674 30.9916C11.7641 31.0696 9.9958 29.5115 10.0189 28.9715C9.9919 28.1797 12.2146 27.5615 13.6641 27.5978ZM8.27695 23.3956C9.31533 24.6491 9.78877 26.8513 8.92217 27.5005C8.10234 27.9961 6.11143 27.792 4.69639 25.7551C3.74199 24.0458 3.86494 22.3065 4.53506 21.7956C5.53711 21.184 7.08525 22.0101 8.27695 23.3956ZM18.8434 22.9982C17.7198 24.3168 17.0942 26.7217 17.9138 27.4963C18.6975 28.0981 20.8012 28.0139 22.3551 25.8535C23.4834 24.4025 23.1054 21.9792 22.4608 21.3358C21.5034 20.5938 20.1289 21.5438 18.8434 22.9982Z" fill="#1E1E1E"/>
</svg>
