<svg width="55" height="74" viewBox="0 0 55 74" fill="none" xmlns="http://www.w3.org/2000/svg">
<mask id="path-1-inside-1_149_7" fill="white">
<path d="M16.6355 0.489026C16.5766 0.50597 16.516 0.524674 16.4535 0.545232C16.2484 0.479781 16.3777 0.470165 16.6355 0.489026Z"/>
<path d="M9.07069 6.95698C16.2235 10.6755 20.3819 13.6836 22.6601 16.2455C21.4934 20.9606 15.4072 21.1758 13.1818 21.0435C13.6374 20.8297 14.0177 20.5734 14.1525 20.18C13.5941 19.7798 11.6141 20.1377 10.2318 19.3547C10.7628 19.2436 11.0112 19.1356 11.2595 18.7405C9.95362 18.3206 8.54684 17.9585 7.71945 17.2627C8.16587 17.2683 8.58279 17.3636 9.16587 16.9557C7.99625 16.3201 6.74803 15.8163 5.77821 14.8447C6.38296 14.8298 7.03496 14.8386 7.22464 14.6144C6.15411 13.9455 5.25067 13.2019 4.50303 12.3883C5.34931 12.4912 5.70677 12.4027 5.91143 12.2539C5.10202 11.418 4.07782 10.7122 3.58945 9.68226C4.21771 9.90071 4.79273 9.98437 5.20711 9.6632C4.93216 9.0376 3.75401 8.66856 3.07551 7.20657C3.73718 7.27141 4.43873 7.35205 4.57909 7.20657C4.2721 5.94513 3.74525 5.23587 3.22854 4.50104C4.64431 4.47989 6.78951 4.50662 6.69248 4.386L5.81693 3.48408C7.19998 3.10854 8.61505 3.54427 9.64248 3.86777C10.1037 3.50082 9.63419 3.03673 9.07138 2.56287C10.2468 2.72113 11.3088 2.9935 12.2689 3.36882C12.7817 2.90194 11.9359 2.43483 11.5266 1.96795C13.3424 2.31514 14.1117 2.8034 14.8762 3.29213C15.4309 2.75599 14.908 2.30027 14.5337 1.83362C15.9029 2.34489 16.6082 3.00512 17.3505 3.65675C17.6022 3.3142 17.9901 3.06299 17.5217 2.23659C18.4939 2.80154 19.2261 3.46735 19.7677 4.21334C20.3692 3.8271 20.126 3.2991 20.1293 2.81223C21.1396 3.64095 21.7808 4.52288 22.5656 5.3839C22.7237 5.26771 22.8619 4.87426 22.9843 4.25168C25.3943 6.60932 28.8 12.5481 23.8596 14.9028C19.6552 11.4062 14.6337 8.86446 9.06908 6.9579L9.07069 6.95698ZM47.0238 6.95698C39.8719 10.676 35.7136 13.6832 33.4356 16.2455C34.6023 20.9606 40.6882 21.1758 42.9136 21.0435C42.458 20.8297 42.0777 20.5734 41.9431 20.18C42.5016 19.7798 44.4815 20.1377 45.8636 19.3547C45.3326 19.2436 45.0844 19.1356 44.836 18.7405C46.142 18.3206 47.5488 17.9585 48.376 17.2627C47.9296 17.2683 47.5126 17.3636 46.9296 16.9557C48.0994 16.3201 49.3476 15.8163 50.3175 14.8447C49.7125 14.8298 49.0605 14.8386 48.871 14.6144C49.9416 13.9455 50.845 13.2019 51.5926 12.3883C50.7461 12.4912 50.3889 12.4027 50.1842 12.2539C50.9934 11.418 52.0179 10.7122 52.5062 9.68226C51.8777 9.90071 51.3027 9.98437 50.8883 9.6632C51.1633 9.0376 52.3417 8.66856 53.0199 7.20657C52.3585 7.27141 51.6567 7.35205 51.5164 7.20657C51.824 5.94467 52.3509 5.2354 52.8676 4.50057C51.4518 4.47943 49.3066 4.50615 49.4036 4.38554L50.2792 3.48339C48.8962 3.10807 47.4811 3.54381 46.4536 3.8673C45.9925 3.50035 46.4617 3.03626 47.0245 2.56241C45.8494 2.72044 44.7871 2.99304 43.8272 3.36835C43.3142 2.90147 44.1603 2.43436 44.5696 1.96748C42.7537 2.31468 41.9844 2.80294 41.2197 3.29166C40.665 2.75553 41.1881 2.2998 41.5624 1.83316C40.1932 2.34442 39.488 3.00466 38.7456 3.65629C38.4937 3.31374 38.1061 3.06252 38.5742 2.23613C37.6023 2.80108 36.8701 3.46689 36.3285 4.21287C35.7269 3.82663 35.9701 3.2984 35.9669 2.81177C34.9565 3.64048 34.3153 4.52219 33.5306 5.38344C33.3725 5.26724 33.2342 4.8738 33.1118 4.25098C30.7018 6.60885 27.2962 12.5477 32.2365 14.9023C36.4386 11.4048 41.4589 8.86353 47.0238 6.95698Z"/>
<path d="M36.7097 54.9693C36.7345 59.3692 32.9187 62.9548 28.1869 62.9778C23.4549 63.0011 19.5987 59.4531 19.5738 55.0532C19.5736 55.0252 19.5736 54.9973 19.5738 54.9693C19.549 50.5696 23.3646 46.984 28.0966 46.9608C32.8286 46.9375 36.6845 50.4855 36.7097 54.8854V54.9693ZM23.1841 32.2112C26.7343 34.5568 27.3743 39.873 24.6135 44.0854C21.8527 48.298 16.7368 49.8118 13.1866 47.4665C9.63649 45.1209 8.99671 39.8047 11.7573 35.5923C14.5181 31.3797 19.634 29.8659 23.1841 32.2112ZM32.7661 31.7866C29.2162 34.1319 28.5762 39.4484 31.3367 43.6608C34.0975 47.8734 39.2135 49.3872 42.7636 47.0416C46.3138 44.6963 46.9538 39.3801 44.193 35.1675C41.4324 30.9551 36.3165 29.4413 32.7661 31.7866ZM5.44081 36.0457C9.27373 35.0097 6.73489 52.0351 3.61619 50.6382C0.18566 47.856 -0.919208 39.708 5.44081 36.0457ZM49.7358 35.8335C45.9024 34.7977 48.4417 51.8238 51.5604 50.4269C54.9909 47.6445 56.0958 39.4956 49.7358 35.8335ZM36.7127 23.1548C43.3273 22.0286 48.8314 25.9914 48.6092 33.224C48.3917 35.9969 34.2757 23.5678 36.7127 23.1548ZM18.4365 22.9426C11.8213 21.8162 6.31774 25.7799 6.53991 33.012C6.75748 35.7847 20.8737 23.3556 18.4365 22.9426ZM27.9382 21.2559C23.9903 21.1523 20.2014 24.2103 20.1922 25.9842C20.1814 28.1394 23.3137 30.3462 27.9652 30.4022C32.7152 30.4364 35.7463 28.6358 35.7615 26.4116C35.779 23.8915 31.4414 21.2171 27.9382 21.2559ZM28.1793 65.4526C31.6214 65.3011 36.24 66.5704 36.2492 68.2545C36.3063 69.8897 32.0604 73.5843 27.9512 73.5129C23.6953 73.6981 19.5222 69.9977 19.5768 68.7151C19.513 66.8346 24.7587 65.3664 28.1793 65.4526ZM15.4657 55.4724C17.9163 58.4494 19.0336 63.6796 16.9884 65.2216C15.0537 66.3986 10.3551 65.9139 7.0156 61.0761C4.76323 57.0167 5.05339 52.8859 6.63487 51.6723C8.99971 50.2199 12.6533 52.182 15.4657 55.4724ZM40.4025 54.5287C37.7509 57.6602 36.2745 63.372 38.2086 65.2116C40.0581 66.6408 45.0229 66.4409 48.6901 61.3099C51.353 57.8638 50.4608 52.1085 48.9397 50.5803C46.6802 48.8181 43.4363 51.0744 40.4025 54.5287Z"/>
</mask>
<path d="M16.6355 0.489026L16.9121 1.45001L16.7084 -0.508308L16.6355 0.489026ZM16.4535 0.545232L16.1496 1.49792L16.4584 1.59644L16.7663 1.49508L16.4535 0.545232ZM9.07069 6.95698L9.53195 6.06971C9.22933 5.91239 8.86739 5.92015 8.5718 6.09031L9.07069 6.95698ZM22.6601 16.2455L23.6308 16.4857C23.7099 16.1657 23.6264 15.8273 23.4073 15.581L22.6601 16.2455ZM13.1818 21.0435L12.757 20.1382C12.343 20.3325 12.1135 20.7829 12.1997 21.2321C12.286 21.6812 12.6659 22.0146 13.1225 22.0418L13.1818 21.0435ZM14.1525 20.18L15.0985 20.5041C15.2417 20.0864 15.0939 19.6243 14.735 19.3671L14.1525 20.18ZM10.2318 19.3547L10.027 18.3759C9.61973 18.4611 9.30777 18.7896 9.24371 19.2008C9.17966 19.6119 9.3769 20.0198 9.73897 20.2249L10.2318 19.3547ZM11.2595 18.7405L12.1062 19.2725C12.2705 19.011 12.3047 18.6883 12.199 18.3982C12.0934 18.1081 11.8596 17.883 11.5656 17.7885L11.2595 18.7405ZM7.71945 17.2627L7.73194 16.2628C7.30949 16.2575 6.9293 16.5183 6.7821 16.9143C6.63491 17.3103 6.75248 17.7561 7.07584 18.0281L7.71945 17.2627ZM9.16587 16.9557L9.73905 17.7752C10.0229 17.5766 10.1838 17.2453 10.1643 16.8995C10.1448 16.5536 9.94771 16.2425 9.64335 16.0771L9.16587 16.9557ZM5.77821 14.8447L5.75363 13.845C5.35393 13.8548 4.9985 14.1018 4.84987 14.4729C4.70125 14.8441 4.78799 15.2681 5.07044 15.5511L5.77821 14.8447ZM7.22464 14.6144L7.98816 15.2601C8.17556 15.0386 8.25747 14.7465 8.21262 14.4598C8.16778 14.1731 8.0006 13.92 7.75449 13.7663L7.22464 14.6144ZM4.50303 12.3883L4.62379 11.3956C4.208 11.345 3.80475 11.5589 3.61344 11.9315C3.42212 12.3041 3.4833 12.7565 3.7667 13.0649L4.50303 12.3883ZM5.91143 12.2539L6.49932 13.0629C6.73367 12.8926 6.88265 12.629 6.90768 12.3404C6.93272 12.0517 6.83136 11.7664 6.62983 11.5583L5.91143 12.2539ZM3.58945 9.68226L3.91787 8.73773C3.53722 8.60537 3.11432 8.71444 2.84517 9.01439C2.57602 9.31434 2.51322 9.74655 2.68588 10.1107L3.58945 9.68226ZM5.20711 9.6632L5.81971 10.4536C6.18231 10.1726 6.30718 9.68084 6.1226 9.26085L5.20711 9.6632ZM3.07551 7.20657L3.17303 6.21133C2.81594 6.17634 2.46747 6.33534 2.25988 6.62799C2.05229 6.92064 2.01739 7.30208 2.16843 7.62754L3.07551 7.20657ZM4.57909 7.20657L5.29875 7.90089C5.53666 7.65429 5.63175 7.30305 5.55073 6.97011L4.57909 7.20657ZM3.22854 4.50104L3.2136 3.50115C2.84307 3.50668 2.50598 3.71667 2.33765 4.04681C2.16933 4.37695 2.19737 4.77311 2.41053 5.07624L3.22854 4.50104ZM6.69248 4.386L7.47166 3.75919C7.4522 3.73501 7.43162 3.71174 7.41 3.68946L6.69248 4.386ZM5.81693 3.48408L5.55488 2.51903C5.21324 2.6118 4.9461 2.87829 4.85251 3.21972C4.75892 3.56115 4.85283 3.92661 5.09942 4.18062L5.81693 3.48408ZM9.64248 3.86777L9.34216 4.8216C9.65917 4.92142 10.0051 4.85721 10.2651 4.65027L9.64248 3.86777ZM9.07138 2.56287L9.20482 1.57182C8.76405 1.51247 8.33706 1.75135 8.157 2.15802C7.97694 2.56469 8.0871 3.0414 8.42732 3.32785L9.07138 2.56287ZM12.2689 3.36882L11.9048 4.30019C12.259 4.43862 12.661 4.36423 12.9421 4.10825L12.2689 3.36882ZM11.5266 1.96795L11.7144 0.985739C11.2949 0.905546 10.8709 1.10052 10.6587 1.4711C10.4466 1.84168 10.4931 2.30608 10.7746 2.62717L11.5266 1.96795ZM14.8762 3.29213L14.3376 4.13466C14.7277 4.38411 15.2381 4.33302 15.5711 4.01119L14.8762 3.29213ZM14.5337 1.83362L14.8835 0.896802C14.4619 0.739375 13.9871 0.88297 13.7234 1.24765C13.4597 1.61232 13.4721 2.10823 13.7536 2.4593L14.5337 1.83362ZM17.3505 3.65675L16.6908 4.40828C16.9015 4.59319 17.18 4.6812 17.4587 4.65089C17.7373 4.62057 17.9904 4.47471 18.1564 4.24883L17.3505 3.65675ZM17.5217 2.23659L18.0242 1.372C17.6337 1.14506 17.1396 1.20803 16.8185 1.52565C16.4974 1.84327 16.4291 2.33669 16.6517 2.72962L17.5217 2.23659ZM19.7677 4.21334L18.9585 4.80084C19.2699 5.2298 19.8619 5.34121 20.308 5.0548L19.7677 4.21334ZM20.1293 2.81223L20.7634 2.03904C20.4655 1.79463 20.0535 1.74321 19.7046 1.90689C19.3557 2.07057 19.1318 2.4202 19.1293 2.8056L20.1293 2.81223ZM22.5656 5.3839L21.8265 6.05752C22.1711 6.43563 22.7455 6.49266 23.1578 6.18969L22.5656 5.3839ZM22.9843 4.25168L23.6836 3.53685C23.421 3.27991 23.0386 3.1877 22.6877 3.29668C22.3368 3.40566 22.074 3.69829 22.0031 4.0588L22.9843 4.25168ZM23.8596 14.9028L23.2202 15.6716C23.5201 15.921 23.9377 15.9733 24.2899 15.8055L23.8596 14.9028ZM9.06908 6.9579L8.57018 6.09124C8.23019 6.28696 8.03604 6.66339 8.07369 7.05388C8.11134 7.44436 8.37384 7.77677 8.74496 7.90392L9.06908 6.9579ZM47.0238 6.95698L47.4852 7.84419C47.9495 7.60276 48.1491 7.04418 47.943 6.56315C47.7369 6.08211 47.1948 5.84134 46.6997 6.01096L47.0238 6.95698ZM33.4356 16.2455L32.6883 15.5811C32.4693 15.8274 32.3857 16.1658 32.4649 16.4857L33.4356 16.2455ZM42.9136 21.0435L42.973 22.0418C43.4295 22.0146 43.8095 21.6812 43.8957 21.2321C43.9819 20.7829 43.7525 20.3325 43.3384 20.1382L42.9136 21.0435ZM41.9431 20.18L41.3606 19.3671C41.0019 19.6242 40.8541 20.086 40.997 20.5036L41.9431 20.18ZM45.8636 19.3547L46.3565 20.2248C46.7186 20.0197 46.9158 19.6119 46.8517 19.2007C46.7877 18.7896 46.4757 18.4611 46.0684 18.3759L45.8636 19.3547ZM44.836 18.7405L44.5299 17.7885C44.2358 17.883 44.002 18.1082 43.8963 18.3984C43.7907 18.6886 43.825 19.0114 43.9895 19.2729L44.836 18.7405ZM48.376 17.2627L49.0197 18.028C49.343 17.756 49.4605 17.3102 49.3133 16.9143C49.1661 16.5183 48.7859 16.2575 48.3635 16.2628L48.376 17.2627ZM46.9296 16.9557L46.4522 16.077C46.1478 16.2424 45.9507 16.5535 45.9311 16.8994C45.9116 17.2453 46.0725 17.5766 46.3564 17.7752L46.9296 16.9557ZM50.3175 14.8447L51.0252 15.5511C51.3077 15.2681 51.3944 14.8441 51.2458 14.4729C51.0972 14.1017 50.7417 13.8548 50.342 13.845L50.3175 14.8447ZM48.871 14.6144L48.3412 13.7663C48.0952 13.92 47.928 14.1729 47.8831 14.4595C47.8382 14.7461 47.9199 15.0381 48.1071 15.2597L48.871 14.6144ZM51.5926 12.3883L52.329 13.0649C52.6124 12.7565 52.6735 12.3041 52.4822 11.9315C52.2909 11.5589 51.8877 11.345 51.4719 11.3956L51.5926 12.3883ZM50.1842 12.2539L49.4657 11.5584C49.2643 11.7665 49.1629 12.0518 49.188 12.3404C49.213 12.629 49.362 12.8926 49.5963 13.0629L50.1842 12.2539ZM52.5062 9.68226L53.4098 10.1107C53.5824 9.74657 53.5197 9.31439 53.2505 9.01444C52.9814 8.71449 52.5585 8.60538 52.1779 8.73769L52.5062 9.68226ZM50.8883 9.6632L49.9728 9.26085C49.7883 9.68084 49.9131 10.1726 50.2757 10.4536L50.8883 9.6632ZM53.0199 7.20657L53.9271 7.62742C54.0781 7.30195 54.0431 6.92054 53.8355 6.62792C53.6279 6.33531 53.2794 6.17634 52.9224 6.21134L53.0199 7.20657ZM51.5164 7.20657L50.5448 6.96969C50.4636 7.30274 50.5587 7.65418 50.7967 7.90089L51.5164 7.20657ZM52.8676 4.50057L53.6856 5.07578C53.8988 4.77264 53.9268 4.37649 53.7585 4.04635C53.5902 3.71621 53.2531 3.50622 52.8825 3.50069L52.8676 4.50057ZM49.4036 4.38554L48.686 3.68909C48.6644 3.71134 48.6439 3.73458 48.6245 3.75873L49.4036 4.38554ZM50.2792 3.48339L50.9968 4.17983C51.2434 3.92578 51.3372 3.5603 51.2436 3.21889C51.1499 2.87747 50.8828 2.61101 50.5411 2.51829L50.2792 3.48339ZM46.4536 3.8673L45.831 4.64981C46.0911 4.85674 46.437 4.92095 46.754 4.82114L46.4536 3.8673ZM47.0245 2.56241L47.6686 3.32738C48.0088 3.04096 48.1189 2.56429 47.9389 2.15763C47.7589 1.75098 47.332 1.51206 46.8912 1.57133L47.0245 2.56241ZM43.8272 3.36835L43.1542 4.10794C43.4353 4.36382 43.8373 4.43813 44.1914 4.29969L43.8272 3.36835ZM44.5696 1.96748L45.3215 2.62671C45.603 2.30562 45.6496 1.84121 45.4374 1.47063C45.2252 1.10006 44.8012 0.905081 44.3818 0.985274L44.5696 1.96748ZM41.2197 3.29166L40.5248 4.01072C40.8577 4.33252 41.368 4.38364 41.7582 4.13427L41.2197 3.29166ZM41.5624 1.83316L42.3425 2.45884C42.6241 2.10777 42.6364 1.61186 42.3727 1.24718C42.109 0.882505 41.6342 0.73891 41.2126 0.896337L41.5624 1.83316ZM38.7456 3.65629L37.94 4.24872C38.106 4.47446 38.3591 4.6202 38.6377 4.65044C38.9162 4.68069 39.1947 4.59267 39.4053 4.40782L38.7456 3.65629ZM38.5742 2.23613L39.4443 2.72898C39.6668 2.33601 39.5984 1.84263 39.2773 1.52508C38.9562 1.20752 38.462 1.14462 38.0716 1.37158L38.5742 2.23613ZM36.3285 4.21287L35.7882 5.05434C36.2342 5.34075 36.8262 5.22933 37.1377 4.80038L36.3285 4.21287ZM35.9669 2.81177L36.9668 2.80514C36.9643 2.41973 36.7405 2.0701 36.3915 1.90643C36.0426 1.74275 35.6307 1.79416 35.3327 2.03858L35.9669 2.81177ZM33.5306 5.38344L32.9384 6.18922C33.3506 6.49223 33.9251 6.43515 34.2697 6.05695L33.5306 5.38344ZM33.1118 4.25098L34.093 4.05818C34.0222 3.69763 33.7593 3.40498 33.4084 3.29599C33.0575 3.187 32.6751 3.27922 32.4125 3.53619L33.1118 4.25098ZM32.2365 14.9023L31.8062 15.805C32.1585 15.9729 32.5763 15.9205 32.8762 15.6709L32.2365 14.9023ZM36.7097 54.9693L35.7096 54.9693L35.7097 54.9749L36.7097 54.9693ZM28.1869 62.9778L28.1821 61.9778L28.182 61.9778L28.1869 62.9778ZM19.5738 55.0532L20.5738 55.0475L20.5738 55.0449L19.5738 55.0532ZM19.5738 54.9693L20.5739 54.9775L20.5738 54.9636L19.5738 54.9693ZM28.0966 46.9608L28.0917 45.9608L28.0966 46.9608ZM36.7097 54.8854L37.7097 54.8854L37.7096 54.8797L36.7097 54.8854ZM23.1841 32.2112L23.7354 31.3769L23.7353 31.3768L23.1841 32.2112ZM24.6135 44.0854L23.7771 43.5372L23.7771 43.5372L24.6135 44.0854ZM13.1866 47.4665L12.6354 48.3008L12.6354 48.3008L13.1866 47.4665ZM11.7573 35.5923L10.9209 35.0442L10.9209 35.0442L11.7573 35.5923ZM32.7661 31.7866L32.2149 30.9522L32.2149 30.9523L32.7661 31.7866ZM31.3367 43.6608L30.5003 44.2089L30.5003 44.2089L31.3367 43.6608ZM42.7636 47.0416L42.2124 46.2073L42.2124 46.2073L42.7636 47.0416ZM44.193 35.1675L43.3566 35.7156L43.3566 35.7156L44.193 35.1675ZM5.44081 36.0457L5.17988 35.0803L5.05442 35.1142L4.9418 35.1791L5.44081 36.0457ZM3.61619 50.6382L2.98629 51.4148L3.08795 51.4973L3.2074 51.5508L3.61619 50.6382ZM49.7358 35.8335L50.2347 34.9669L50.1221 34.902L49.9966 34.8681L49.7358 35.8335ZM51.5604 50.4269L51.9692 51.3395L52.0886 51.286L52.1903 51.2036L51.5604 50.4269ZM36.7127 23.1548L36.8797 24.1408L36.8805 24.1406L36.7127 23.1548ZM48.6092 33.224L49.6062 33.3022L49.608 33.2785L49.6087 33.2547L48.6092 33.224ZM18.4365 22.9426L18.2686 23.9285L18.2694 23.9286L18.4365 22.9426ZM6.53991 33.012L5.54039 33.0427L5.54112 33.0665L5.54298 33.0903L6.53991 33.012ZM27.9382 21.2559L27.912 22.2556L27.9307 22.2561L27.9493 22.2559L27.9382 21.2559ZM20.1922 25.9842L19.1922 25.979L19.1922 25.9792L20.1922 25.9842ZM27.9652 30.4022L27.9532 31.4022L27.958 31.4022L27.9652 30.4022ZM35.7615 26.4116L34.7615 26.4046L34.7615 26.4047L35.7615 26.4116ZM28.1793 65.4526L28.1541 66.4523L28.1887 66.4531L28.2233 66.4516L28.1793 65.4526ZM36.2492 68.2545L35.2492 68.26L35.2493 68.2748L35.2498 68.2895L36.2492 68.2545ZM27.9512 73.5129L27.9685 72.5131L27.9381 72.5125L27.9077 72.5139L27.9512 73.5129ZM19.5768 68.7151L20.5759 68.7577L20.5776 68.7195L20.5763 68.6812L19.5768 68.7151ZM15.4657 55.4724L16.2378 54.8369L16.2319 54.8297L16.2259 54.8227L15.4657 55.4724ZM16.9884 65.2216L17.5082 66.0759L17.5507 66.05L17.5905 66.0201L16.9884 65.2216ZM7.0156 61.0761L6.14118 61.5613L6.16488 61.604L6.19264 61.6442L7.0156 61.0761ZM6.63487 51.6723L6.11151 50.8202L6.06727 50.8474L6.02609 50.879L6.63487 51.6723ZM40.4025 54.5287L39.6511 53.8688L39.6451 53.8756L39.6393 53.8825L40.4025 54.5287ZM38.2086 65.2116L37.5194 65.9362L37.5566 65.9715L37.5972 66.0029L38.2086 65.2116ZM48.6901 61.3099L47.8988 60.6985L47.8874 60.7133L47.8765 60.7285L48.6901 61.3099ZM48.9397 50.5803L49.6485 49.8748L49.6042 49.8304L49.5547 49.7918L48.9397 50.5803ZM16.3588 -0.471954C16.2873 -0.451376 16.2147 -0.428937 16.1408 -0.404615L16.7663 1.49508C16.8173 1.47828 16.8658 1.46332 16.9121 1.45001L16.3588 -0.471954ZM16.7575 -0.407456C16.7466 -0.410918 16.7556 -0.408513 16.7761 -0.399992C16.7775 -0.399409 16.868 -0.364363 16.9704 -0.285229C17.0153 -0.250547 17.1535 -0.139925 17.2513 0.0601661C17.3782 0.319689 17.4079 0.684189 17.2069 1.01408C17.0541 1.26492 16.8403 1.36885 16.7727 1.39955C16.684 1.43985 16.6102 1.45702 16.5778 1.46386C16.4742 1.48579 16.4044 1.47973 16.4533 1.48052C16.4721 1.48082 16.5077 1.48236 16.5625 1.48636L16.7084 -0.508308C16.6343 -0.513734 16.5571 -0.51807 16.4855 -0.519223C16.4441 -0.519891 16.3065 -0.522997 16.1639 -0.49284C16.1219 -0.483943 16.0402 -0.464383 15.9455 -0.421353C15.8719 -0.387923 15.654 -0.28092 15.499 -0.0266542C15.2959 0.306663 15.3256 0.674947 15.4545 0.938623C15.5544 1.14287 15.6966 1.25801 15.7479 1.2976C15.863 1.38654 15.9751 1.43293 16.0077 1.44649C16.0593 1.468 16.1092 1.48502 16.1496 1.49792L16.7575 -0.407456ZM8.60943 7.84424C15.7313 11.5467 19.7582 14.4871 21.9128 16.91L23.4073 15.581C21.0056 12.8801 16.7157 9.80432 9.53195 6.06971L8.60943 7.84424ZM21.6893 16.0053C21.2211 17.8977 19.7773 18.9416 18.0114 19.5104C16.2329 20.0833 14.2947 20.1079 13.2411 20.0453L13.1225 22.0418C14.2943 22.1114 16.5119 22.0946 18.6245 21.4141C20.7497 20.7296 22.9324 19.3084 23.6308 16.4857L21.6893 16.0053ZM13.6066 21.9488C14.0812 21.7261 14.8189 21.3202 15.0985 20.5041L13.2065 19.8558C13.2142 19.8334 13.2183 19.852 13.1493 19.9092C13.0739 19.9717 12.9509 20.0473 12.757 20.1382L13.6066 21.9488ZM14.735 19.3671C14.3656 19.1024 13.898 19.0337 13.6201 18.9997C13.3071 18.9614 12.9047 18.9397 12.5801 18.914C11.8459 18.8558 11.2055 18.757 10.7246 18.4846L9.73897 20.2249C10.6404 20.7354 11.6812 20.8491 12.4222 20.9077C12.8351 20.9405 13.1188 20.9533 13.3773 20.9849C13.6709 21.0208 13.6603 21.0574 13.57 20.9928L14.735 19.3671ZM10.4366 20.3335C10.7142 20.2754 11.0404 20.1963 11.3442 20.0244C11.6817 19.8334 11.9171 19.5735 12.1062 19.2725L10.4127 18.2085C10.3794 18.2616 10.3608 18.2813 10.3568 18.2853C10.355 18.2872 10.3553 18.2867 10.3573 18.2852C10.3593 18.2837 10.3603 18.2832 10.3591 18.2838C10.3563 18.2854 10.3365 18.2962 10.2824 18.3132C10.2256 18.331 10.1467 18.3509 10.027 18.3759L10.4366 20.3335ZM11.5656 17.7885C10.8712 17.5652 10.2496 17.3876 9.65863 17.1678C9.07182 16.9495 8.64321 16.7329 8.36307 16.4974L7.07584 18.0281C7.62308 18.4883 8.31155 18.8006 8.96143 19.0423C9.60721 19.2825 10.3419 19.4959 10.9533 19.6925L11.5656 17.7885ZM7.70696 18.2626C8.02904 18.2667 8.83377 18.4084 9.73905 17.7752L8.5927 16.1363C8.43863 16.2441 8.34705 16.2629 8.27852 16.2706C8.23068 16.2761 8.17261 16.2776 8.08191 16.2749C8.02662 16.2732 7.84398 16.2642 7.73194 16.2628L7.70696 18.2626ZM9.64335 16.0771C8.33953 15.3686 7.31977 14.9736 6.48599 14.1382L5.07044 15.5511C6.17628 16.659 7.65296 17.2717 8.6884 17.8344L9.64335 16.0771ZM5.8028 15.8444C6.07021 15.8378 6.44719 15.8357 6.76204 15.8025C6.92383 15.7854 7.11753 15.756 7.30685 15.6958C7.48137 15.6403 7.76491 15.5241 7.98816 15.2601L6.46111 13.9686C6.52927 13.888 6.59708 13.8424 6.63644 13.8199C6.65686 13.8082 6.67307 13.8008 6.68322 13.7965C6.69343 13.7922 6.69954 13.7902 6.70046 13.7899C6.70129 13.7897 6.68984 13.7933 6.66204 13.7984C6.63489 13.8034 6.59875 13.8086 6.55212 13.8135C6.34236 13.8357 6.09097 13.8367 5.75363 13.845L5.8028 15.8444ZM7.75449 13.7663C6.75238 13.1402 5.92027 12.4526 5.23936 11.7116L3.7667 13.0649C4.58107 13.9511 5.55584 14.7509 6.69478 15.4624L7.75449 13.7663ZM4.38227 13.3809C5.26808 13.4887 5.9662 13.4503 6.49932 13.0629L5.32353 11.445C5.38551 11.3999 5.41421 11.4118 5.32262 11.4233C5.21559 11.4368 5.00513 11.442 4.62379 11.3956L4.38227 13.3809ZM6.62983 11.5583C6.40536 11.3265 6.17068 11.1085 5.9524 10.9079C5.72777 10.7015 5.52437 10.517 5.32978 10.3265C4.94034 9.94502 4.66162 9.6094 4.49303 9.25383L2.68588 10.1107C3.00565 10.7851 3.48321 11.3173 3.93032 11.7553C4.154 11.9744 4.38893 12.1874 4.59925 12.3807C4.81592 12.5797 5.01279 12.7634 5.19302 12.9495L6.62983 11.5583ZM3.26103 10.6268C3.88727 10.8445 4.94991 11.1277 5.81971 10.4536L4.59452 8.87281C4.61669 8.85562 4.61608 8.87871 4.50794 8.87552C4.38242 8.87182 4.19297 8.83338 3.91787 8.73773L3.26103 10.6268ZM6.1226 9.26085C5.96748 8.9079 5.71458 8.65265 5.5267 8.48158C5.36002 8.32983 5.08944 8.11392 4.94194 7.988C4.58001 7.679 4.23599 7.33162 3.98258 6.7856L2.16843 7.62754C2.59353 8.54351 3.17783 9.11164 3.64334 9.50906C3.90956 9.73635 4.02748 9.82137 4.18024 9.96046C4.31179 10.0802 4.30927 10.1057 4.29163 10.0656L6.1226 9.26085ZM2.97798 8.2018C3.28913 8.23229 3.67143 8.27326 3.98625 8.28477C4.14286 8.2905 4.32648 8.2911 4.50104 8.26946C4.58878 8.25858 4.70343 8.23872 4.82479 8.19723C4.93719 8.15881 5.12828 8.07758 5.29875 7.90089L3.85942 6.51225C3.9948 6.37193 4.13326 6.32 4.17785 6.30475C4.23139 6.28645 4.26304 6.28365 4.25493 6.28466C4.23781 6.28678 4.17837 6.29046 4.05934 6.2861C3.82287 6.27746 3.52356 6.24568 3.17303 6.21133L2.97798 8.2018ZM5.55073 6.97011C5.19453 5.50645 4.56306 4.66038 4.04655 3.92584L2.41053 5.07624C2.92744 5.81135 3.34967 6.38382 3.60744 7.44303L5.55073 6.97011ZM3.24347 5.50093C3.59197 5.49572 3.98659 5.49345 4.3866 5.49109C4.78418 5.48874 5.18715 5.48631 5.54355 5.4807C5.89491 5.47516 6.22225 5.4663 6.46164 5.44941C6.57115 5.44168 6.71029 5.42934 6.83337 5.40372C6.86768 5.39658 7.0324 5.36474 7.19952 5.26449C7.27274 5.22057 7.51723 5.0652 7.63589 4.73587C7.78862 4.31202 7.62383 3.94836 7.47166 3.75919L5.91331 5.01281C5.7672 4.83119 5.6041 4.47477 5.75431 4.0579C5.87046 3.73554 6.10824 3.58687 6.17073 3.54938C6.25894 3.49647 6.33318 3.47179 6.35956 3.46338C6.39306 3.45271 6.41728 3.44746 6.42577 3.4457C6.44457 3.44178 6.42098 3.44731 6.3209 3.45437C6.14111 3.46705 5.86185 3.47544 5.51207 3.48094C5.16733 3.48637 4.7746 3.48876 4.3748 3.49112C3.97743 3.49347 3.57299 3.49578 3.2136 3.50115L3.24347 5.50093ZM7.41 3.68946L6.53445 2.78754L5.09942 4.18062L5.97497 5.08254L7.41 3.68946ZM6.07898 4.44914C7.1384 4.16147 8.27743 4.48637 9.34216 4.8216L9.94281 2.91393C8.95268 2.60218 7.26155 2.0556 5.55488 2.51903L6.07898 4.44914ZM10.2651 4.65027C10.531 4.43872 10.7698 4.12043 10.8201 3.6924C10.8671 3.29212 10.7283 2.96171 10.6029 2.74839C10.3718 2.35552 9.9749 2.01634 9.71545 1.7979L8.42732 3.32785C8.56227 3.44146 8.67092 3.53735 8.75602 3.6224C8.79755 3.6639 8.8281 3.69754 8.84989 3.72392C8.87213 3.75086 8.87959 3.76346 8.87899 3.76242C8.87866 3.76187 8.86317 3.73593 8.8495 3.68686C8.83511 3.63519 8.82239 3.55599 8.83378 3.45901C8.85998 3.23601 8.98456 3.11333 9.01984 3.08526L10.2651 4.65027ZM8.93794 3.55393C10.0416 3.70253 11.0254 3.95642 11.9048 4.30019L12.633 2.43745C11.5921 2.03058 10.452 1.73974 9.20482 1.57182L8.93794 3.55393ZM12.9421 4.10825C13.2521 3.82607 13.4789 3.40864 13.4201 2.90308C13.3717 2.48648 13.1425 2.18186 13.0054 2.02064C12.8563 1.84533 12.6774 1.68458 12.5588 1.57709C12.4168 1.44842 12.335 1.37316 12.2785 1.30872L10.7746 2.62717C10.9228 2.79617 11.1002 2.95438 11.2159 3.05919C11.3549 3.18518 11.4322 3.25793 11.4817 3.31612C11.5431 3.3884 11.4548 3.31728 11.4335 3.13416C11.4207 3.02432 11.4362 2.90587 11.4826 2.79802C11.5259 2.69762 11.5797 2.6439 11.5957 2.62938L12.9421 4.10825ZM11.3388 2.95015C12.9867 3.26525 13.6355 3.68586 14.3376 4.13466L15.4148 2.44959C14.5879 1.92094 13.6981 1.36504 11.7144 0.985739L11.3388 2.95015ZM15.5711 4.01119C15.8175 3.77307 16.0224 3.46631 16.0928 3.08511C16.1631 2.70379 16.076 2.37137 15.9645 2.12487C15.8585 1.89029 15.7132 1.69528 15.6053 1.55988C15.5488 1.48904 15.4912 1.4206 15.4432 1.36375C15.3923 1.30328 15.3515 1.25493 15.3138 1.20795L13.7536 2.4593C13.8095 2.52898 13.867 2.59695 13.9141 2.65282C13.9642 2.71229 14.0045 2.76021 14.041 2.80609C14.077 2.85133 14.1022 2.88558 14.1201 2.91243C14.138 2.93942 14.143 2.95073 14.1421 2.94877C14.1389 2.94154 14.1019 2.85275 14.1259 2.72225C14.15 2.59186 14.2122 2.54312 14.1813 2.57306L15.5711 4.01119ZM14.1839 2.77044C15.3636 3.21092 15.9474 3.75569 16.6908 4.40828L18.0102 2.90522C17.269 2.25455 16.4423 1.47885 14.8835 0.896802L14.1839 2.77044ZM18.1564 4.24883C18.1707 4.22939 18.1892 4.20616 18.2232 4.16467C18.2523 4.12913 18.2995 4.07197 18.3449 4.01232C18.4383 3.88974 18.5695 3.6995 18.6545 3.44536C18.8473 2.86906 18.7048 2.29593 18.3918 1.74356L16.6517 2.72962C16.6907 2.79832 16.7138 2.84899 16.7273 2.88359C16.7407 2.91792 16.7433 2.93333 16.7431 2.93242C16.7408 2.91925 16.7381 2.86985 16.7578 2.81087C16.7729 2.76565 16.7892 2.7541 16.7537 2.80078C16.7346 2.82576 16.714 2.85089 16.6755 2.89788C16.6419 2.93892 16.5933 2.99848 16.5446 3.06467L18.1564 4.24883ZM17.0193 3.10119C17.8816 3.60235 18.5056 4.17715 18.9585 4.80084L20.5769 3.62583C19.9465 2.75755 19.1061 2.00074 18.0242 1.372L17.0193 3.10119ZM20.308 5.0548C20.5756 4.88298 20.7981 4.66228 20.9518 4.38524C21.1043 4.1105 21.157 3.83829 21.171 3.61181C21.184 3.39876 21.1632 3.19941 21.1506 3.07843C21.1352 2.93057 21.1289 2.87188 21.1293 2.81886L19.1293 2.8056C19.128 2.99602 19.151 3.18591 19.1614 3.28605C19.1747 3.41306 19.1764 3.46114 19.1747 3.48923C19.1738 3.50388 19.1743 3.46652 19.2031 3.41463C19.2332 3.36043 19.2605 3.35057 19.2274 3.37187L20.308 5.0548ZM19.4951 3.58542C20.4316 4.35356 20.9557 5.10208 21.8265 6.05752L23.3046 4.71029C22.6059 3.94369 21.8477 2.92833 20.7634 2.03904L19.4951 3.58542ZM23.1578 6.18969C23.497 5.94037 23.653 5.55507 23.7277 5.35066C23.8228 5.09005 23.8998 4.77882 23.9655 4.44456L22.0031 4.0588C21.9464 4.34712 21.8931 4.5439 21.849 4.66472C21.8271 4.72469 21.8153 4.74402 21.819 4.73771C21.8216 4.73338 21.8326 4.71511 21.8542 4.6891C21.8754 4.66351 21.914 4.62176 21.9733 4.57812L23.1578 6.18969ZM22.285 4.96651C23.3979 6.05521 24.7323 7.97659 25.2101 9.82821C25.446 10.7424 25.4529 11.5595 25.2067 12.2336C24.9706 12.88 24.4611 13.5083 23.4294 14L24.2899 15.8055C25.7284 15.1199 26.6458 14.1229 27.0853 12.9198C27.5146 11.7444 27.4459 10.4881 27.1466 9.32849C26.5542 7.03263 24.9807 4.80579 23.6836 3.53685L22.285 4.96651ZM24.4991 14.1339C20.1768 10.5393 15.0385 7.94607 9.3932 6.01189L8.74496 7.90392C14.229 9.78286 19.1336 12.273 23.2202 15.6716L24.4991 14.1339ZM9.56797 7.82457L9.56959 7.82364L8.5718 6.09031L8.57018 6.09124L9.56797 7.82457ZM46.5625 6.06976C39.3798 9.80474 35.0899 12.8796 32.6883 15.5811L34.183 16.9099C36.3373 14.4867 40.364 11.5472 47.4852 7.84419L46.5625 6.06976ZM32.4649 16.4857C33.1633 19.3083 35.3458 20.7296 37.471 21.4141C39.5836 22.0946 41.8011 22.1114 42.973 22.0418L42.8543 20.0453C41.8007 20.1079 39.8626 20.0833 38.0842 19.5104C36.3183 18.9416 34.8746 17.8977 34.4063 16.0053L32.4649 16.4857ZM43.3384 20.1382C43.1446 20.0473 43.0216 19.9718 42.9463 19.9093C42.8773 19.8521 42.8816 19.8336 42.8893 19.8563L40.997 20.5036C41.2763 21.3201 42.0144 21.7262 42.4888 21.9488L43.3384 20.1382ZM42.5256 20.9928C42.4354 21.0574 42.4248 21.0208 42.7184 20.9849C42.9768 20.9533 43.2605 20.9405 43.6735 20.9077C44.4144 20.8491 45.4552 20.7354 46.3565 20.2248L45.3708 18.4846C44.89 18.757 44.2497 18.8558 43.5155 18.914C43.1909 18.9397 42.7885 18.9614 42.4755 18.9997C42.1976 19.0337 41.7301 19.1024 41.3606 19.3671L42.5256 20.9928ZM46.0684 18.3759C45.9487 18.3509 45.8698 18.331 45.8132 18.3132C45.759 18.2963 45.7393 18.2855 45.7365 18.2839C45.7353 18.2832 45.7363 18.2837 45.7383 18.2852C45.7403 18.2867 45.7405 18.2872 45.7386 18.2853C45.7346 18.2812 45.7159 18.2613 45.6825 18.2082L43.9895 19.2729C44.1786 19.5736 44.4139 19.8334 44.7512 20.0243C45.055 20.1963 45.3811 20.2754 45.6589 20.3335L46.0684 18.3759ZM45.1421 19.6925C45.7537 19.4959 46.4884 19.2825 47.1342 19.0423C47.7841 18.8006 48.4725 18.4882 49.0197 18.028L47.7323 16.4975C47.4523 16.733 47.0238 16.9495 46.437 17.1678C45.8461 17.3875 45.2244 17.5652 44.5299 17.7885L45.1421 19.6925ZM48.3635 16.2628C48.2515 16.2642 48.0688 16.2732 48.0135 16.2749C47.9228 16.2776 47.8648 16.2761 47.8169 16.2706C47.7484 16.2629 47.6568 16.2441 47.5027 16.1363L46.3564 17.7752C47.2617 18.4084 48.0664 18.2667 48.3885 18.2626L48.3635 16.2628ZM47.407 17.8344C48.4427 17.2717 49.9194 16.6591 51.0252 15.5511L49.6097 14.1382C48.7759 14.9735 47.7561 15.3686 46.4522 16.077L47.407 17.8344ZM50.342 13.845C50.0046 13.8367 49.7531 13.8357 49.5434 13.8135C49.4967 13.8086 49.4606 13.8034 49.4335 13.7984C49.4057 13.7933 49.3943 13.7897 49.3952 13.79C49.3961 13.7903 49.4022 13.7922 49.4125 13.7966C49.4227 13.8009 49.4389 13.8083 49.4594 13.8201C49.4988 13.8426 49.5667 13.8883 49.6349 13.969L48.1071 15.2597C48.3304 15.524 48.6141 15.6402 48.7886 15.6958C48.9779 15.756 49.1717 15.7854 49.3335 15.8025C49.6483 15.8357 50.0254 15.8378 50.2929 15.8444L50.342 13.845ZM49.4009 15.4624C50.5398 14.7509 51.5146 13.9511 52.329 13.0649L50.8563 11.7116C50.1754 12.4526 49.3433 13.1402 48.3412 13.7663L49.4009 15.4624ZM51.4719 11.3956C51.0904 11.442 50.88 11.4368 50.773 11.4233C50.6815 11.4118 50.7102 11.4 50.7721 11.445L49.5963 13.0629C50.1295 13.4503 50.8273 13.4887 51.7134 13.3809L51.4719 11.3956ZM50.9027 12.9494C51.0829 12.7634 51.2797 12.5797 51.4963 12.3806C51.7066 12.1874 51.9416 11.9744 52.1652 11.7553C52.6123 11.3174 53.09 10.7851 53.4098 10.1107L51.6026 9.25382C51.4341 9.60936 51.1553 9.94496 50.7658 10.3264C50.5712 10.517 50.3678 10.7015 50.1432 10.9079C49.9249 11.1085 49.6902 11.3265 49.4657 11.5584L50.9027 12.9494ZM52.1779 8.73769C51.9026 8.83337 51.7131 8.87182 51.5875 8.87552C51.4793 8.87871 51.4787 8.85561 51.5009 8.87281L50.2757 10.4536C51.1455 11.1277 52.2082 10.8445 52.8345 10.6268L52.1779 8.73769ZM51.8038 10.0656C51.7861 10.1057 51.7836 10.0803 51.9152 9.96049C52.068 9.82138 52.1859 9.7364 52.4522 9.50909C52.9177 9.11165 53.5021 8.54347 53.9271 7.62742L52.1128 6.78572C51.8595 7.33165 51.5156 7.67899 51.1536 7.98797C51.0061 8.11387 50.7355 8.32982 50.5688 8.48154C50.3809 8.6526 50.128 8.90786 49.9728 9.26085L51.8038 10.0656ZM52.9224 6.21134C52.572 6.24568 52.2727 6.27746 52.0362 6.2861C51.9171 6.29046 51.8577 6.28678 51.8405 6.28466C51.8324 6.28365 51.864 6.28644 51.9175 6.30474C51.9621 6.31997 52.1006 6.37189 52.236 6.51225L50.7967 7.90089C50.9672 8.07761 51.1583 8.15884 51.2707 8.19725C51.3921 8.23873 51.5067 8.25858 51.5945 8.26946C51.769 8.2911 51.9526 8.2905 52.1093 8.28477C52.4241 8.27325 52.8064 8.23229 53.1175 8.2018L52.9224 6.21134ZM52.4879 7.44345C52.7463 6.3835 53.1687 5.81084 53.6856 5.07578L52.0496 3.92537C51.533 4.65997 50.9017 5.50584 50.5448 6.96969L52.4879 7.44345ZM52.8825 3.50069C52.5231 3.49532 52.1187 3.493 51.7213 3.49066C51.3215 3.4883 50.9288 3.48591 50.5841 3.48048C50.2343 3.47497 49.955 3.46659 49.7752 3.4539C49.6752 3.44684 49.6516 3.44132 49.6704 3.44523C49.6788 3.447 49.7031 3.45225 49.7366 3.46292C49.7629 3.47132 49.8372 3.49601 49.9254 3.54892C49.9879 3.5864 50.2257 3.73508 50.3418 4.05743C50.492 4.4743 50.3289 4.83072 50.1828 5.01235L48.6245 3.75873C48.4723 3.9479 48.3075 4.31156 48.4602 4.73541C48.5789 5.06474 48.8234 5.22011 48.8966 5.26403C49.0637 5.36427 49.2285 5.39611 49.2628 5.40326C49.3858 5.42888 49.525 5.44122 49.6345 5.44894C49.8739 5.46583 50.2012 5.4747 50.5526 5.48023C50.909 5.48584 51.3119 5.48827 51.7095 5.49062C52.1095 5.49298 52.5042 5.49526 52.8527 5.50046L52.8825 3.50069ZM50.1213 5.08199L50.9968 4.17983L49.5616 2.78694L48.686 3.68909L50.1213 5.08199ZM50.5411 2.51829C48.8345 2.05517 47.1435 2.60171 46.1533 2.91346L46.754 4.82114C47.8187 4.48591 48.9578 4.16097 50.0173 4.44848L50.5411 2.51829ZM47.0763 3.08479C47.1115 3.11283 47.2361 3.23544 47.2623 3.45833C47.2737 3.55528 47.261 3.63448 47.2466 3.68617C47.233 3.73525 47.2175 3.76122 47.2171 3.76179C47.2165 3.76285 47.224 3.75026 47.2462 3.72335C47.2679 3.69698 47.2985 3.66336 47.34 3.62187C47.425 3.53685 47.5337 3.44098 47.6686 3.32738L46.3805 1.79744C46.1209 2.01593 45.7241 2.35513 45.4931 2.7481C45.3676 2.96148 45.2289 3.29191 45.276 3.69215C45.3264 4.12007 45.5652 4.43829 45.831 4.64981L47.0763 3.08479ZM46.8912 1.57133C45.6441 1.73904 44.5036 2.03016 43.4631 2.43701L44.1914 4.29969C45.0706 3.95592 46.0546 3.70184 47.1578 3.55349L46.8912 1.57133ZM44.5003 2.62877C44.5162 2.64325 44.57 2.69695 44.6133 2.79735C44.6598 2.90521 44.6753 3.02371 44.6625 3.13361C44.6412 3.31683 44.5529 3.38801 44.6143 3.31571C44.6638 3.25752 44.7411 3.18478 44.8801 3.05878C44.9958 2.95396 45.1733 2.79574 45.3215 2.62671L43.8176 1.30825C43.7612 1.37266 43.6794 1.44791 43.5374 1.57658C43.4187 1.68406 43.2398 1.84481 43.0907 2.02012C42.9536 2.18132 42.7243 2.486 42.6759 2.9027C42.6171 3.40841 42.8442 3.82584 43.1542 4.10794L44.5003 2.62877ZM44.3818 0.985274C42.398 1.36457 41.5082 1.92048 40.6812 2.44905L41.7582 4.13427C42.4606 3.6854 43.1094 3.26478 44.7574 2.94969L44.3818 0.985274ZM41.9146 2.5726C41.8837 2.54268 41.946 2.59148 41.97 2.72195C41.9941 2.8525 41.957 2.9413 41.9538 2.94849C41.9529 2.95043 41.9579 2.93911 41.9759 2.9121C41.9938 2.88524 42.019 2.85097 42.055 2.80572C42.0916 2.75982 42.1318 2.7119 42.182 2.6524C42.2291 2.59651 42.2866 2.52854 42.3425 2.45884L40.7823 1.20748C40.7447 1.25444 40.7039 1.30278 40.6529 1.36323C40.605 1.42007 40.5473 1.4885 40.4909 1.55933C40.383 1.6947 40.2376 1.88968 40.1315 2.12422C40.0201 2.37068 39.9329 2.7031 40.0032 3.08448C40.0734 3.46576 40.2783 3.77257 40.5248 4.01072L41.9146 2.5726ZM41.2126 0.896337C39.6538 1.47839 38.8272 2.25408 38.0859 2.90476L39.4053 4.40782C40.1487 3.75523 40.7326 3.21046 41.9122 2.76998L41.2126 0.896337ZM39.5512 3.06385C39.5026 2.99774 39.454 2.93823 39.4204 2.89723C39.382 2.8503 39.3613 2.82517 39.3423 2.80023C39.3068 2.75361 39.3231 2.76518 39.3382 2.81041C39.358 2.86938 39.3552 2.91875 39.3529 2.93187C39.3527 2.93275 39.3554 2.91732 39.3687 2.88297C39.3822 2.84836 39.4054 2.79768 39.4443 2.72898L37.704 1.74328C37.3912 2.29559 37.2488 2.86866 37.4415 3.44489C37.5266 3.69904 37.6578 3.88929 37.7512 4.01194C37.7966 4.07164 37.8439 4.12878 37.873 4.16439C37.9071 4.20592 37.9256 4.2292 37.94 4.24872L39.5512 3.06385ZM38.0716 1.37158C36.99 2.00031 36.1496 2.7571 35.5192 3.62536L37.1377 4.80038C37.5905 4.17667 38.2145 3.60185 39.0767 3.10067L38.0716 1.37158ZM36.8688 3.3714C36.8357 3.35014 36.863 3.36001 36.893 3.41419C36.9218 3.46605 36.9223 3.50338 36.9214 3.48868C36.9197 3.46057 36.9215 3.41248 36.9347 3.28549C36.9452 3.1854 36.9681 2.99551 36.9668 2.80514L34.9669 2.8184C34.9672 2.87134 34.961 2.92997 34.9455 3.07786C34.9329 3.19885 34.9121 3.39819 34.9252 3.61125C34.9391 3.83772 34.9918 4.10994 35.1443 4.38468C35.298 4.66174 35.5205 4.88248 35.7882 5.05434L36.8688 3.3714ZM35.3327 2.03858C34.2484 2.92795 33.4904 3.94281 32.7914 4.70992L34.2697 6.05695C35.1403 5.10156 35.6646 4.35302 36.601 3.58496L35.3327 2.03858ZM34.1228 4.57765C34.1822 4.6213 34.2208 4.66305 34.242 4.68864C34.2635 4.71466 34.2746 4.73293 34.2771 4.73727C34.2809 4.74358 34.2691 4.72425 34.2472 4.66427C34.203 4.54344 34.1497 4.3466 34.093 4.05818L32.1306 4.44379C32.1963 4.77818 32.2733 5.08947 32.3684 5.35012C32.4431 5.55458 32.5991 5.93989 32.9384 6.18922L34.1228 4.57765ZM32.4125 3.53619C31.1154 4.80522 29.5419 7.03212 28.9495 9.328C28.6503 10.4876 28.5815 11.744 29.0109 12.9194C29.4503 14.1224 30.3677 15.1194 31.8062 15.805L32.6667 13.9996C31.6351 13.5079 31.1256 12.8795 30.8894 12.2331C30.6432 11.5591 30.6502 10.7419 30.8861 9.82771C31.3639 7.97606 32.6982 6.05461 33.8111 4.96578L32.4125 3.53619ZM32.8762 15.6709C36.9604 12.2716 41.8636 9.78194 47.3479 7.903L46.6997 6.01096C41.0542 7.94513 35.9169 10.5379 31.5968 14.1337L32.8762 15.6709ZM35.7097 54.9749C35.7311 58.7549 32.431 61.9572 28.1821 61.9778L28.1918 63.9778C33.4063 63.9524 37.738 59.9834 37.7096 54.9636L35.7097 54.9749ZM28.182 61.9778C23.9323 61.9987 20.5952 58.8282 20.5738 55.0475L18.5739 55.0588C18.6023 60.0779 22.9776 64.0034 28.1918 63.9778L28.182 61.9778ZM20.5738 55.0449C20.5736 55.0225 20.5736 55 20.5738 54.9775L18.5739 54.961C18.5736 54.9945 18.5736 55.028 18.5739 55.0614L20.5738 55.0449ZM20.5738 54.9636C20.5524 51.1839 23.8522 47.9816 28.1015 47.9608L28.0917 45.9608C22.877 45.9864 18.5455 49.9554 18.5739 54.9749L20.5738 54.9636ZM28.1015 47.9608C32.3511 47.9399 35.6881 51.1103 35.7097 54.8911L37.7096 54.8797C37.681 49.8607 33.306 45.9352 28.0917 45.9608L28.1015 47.9608ZM35.7097 54.8854V54.9693H37.7097V54.8854H35.7097ZM22.6329 33.0455C25.5978 35.0045 26.3257 39.6486 23.7771 43.5372L25.4499 44.6335C28.4229 40.0974 27.8707 34.109 23.7354 31.3769L22.6329 33.0455ZM23.7771 43.5372C21.229 47.4253 16.6989 48.5882 13.7378 46.6321L12.6354 48.3008C16.7747 51.0353 22.4764 49.1707 25.4499 44.6335L23.7771 43.5372ZM13.7379 46.6321C10.773 44.6732 10.0452 40.0291 12.5937 36.1404L10.9209 35.0442C7.94817 39.5803 8.50002 45.5686 12.6354 48.3008L13.7379 46.6321ZM12.5937 36.1404C15.1417 32.2524 19.6719 31.0894 22.6329 33.0456L23.7353 31.3768C19.5961 28.6423 13.8944 30.507 10.9209 35.0442L12.5937 36.1404ZM32.2149 30.9523C28.0797 33.6842 27.5276 39.6728 30.5003 44.2089L32.1731 43.1127C29.6247 39.224 30.3527 34.5796 33.3173 32.621L32.2149 30.9523ZM30.5003 44.2089C33.4738 48.7461 39.1756 50.6108 43.3149 47.876L42.2124 46.2073C39.2513 48.1636 34.7212 47.0007 32.1731 43.1126L30.5003 44.2089ZM43.3148 47.876C47.4502 45.144 48.0023 39.1557 45.0294 34.6193L43.3566 35.7156C45.9052 39.6045 45.1773 44.2486 42.2124 46.2073L43.3148 47.876ZM45.0294 34.6194C42.0561 30.0824 36.3543 28.2178 32.2149 30.9522L33.3173 32.621C36.2786 30.6648 40.8088 31.8279 43.3566 35.7156L45.0294 34.6194ZM5.70174 37.0111C5.77493 36.9913 5.78006 37.0066 5.75355 36.9972C5.73239 36.9898 5.75464 36.9882 5.81032 37.0578C5.94427 37.225 6.11027 37.6006 6.22653 38.259C6.45308 39.5421 6.41076 41.413 6.14475 43.3406C5.87943 45.2631 5.40748 47.1274 4.84262 48.3946C4.55449 49.041 4.28208 49.4398 4.07209 49.632C3.97424 49.7216 3.93138 49.7277 3.94795 49.7235C3.95825 49.7209 3.97636 49.7185 3.99769 49.7204C4.01873 49.7223 4.02882 49.7273 4.02497 49.7255L3.2074 51.5508C3.60212 51.7276 4.02475 51.7669 4.43752 51.6627C4.83204 51.5631 5.15977 51.3477 5.42232 51.1074C5.93314 50.64 6.3408 49.946 6.66936 49.2089C7.33789 47.7091 7.84586 45.6437 8.12597 43.614C8.40539 41.5893 8.47403 39.4855 8.19606 37.9113C8.06006 37.1411 7.81994 36.3675 7.37126 35.8074C7.13563 35.5132 6.82245 35.2535 6.4189 35.1112C6.01001 34.9669 5.5858 34.9706 5.17988 35.0803L5.70174 37.0111ZM4.24609 49.8615C2.82548 48.7094 1.77414 46.3072 1.85654 43.7036C1.93711 41.158 3.10037 38.5473 5.93982 36.9123L4.9418 35.1791C1.42123 37.2064 -0.0430881 40.5008 -0.142456 43.6403C-0.239987 46.7218 0.976369 49.7848 2.98629 51.4148L4.24609 49.8615ZM49.9966 34.8681C49.5906 34.7585 49.1664 34.7548 48.7575 34.899C48.354 35.0414 48.0408 35.3011 47.8052 35.5953C47.3565 36.1554 47.1163 36.9291 46.9803 37.6993C46.7023 39.2736 46.771 41.3776 47.0504 43.4024C47.3306 45.4322 47.8386 47.4976 48.5071 48.9975C48.8357 49.7346 49.2434 50.4287 49.7542 50.8961C50.0168 51.1364 50.3445 51.3518 50.739 51.4514C51.1518 51.5556 51.5744 51.5164 51.9692 51.3395L51.1516 49.5143C51.1477 49.516 51.1578 49.5111 51.1789 49.5092C51.2002 49.5072 51.2183 49.5097 51.2286 49.5123C51.2452 49.5165 51.2023 49.5103 51.1045 49.4207C50.8944 49.2285 50.622 48.8297 50.3339 48.1832C49.769 46.9159 49.297 45.0516 49.0316 43.1289C48.7656 41.2013 48.7233 39.3302 48.9498 38.0471C49.0661 37.3886 49.2321 37.0129 49.3661 36.8457C49.4218 36.7761 49.4441 36.7776 49.423 36.7851C49.3965 36.7944 49.4017 36.7791 49.4749 36.7989L49.9966 34.8681ZM52.1903 51.2036C54.2002 49.5734 55.4165 46.5101 55.319 43.4284C55.2196 40.2888 53.7554 36.9941 50.2347 34.9669L49.2368 36.7001C52.0762 38.335 53.2394 40.9458 53.32 43.4917C53.4024 46.0956 52.3511 48.498 50.9304 49.6503L52.1903 51.2036ZM36.8805 24.1406C39.954 23.6174 42.681 24.2882 44.597 25.8333C46.4995 27.3675 47.7124 29.8511 47.6097 33.1933L49.6087 33.2547C49.7283 29.3643 48.3002 26.2503 45.8525 24.2764C43.4184 22.3136 40.086 21.5661 36.5448 22.169L36.8805 24.1406ZM47.6123 33.1458C47.6178 33.0756 47.6792 32.8304 47.9425 32.69C48.1251 32.5926 48.2368 32.6434 48.1197 32.6215C47.9027 32.5808 47.4718 32.4021 46.8266 32.0188C45.5838 31.2805 43.926 30.017 42.3197 28.6278C40.7151 27.24 39.2166 25.774 38.2808 24.6518C37.7969 24.0716 37.5315 23.6627 37.4406 23.4407C37.3859 23.3072 37.4656 23.4121 37.4079 23.6263C37.371 23.7634 37.2869 23.9052 37.1537 24.011C37.032 24.1076 36.9205 24.1339 36.8797 24.1408L36.5456 22.1689C36.3525 22.2016 36.121 22.2771 35.9098 22.4448C35.6871 22.6217 35.5439 22.8564 35.4766 23.1065C35.3581 23.5468 35.4914 23.9584 35.5899 24.1988C35.8053 24.7248 36.2446 25.333 36.7448 25.9328C37.7771 27.1706 39.3643 28.716 41.0113 30.1405C42.6566 31.5634 44.4162 32.9132 45.8051 33.7383C46.4759 34.1368 47.1644 34.4773 47.7516 34.5873C48.0364 34.6406 48.4714 34.6745 48.8835 34.4548C49.3762 34.192 49.5735 33.719 49.6062 33.3022L47.6123 33.1458ZM18.6043 21.9568C15.0629 21.3538 11.7305 22.1015 9.29643 24.0645C6.84884 26.0385 5.42088 29.1526 5.54039 33.0427L7.53944 32.9813C7.43678 29.6394 8.64953 27.1556 10.552 25.6213C12.468 24.0761 15.1949 23.4051 18.2686 23.9285L18.6043 21.9568ZM5.54298 33.0903C5.57568 33.5071 5.77295 33.9801 6.2657 34.2428C6.67782 34.4625 7.11277 34.4286 7.39763 34.3753C7.98475 34.2653 8.67325 33.9247 9.34403 33.5262C10.733 32.7011 12.4926 31.3513 14.1379 29.9283C15.7849 28.5038 17.3721 26.9584 18.4044 25.7206C18.9046 25.1208 19.3439 24.5126 19.5594 23.9866C19.6578 23.7462 19.7911 23.3346 19.6725 22.8943C19.6052 22.6442 19.462 22.4094 19.2393 22.2326C19.0281 22.0649 18.7966 21.9894 18.6035 21.9567L18.2694 23.9286C18.2287 23.9217 18.1172 23.8955 17.9955 23.7989C17.8624 23.6931 17.7782 23.5513 17.7413 23.4142C17.6836 23.2 17.7633 23.0951 17.7086 23.2286C17.6177 23.4505 17.3523 23.8594 16.8685 24.4396C15.9326 25.5618 14.4342 27.0278 12.8296 28.4156C11.2233 29.8049 9.56538 31.0684 8.32251 31.8068C7.67738 32.19 7.2464 32.3688 7.02941 32.4095C6.91222 32.4314 7.02396 32.3806 7.20659 32.478C7.46985 32.6183 7.53134 32.8636 7.53685 32.9338L5.54298 33.0903ZM27.9645 20.2563C25.7368 20.1978 23.6013 21.0257 22.0287 22.0872C21.2387 22.6204 20.5582 23.2342 20.0636 23.8663C19.5892 24.4727 19.1962 25.2118 19.1922 25.979L21.1922 25.9894C21.1928 25.8697 21.2769 25.5613 21.6388 25.0987C21.9806 24.6618 22.4958 24.1849 23.1477 23.7448C24.4589 22.8598 26.1918 22.2104 27.912 22.2556L27.9645 20.2563ZM19.1922 25.9792C19.1843 27.56 20.3059 28.9207 21.8111 29.8351C23.3528 30.7717 25.4809 31.3724 27.9532 31.4022L27.9772 29.4023C25.798 29.3761 24.0341 28.8454 22.8495 28.1258C21.6283 27.3839 21.1893 26.5637 21.1922 25.9892L19.1922 25.9792ZM27.958 31.4022C30.4466 31.4201 32.569 30.9601 34.1105 30.1356C35.6392 29.318 36.7504 28.0387 36.7615 26.4184L34.7615 26.4047C34.7574 27.0087 34.3455 27.7418 33.1672 28.372C32.0019 28.9953 30.2338 29.4185 27.9724 29.4023L27.958 31.4022ZM36.7615 26.4185C36.7679 25.4977 36.3784 24.6477 35.8356 23.9327C35.2895 23.2134 34.5437 22.5692 33.7115 22.0334C32.0587 20.9692 29.9093 20.234 27.9272 20.256L27.9493 22.2559C29.4703 22.239 31.2413 22.8216 32.6288 23.715C33.3167 24.1579 33.8709 24.6524 34.2427 25.1421C34.6178 25.6361 34.7639 26.0654 34.7615 26.4046L36.7615 26.4185ZM28.2233 66.4516C29.8244 66.3811 31.7213 66.6442 33.196 67.1174C33.9368 67.355 34.5125 67.6274 34.8819 67.8948C35.2822 68.1848 35.2495 68.3217 35.2492 68.26L37.2492 68.2491C37.2442 67.3453 36.6308 66.692 36.055 66.275C35.4481 65.8355 34.6524 65.4842 33.8071 65.213C32.1097 64.6684 29.9763 64.3725 28.1353 64.4535L28.2233 66.4516ZM35.2498 68.2895C35.2495 68.2825 35.2505 68.3584 35.1694 68.5342C35.0923 68.7016 34.9623 68.9125 34.7698 69.1563C34.3847 69.6439 33.8043 70.1939 33.0816 70.7097C31.6211 71.7521 29.7392 72.5438 27.9685 72.5131L27.9338 74.5128C30.2723 74.5534 32.5681 73.5334 34.2435 72.3376C35.0888 71.7343 35.816 71.0586 36.3394 70.3958C36.8233 69.783 37.2759 69.0027 37.2486 68.2196L35.2498 68.2895ZM27.9077 72.5139C26.0663 72.594 24.1697 71.8262 22.7083 70.8365C21.9847 70.3464 21.4054 69.8267 21.0227 69.3807C20.8306 69.1568 20.7043 68.9705 20.6321 68.8329C20.5499 68.676 20.58 68.6631 20.5759 68.7577L18.5777 68.6726C18.5601 69.0879 18.7086 69.4712 18.8607 69.7614C19.023 70.0709 19.247 70.3826 19.505 70.6832C20.0223 71.286 20.742 71.9202 21.5868 72.4924C23.2624 73.6273 25.5802 74.6171 27.9946 74.512L27.9077 72.5139ZM20.5763 68.6812C20.5763 68.6812 20.5763 68.6811 20.5763 68.681C20.5763 68.6808 20.5763 68.6804 20.5764 68.6795C20.5766 68.678 20.5773 68.6739 20.5796 68.6668C20.5841 68.6525 20.5957 68.6233 20.6245 68.5793C20.6853 68.4864 20.8039 68.3562 21.0116 68.2009C21.4308 67.8877 22.0787 67.5714 22.8947 67.2926C24.5215 66.7369 26.5703 66.4123 28.1541 66.4523L28.2045 64.4529C26.3677 64.4066 24.0833 64.7731 22.2481 65.4C21.3331 65.7126 20.4677 66.1106 19.8144 66.5989C19.1948 67.0619 18.5445 67.7788 18.5774 68.7491L20.5763 68.6812ZM14.6937 56.108C15.8 57.452 16.6254 59.3409 16.9282 61.0587C17.079 61.9146 17.091 62.6777 16.9758 63.278C16.8602 63.8808 16.6356 64.2352 16.3864 64.4231L17.5905 66.0201C18.3639 65.437 18.7665 64.5594 18.94 63.6548C19.114 62.7477 19.077 61.7281 18.8978 60.7116C18.5406 58.6845 17.582 56.4698 16.2378 54.8369L14.6937 56.108ZM16.4687 64.3673C15.8203 64.7617 14.4815 64.9721 12.8298 64.4508C11.2195 63.9426 9.38913 62.7543 7.83857 60.508L6.19264 61.6442C7.98157 64.2357 10.1702 65.7087 12.2278 66.358C14.2439 66.9943 16.2218 66.8585 17.5082 66.0759L16.4687 64.3673ZM7.89002 60.591C6.83964 58.6979 6.39765 56.8138 6.38752 55.3003C6.37692 53.7173 6.82798 52.7846 7.24364 52.4657L6.02609 50.879C4.86027 51.7736 4.37551 53.5131 4.38756 55.3137C4.40008 57.1839 4.93919 59.395 6.14118 61.5613L7.89002 60.591ZM7.15823 52.5244C7.93646 52.0464 9.0527 52.0506 10.4634 52.7017C11.8585 53.3456 13.3648 54.5535 14.7056 56.1222L16.2259 54.8227C14.7543 53.1009 13.0276 51.6825 11.3015 50.8858C9.5911 50.0964 7.69811 49.8457 6.11151 50.8202L7.15823 52.5244ZM39.6393 53.8825C38.1964 55.5866 37.0996 57.9496 36.6101 60.1361C36.3645 61.2329 36.2611 62.3321 36.3685 63.3153C36.4748 64.2877 36.8009 65.2527 37.5194 65.9362L38.8978 64.487C38.6493 64.2506 38.4347 63.8118 38.3567 63.098C38.2798 62.395 38.3485 61.5256 38.5618 60.573C38.9898 58.6609 39.957 56.6023 41.1656 55.1749L39.6393 53.8825ZM37.5972 66.0029C38.8442 66.9665 40.8996 67.2516 43.0244 66.6874C45.1975 66.1103 47.5458 64.6308 49.5037 61.8914L47.8765 60.7285C46.1672 63.1201 44.1996 64.306 42.5111 64.7543C40.7743 65.2155 39.4225 64.8859 38.8201 64.4203L37.5972 66.0029ZM49.4814 61.9214C51.004 59.9509 51.469 57.3901 51.3831 55.1869C51.3398 54.075 51.1554 53.0156 50.8702 52.115C50.5924 51.2376 50.1898 50.4187 49.6485 49.8748L48.231 51.2858C48.4501 51.506 48.7295 51.9796 48.9635 52.7188C49.1903 53.4349 49.3477 54.3162 49.3846 55.2648C49.4594 57.1829 49.0391 59.2228 47.8988 60.6985L49.4814 61.9214ZM49.5547 49.7918C47.9838 48.5666 46.1401 48.8473 44.4955 49.7135C42.8621 50.5737 41.1967 52.109 39.6511 53.8688L41.1538 55.1886C42.6421 53.4941 44.1156 52.174 45.4275 51.4831C46.7281 50.7981 47.6361 50.8318 48.3247 51.3688L49.5547 49.7918Z" fill="white" mask="url(#path-1-inside-1_149_7)"/>
</svg>
