<svg width="67" height="40" viewBox="0 0 67 40" fill="none" xmlns="http://www.w3.org/2000/svg">
<path d="M21.8864 8.29043C20.4459 8.90779 19.0926 9.88095 17.8235 11.1953C18.956 7.95414 20.625 5.47361 22.8123 3.72377C25.4812 1.58867 28.9734 0.5 33.3333 0.5C39.8405 0.5 43.4745 2.92654 46.3264 5.57473C47.0158 6.21486 47.6588 6.86753 48.2914 7.50965L48.3743 7.59378C49.0306 8.25976 49.6787 8.91478 50.3426 9.51227C51.6718 10.7085 53.0982 11.7066 54.8787 12.1517C57.1977 12.7315 59.3936 12.5896 61.447 11.7096C62.8875 11.0922 64.2407 10.1191 65.5099 8.80475C64.3773 12.0459 62.7083 14.5264 60.521 16.2762C57.8521 18.4113 54.3599 19.5 50 19.5C43.4929 19.5 39.8588 17.0735 37.0069 14.4253C36.3174 13.7851 35.6744 13.1323 35.0417 12.4901L34.959 12.4062C34.3028 11.7402 33.6546 11.0852 32.9907 10.4877C31.6615 9.29145 30.2351 8.2934 28.4546 7.84826C26.1357 7.26853 23.9397 7.41041 21.8864 8.29043ZM5.21971 28.2904C3.77919 28.9078 2.42596 29.8809 1.15682 31.1953C2.28935 27.9541 3.95837 25.4736 6.14568 23.7238C8.81455 21.5887 12.3068 20.5 16.6667 20.5C23.1738 20.5 26.8079 22.9265 29.6598 25.5747C30.3493 26.215 30.9923 26.8677 31.625 27.5099L31.7077 27.5938C32.3639 28.2598 33.0121 28.9148 33.6759 29.5123C35.0051 30.7085 36.4315 31.7066 38.2121 32.1517C40.531 32.7315 42.7269 32.5896 44.7803 31.7096C46.2208 31.0922 47.574 30.1191 48.8432 28.8048C47.7107 32.0459 46.0416 34.5264 43.8543 36.2762C41.1855 38.4113 37.6932 39.5 33.3333 39.5C26.8262 39.5 23.1921 37.0735 20.3402 34.4253C19.6508 33.7851 19.0078 33.1324 18.3751 32.4902L18.2923 32.4062C17.6361 31.7402 16.9879 31.0852 16.3241 30.4877C14.9949 29.2915 13.5685 28.2934 11.7879 27.8483C9.46902 27.2685 7.27308 27.4104 5.21971 28.2904Z" stroke="white"/>
</svg>
